solid Carriage
facet normal 1.55552080375982e-16 -0.549837732199944 0.835271493736751
outer loop
vertex -97.1811912470999 109.694086766452 22.7774211276285
vertex -97.6130009100436 117.464802903638 27.8926836147097
vertex -102.519967133339 117.464802903638 27.8926836147097
endloop
endfacet
facet normal -0.778430183347905 0.451118370381152 -0.436507348801371
outer loop
vertex -65.892279380677 118.404752397149 26.1273238922605
vertex -67.8587430195781 108.738004317067 19.6438294045592
vertex -67.4269333566343 117.464802903638 27.8926836147097
endloop
endfacet
facet normal 0.97272763746429 0.163920121816506 0.164107089965067
outer loop
vertex -101.06574299809 125.25196753741 13.2672735352812
vertex -91.5199671333393 80.9085411884273 0.97858962635552
vertex -91.5199671333393 81.3222392382254 0.565362905117386
endloop
endfacet
facet normal -0.757214262747585 -0.306971790492085 0.576536972044044
outer loop
vertex -97.5885962834409 126.212210665556 5.07593966858622e-14
vertex -97.9199671333394 131.087322025812 2.30764235173254
vertex -97.9199671333394 126.753239301482 3.94795307556706e-14
endloop
endfacet
facet normal -0.500000000000002 -0.407010069827357 0.764423183229766
outer loop
vertex -97.9199671333394 131.087322025812 2.30764235173254
vertex -97.5885962834409 126.212210665556 5.07593966858622e-14
vertex -97.5885962834409 130.967821642756 2.53208118011777
endloop
endfacet
facet normal -0.965925826289076 -0.121638415177525 0.228454358813452
outer loop
vertex -97.1744858112769 130.630727378372 3.1651924707986
vertex -97.3343264872843 125.507128419784 4.51194637207664e-14
vertex -97.1744858112769 124.686042754011 4.51194637207664e-14
endloop
endfacet
facet normal -0.904485740120353 -0.200446045425131 0.37646637139639
outer loop
vertex -97.3343264872843 125.507128419784 4.51194637207664e-14
vertex -97.1744858112769 130.630727378372 3.1651924707986
vertex -97.3343264872843 130.812085711492 2.82457555592016
endloop
endfacet
facet normal 0.548995406372513 -0.392816815092331 0.737766218772991
outer loop
vertex -99.5199671333394 126.753239301482 4.51194637207664e-14
vertex -99.1340776055035 131.16244310704 2.1665542060162
vertex -99.5199671333394 131.087322025812 2.30764235173254
endloop
endfacet
facet normal 0.258819045102486 -0.453960745594737 0.852603274302479
outer loop
vertex -99.1340776055035 131.16244310704 2.1665542060162
vertex -99.5199671333394 126.753239301482 4.51194637207664e-14
vertex -99.1340776055035 127.093344120115 4.22994972382185e-14
endloop
endfacet
facet normal 0.754152059632573 0.00206738094171324 0.656696579013466
outer loop
vertex -96.0964173321212 129.297098710012 5.66993804711034
vertex -99.147654886001 127.428267534854 9.17987055673935
vertex -91.5199671333393 81.3222392382254 0.565362905117386
endloop
endfacet
facet normal -0.500000000000036 0.40701006982735 -0.764423183229747
outer loop
vertex -97.9199671333394 129.784889802364 4.75379653806779
vertex -98.3058566611754 120.51647447879 4.51194637207664e-14
vertex -98.3058566611754 129.709768721136 4.89488468378413
endloop
endfacet
facet normal -0.218826140513729 0.458584375343613 -0.861287112941192
outer loop
vertex -98.3058566611754 120.51647447879 4.51194637207664e-14
vertex -97.9199671333394 129.784889802364 4.75379653806779
vertex -97.9199671333394 120.856579297423 3.94795307556706e-14
endloop
endfacet
facet normal -1.0 7.92019867393282e-16 4.0886109092467e-14
outer loop
vertex -73.5199671333387 81.310945745328 1.24848263534653
vertex -73.5199671333387 80.9085411884273 0.978589626355525
vertex -73.5199671333387 80.3425334274228 1.54395253147285
endloop
endfacet
facet normal -0.707106781186558 0.332322330417191 -0.624148915488982
outer loop
vertex -65.18859628344 129.90439018542 4.52935770968255
vertex -64.9343264872834 122.102690179121 3.94795307556706e-14
vertex -65.18859628344 121.397607933349 2.25597318603832e-14
endloop
endfacet
facet normal -0.819509497331168 0.269326361005419 -0.505833465729182
outer loop
vertex -64.9343264872834 122.102690179121 3.94795307556706e-14
vertex -65.18859628344 129.90439018542 4.52935770968255
vertex -64.9343264872834 130.060126116684 4.23686333388016
endloop
endfacet
facet normal 0.0928204576485463 -0.591171807345069 0.801186780246828
outer loop
vertex -62.5199671333385 117.464802903638 27.8926836147097
vertex -67.8587430195781 109.694086766452 22.7774211276285
vertex -71.5199671333387 80.3425334274229 1.54395253147289
endloop
endfacet
facet normal 0.56865496925116 -0.0332060993820851 0.821905639906303
outer loop
vertex -91.5199671333393 81.3222392382254 0.565362905117386
vertex -92.1199671333393 130.731103306687 2.97667210648742
vertex -96.0964173321212 129.297098710012 5.66993804711034
endloop
endfacet
facet normal 0.984938323419494 -0.0812614728930272 0.152620680390477
outer loop
vertex -67.865448455401 124.686042754011 4.51194637207664e-14
vertex -67.9199671333385 130.436105914088 3.53071944490016
vertex -67.9199671333385 123.804909299452 3.66595642731227e-14
endloop
endfacet
facet normal 1.0 -1.08626429627939e-14 1.8891552978772e-14
outer loop
vertex -67.9199671333385 130.436105914088 3.53071944490016
vertex -67.865448455401 124.686042754011 4.51194637207664e-14
vertex -67.865448455401 130.630727378372 3.1651924707986
endloop
endfacet
facet normal -6.0295177459366e-16 -0.586127578716032 0.810218773831168
outer loop
vertex -93.5199671333393 80.3425334274229 1.54395253147288
vertex -67.8587430195781 109.694086766452 22.7774211276285
vertex -97.1811912470999 109.694086766452 22.7774211276285
endloop
endfacet
facet normal -6.0295177459366e-16 -0.586127578716032 0.810218773831168
outer loop
vertex -67.8587430195781 109.694086766452 22.7774211276285
vertex -93.5199671333393 80.3425334274229 1.54395253147288
vertex -91.5199671333393 80.3425334274229 1.54395253147285
endloop
endfacet
facet normal -6.0295177459366e-16 -0.586127578716032 0.810218773831168
outer loop
vertex -67.8587430195781 109.694086766452 22.7774211276285
vertex -91.5199671333393 80.3425334274229 1.54395253147285
vertex -82.519967133339 80.3425334274229 1.54395253147289
endloop
endfacet
facet normal -6.0295177459366e-16 -0.586127578716032 0.810218773831168
outer loop
vertex -67.8587430195781 109.694086766452 22.7774211276285
vertex -82.519967133339 80.3425334274229 1.54395253147289
vertex -73.5199671333387 80.3425334274228 1.54395253147285
endloop
endfacet
facet normal -6.0295177459366e-16 -0.586127578716032 0.810218773831168
outer loop
vertex -67.8587430195781 109.694086766452 22.7774211276285
vertex -73.5199671333387 80.3425334274228 1.54395253147285
vertex -71.5199671333387 80.3425334274229 1.54395253147289
endloop
endfacet
facet normal -0.972727637464277 0.163920121816621 0.164107089965029
outer loop
vertex -63.9741912685878 125.25196753741 13.2672735352812
vertex -73.5199671333387 81.3222392382253 0.565362905117391
vertex -73.5199671333387 80.9085411884273 0.978589626355525
endloop
endfacet
facet normal -0.548995406372514 -0.392816815092331 0.73776621877299
outer loop
vertex -65.5199671333385 126.753239301482 3.94795307556706e-14
vertex -65.9058566611745 131.16244310704 2.1665542060162
vertex -65.9058566611745 127.093344120115 3.38395977905748e-14
endloop
endfacet
facet normal -0.258819045102488 -0.453960745594736 0.852603274302478
outer loop
vertex -65.9058566611745 131.16244310704 2.1665542060162
vertex -65.5199671333385 126.753239301482 3.94795307556706e-14
vertex -65.5199671333385 131.087322025812 2.30764235173253
endloop
endfacet
facet normal 0.819509497331162 0.269326361005422 -0.50583346572919
outer loop
vertex -100.105607779395 122.102690179121 4.51194637207664e-14
vertex -99.8513379832379 129.90439018542 4.52935770968256
vertex -99.8513379832379 121.397607933349 2.8199664825479e-14
endloop
endfacet
facet normal 0.707106781186552 0.332322330417193 -0.624148915488988
outer loop
vertex -99.8513379832379 129.90439018542 4.52935770968256
vertex -100.105607779395 122.102690179121 4.51194637207664e-14
vertex -100.105607779395 130.060126116684 4.23686333388017
endloop
endfacet
facet normal 0.757214262747576 -0.306971790492087 0.576536972044054
outer loop
vertex -99.8513379832379 126.212210665556 3.38395977905748e-14
vertex -100.105607779395 130.812085711492 2.82457555592016
vertex -100.105607779395 125.507128419784 3.38395977905748e-14
endloop
endfacet
facet normal 0.866025403784424 -0.234987373377725 0.441339930612518
outer loop
vertex -100.105607779395 130.812085711492 2.82457555592016
vertex -99.8513379832379 126.212210665556 3.38395977905748e-14
vertex -99.8513379832379 130.967821642756 2.53208118011777
endloop
endfacet
facet normal 0.890173750515179 0.0629562959869739 0.451250704918385
outer loop
vertex -99.147654886001 127.428267534854 9.17987055673935
vertex -101.06574299809 125.25196753741 13.2672735352812
vertex -91.5199671333393 81.3222392382254 0.565362905117386
endloop
endfacet
facet normal -3.59206839893532e-14 0.469974746755427 -0.882679861224993
outer loop
vertex -98.7199671333394 129.684146319279 4.94300722286013
vertex -99.1340776055034 120.51647447879 4.51194637207664e-14
vertex -99.1340776055035 129.709768721136 4.89488468378413
endloop
endfacet
facet normal 0.218826140513686 0.458584375343617 -0.861287112941201
outer loop
vertex -99.1340776055034 120.51647447879 4.51194637207664e-14
vertex -98.7199671333394 129.684146319279 4.94300722286013
vertex -98.7199671333394 120.40047105879 5.6399329650958e-14
endloop
endfacet
facet normal -0.707106781186546 0.332322330417195 -0.624148915488993
outer loop
vertex -97.5885962834409 129.90439018542 4.52935770968255
vertex -97.9199671333394 120.856579297423 3.94795307556706e-14
vertex -97.9199671333394 129.784889802364 4.75379653806779
endloop
endfacet
facet normal -0.441266468870335 0.421744115449559 -0.792095830398302
outer loop
vertex -97.9199671333394 120.856579297423 3.94795307556706e-14
vertex -97.5885962834409 129.90439018542 4.52935770968255
vertex -97.5885962834409 121.397607933349 3.66595642731227e-14
endloop
endfacet
facet normal 0.984938323419483 -0.0812614728930559 0.152620680390531
outer loop
vertex -100.265448455402 124.686042754011 3.10196313080269e-14
vertex -100.319967133339 130.436105914088 3.53071944490016
vertex -100.319967133339 123.804909299452 5.07593966858622e-14
endloop
endfacet
facet normal 1.0 -6.10856583346604e-15 9.93588753364645e-15
outer loop
vertex -100.319967133339 130.436105914088 3.53071944490016
vertex -100.265448455402 124.686042754011 3.10196313080269e-14
vertex -100.265448455402 130.630727378372 3.1651924707986
endloop
endfacet
facet normal 0.258819045102484 0.453960745594736 -0.85260327430248
outer loop
vertex -99.1340776055035 129.709768721136 4.89488468378413
vertex -99.5199671333394 120.856579297423 3.94795307556706e-14
vertex -99.5199671333394 129.784889802364 4.7537965380678
endloop
endfacet
facet normal 0.441266468870331 0.421744115449559 -0.792095830398304
outer loop
vertex -99.5199671333394 120.856579297423 3.94795307556706e-14
vertex -99.1340776055035 129.709768721136 4.89488468378413
vertex -99.1340776055034 120.51647447879 4.51194637207664e-14
endloop
endfacet
facet normal 0.995943550826122 0.0422884404479673 -0.0794237456453353
outer loop
vertex -100.319967133339 123.804909299452 5.07593966858622e-14
vertex -100.265448455402 130.241484449804 3.89624641900174
vertex -100.265448455402 122.923775844894 4.22994972382185e-14
endloop
endfacet
facet normal 0.965925826289068 0.121638415177539 -0.22845435881348
outer loop
vertex -100.265448455402 130.241484449804 3.89624641900174
vertex -100.319967133339 123.804909299452 5.07593966858622e-14
vertex -100.319967133339 130.436105914088 3.53071944490016
endloop
endfacet
facet normal -0.997367861010813 0.069351419768071 -0.0211596408019766
outer loop
vertex -67.4269333566343 117.464802903638 27.8926836147097
vertex -67.8587430195781 108.738004317067 19.6438294045592
vertex -67.8587430195781 109.694086766452 22.7774211276285
endloop
endfacet
facet normal -0.115598444615449 -0.00276259913148269 0.993292186442906
outer loop
vertex -77.5506414673705 131.632556281421 1.28361435789145
vertex -82.5199671333387 131.940025103706 0.706143888979107
vertex -82.519967133339 81.3222392382253 0.565362905117386
endloop
endfacet
facet normal -0.339855057338723 0.0201450902738608 0.940262046101592
outer loop
vertex -72.9199671333387 130.731103306687 2.97667210648743
vertex -77.5506414673705 131.632556281421 1.28361435789145
vertex -82.519967133339 81.3222392382253 0.565362905117386
endloop
endfacet
facet normal -0.890173750515182 0.0629562959869761 0.45125070491838
outer loop
vertex -65.892279380677 127.428267534854 9.17987055673935
vertex -73.5199671333387 81.3222392382253 0.565362905117391
vertex -63.9741912685878 125.25196753741 13.2672735352812
endloop
endfacet
facet normal -0.980476695876628 -0.138962894293977 -0.139121396098127
outer loop
vertex -102.519967133339 117.464802903638 27.8926836147097
vertex -93.5199671333393 81.8882469992298 1.97397653778353e-14
vertex -93.5199671333393 80.3425334274229 1.54395253147288
endloop
endfacet
facet normal -4.92339976340377e-15 -0.291826585071766 -0.956471245906196
outer loop
vertex -82.519967133339 81.3109457453281 1.24848263534657
vertex -73.5199671333387 80.3425334274228 1.54395253147285
vertex -82.519967133339 80.3425334274229 1.54395253147289
endloop
endfacet
facet normal -4.92339976340377e-15 -0.291826585071766 -0.956471245906196
outer loop
vertex -73.5199671333387 80.3425334274228 1.54395253147285
vertex -82.519967133339 81.3109457453281 1.24848263534657
vertex -73.5199671333387 81.310945745328 1.24848263534653
endloop
endfacet
facet normal -0.866025403784427 0.234987373377724 -0.441339930612514
outer loop
vertex -97.3343264872843 130.060126116684 4.23686333388017
vertex -97.1744858112769 122.923775844894 4.51194637207664e-14
vertex -97.3343264872843 122.102690179121 3.38395977905748e-14
endloop
endfacet
facet normal -0.938855008317683 0.161818299904796 -0.303917934931001
outer loop
vertex -97.1744858112769 122.923775844894 4.51194637207664e-14
vertex -97.3343264872843 130.060126116684 4.23686333388017
vertex -97.1744858112769 130.241484449804 3.89624641900174
endloop
endfacet
facet normal -0.866025403784431 -0.23498737337772 0.441339930612507
outer loop
vertex -97.3343264872843 130.812085711492 2.82457555592016
vertex -97.5885962834409 126.212210665556 5.07593966858622e-14
vertex -97.3343264872843 125.507128419784 4.51194637207664e-14
endloop
endfacet
facet normal -0.757214262747585 -0.306971790492085 0.576536972044044
outer loop
vertex -97.5885962834409 126.212210665556 5.07593966858622e-14
vertex -97.3343264872843 130.812085711492 2.82457555592016
vertex -97.5885962834409 130.967821642756 2.53208118011777
endloop
endfacet
facet normal 0.115598444615437 -0.00276259913148424 0.993292186442907
outer loop
vertex -82.5199671333387 131.940025103706 0.706143888979107
vertex -87.4892927993074 131.632556281421 1.28361435789145
vertex -82.519967133339 81.3222392382253 0.565362905117386
endloop
endfacet
facet normal 0.778430183347908 0.451118370381147 -0.436507348801369
outer loop
vertex -99.147654886001 118.404752397149 26.1273238922605
vertex -97.6130009100436 117.464802903638 27.8926836147097
vertex -97.1811912470999 108.738004317067 19.6438294045592
endloop
endfacet
facet normal -0.965925826289079 0.12163841517752 -0.228454358813441
outer loop
vertex -97.1744858112769 130.241484449804 3.89624641900174
vertex -97.1199671333394 123.804909299452 3.66595642731227e-14
vertex -97.1744858112769 122.923775844894 4.51194637207664e-14
endloop
endfacet
facet normal -0.995943550826127 0.0422884404479423 -0.0794237456452854
outer loop
vertex -97.1199671333394 123.804909299452 3.66595642731227e-14
vertex -97.1744858112769 130.241484449804 3.89624641900174
vertex -97.1199671333394 130.436105914088 3.53071944490016
endloop
endfacet
facet normal -0.548995406372498 -0.392816815092338 0.737766218772999
outer loop
vertex -97.9199671333394 126.753239301482 3.94795307556706e-14
vertex -98.3058566611754 131.16244310704 2.1665542060162
vertex -98.3058566611754 127.093344120115 3.66595642731227e-14
endloop
endfacet
facet normal -0.258819045102467 -0.453960745594738 0.852603274302484
outer loop
vertex -98.3058566611754 131.16244310704 2.1665542060162
vertex -97.9199671333394 126.753239301482 3.94795307556706e-14
vertex -97.9199671333394 131.087322025812 2.30764235173254
endloop
endfacet
facet normal -4.99395227416208e-17 4.44089209850063e-16 -1.0
outer loop
vertex -102.519967133339 132.31600490111 4.51194637207664e-14
vertex -100.265448455402 124.686042754011 3.10196313080269e-14
vertex -100.319967133339 123.804909299452 5.07593966858622e-14
endloop
endfacet
facet normal -4.99395227416208e-17 4.44089209850063e-16 -1.0
outer loop
vertex -100.265448455402 124.686042754011 3.10196313080269e-14
vertex -102.519967133339 132.31600490111 4.51194637207664e-14
vertex -100.105607779395 125.507128419784 3.38395977905748e-14
endloop
endfacet
facet normal -4.99395227416208e-17 4.44089209850063e-16 -1.0
outer loop
vertex -100.105607779395 125.507128419784 3.38395977905748e-14
vertex -102.519967133339 132.31600490111 4.51194637207664e-14
vertex -99.8513379832379 126.212210665556 3.38395977905748e-14
endloop
endfacet
facet normal -4.99395227416208e-17 4.44089209850063e-16 -1.0
outer loop
vertex -99.8513379832379 126.212210665556 3.38395977905748e-14
vertex -102.519967133339 132.31600490111 4.51194637207664e-14
vertex -99.5199671333394 126.753239301482 4.51194637207664e-14
endloop
endfacet
facet normal -4.99395227416208e-17 4.44089209850063e-16 -1.0
outer loop
vertex -99.5199671333394 126.753239301482 4.51194637207664e-14
vertex -102.519967133339 132.31600490111 4.51194637207664e-14
vertex -99.1340776055035 127.093344120115 4.22994972382185e-14
endloop
endfacet
facet normal -4.99395227416208e-17 4.44089209850063e-16 -1.0
outer loop
vertex -99.1340776055035 127.093344120115 4.22994972382185e-14
vertex -102.519967133339 132.31600490111 4.51194637207664e-14
vertex -98.7199671333395 127.209347540115 4.51194637207664e-14
endloop
endfacet
facet normal -4.99395227416208e-17 4.44089209850063e-16 -1.0
outer loop
vertex -98.7199671333395 127.209347540115 4.51194637207664e-14
vertex -102.519967133339 132.31600490111 4.51194637207664e-14
vertex -62.5199671333384 132.31600490111 3.94795307556706e-14
endloop
endfacet
facet normal -4.99395227416208e-17 4.44089209850063e-16 -1.0
outer loop
vertex -98.7199671333395 127.209347540115 4.51194637207664e-14
vertex -62.5199671333384 132.31600490111 3.94795307556706e-14
vertex -98.3058566611754 127.093344120115 3.66595642731227e-14
endloop
endfacet
facet normal -4.99395227416208e-17 4.44089209850063e-16 -1.0
outer loop
vertex -98.3058566611754 127.093344120115 3.66595642731227e-14
vertex -62.5199671333384 132.31600490111 3.94795307556706e-14
vertex -97.9199671333394 126.753239301482 3.94795307556706e-14
endloop
endfacet
facet normal -4.99395227416208e-17 4.44089209850063e-16 -1.0
outer loop
vertex -97.9199671333394 126.753239301482 3.94795307556706e-14
vertex -62.5199671333384 132.31600490111 3.94795307556706e-14
vertex -97.5885962834409 126.212210665556 5.07593966858622e-14
endloop
endfacet
facet normal -4.99395227416208e-17 4.44089209850063e-16 -1.0
outer loop
vertex -97.5885962834409 126.212210665556 5.07593966858622e-14
vertex -62.5199671333384 132.31600490111 3.94795307556706e-14
vertex -97.3343264872843 125.507128419784 4.51194637207664e-14
endloop
endfacet
facet normal -4.99395227416208e-17 4.44089209850063e-16 -1.0
outer loop
vertex -97.3343264872843 125.507128419784 4.51194637207664e-14
vertex -62.5199671333384 132.31600490111 3.94795307556706e-14
vertex -97.1744858112769 124.686042754011 4.51194637207664e-14
endloop
endfacet
facet normal -4.99395227416208e-17 4.44089209850063e-16 -1.0
outer loop
vertex -97.1744858112769 124.686042754011 4.51194637207664e-14
vertex -62.5199671333384 132.31600490111 3.94795307556706e-14
vertex -97.1199671333394 123.804909299452 3.66595642731227e-14
endloop
endfacet
facet normal -4.99395227416208e-17 4.44089209850063e-16 -1.0
outer loop
vertex -97.1199671333394 123.804909299452 3.66595642731227e-14
vertex -62.5199671333384 132.31600490111 3.94795307556706e-14
vertex -67.1199671333385 126.753239301482 3.94795307556706e-14
endloop
endfacet
facet normal -4.99395227416208e-17 4.44089209850063e-16 -1.0
outer loop
vertex -97.1199671333394 123.804909299452 3.66595642731227e-14
vertex -67.1199671333385 126.753239301482 3.94795307556706e-14
vertex -67.451337983237 126.212210665556 4.51194637207664e-14
endloop
endfacet
facet normal -4.99395227416208e-17 4.44089209850063e-16 -1.0
outer loop
vertex -97.1199671333394 123.804909299452 3.66595642731227e-14
vertex -67.451337983237 126.212210665556 4.51194637207664e-14
vertex -93.5199671333393 81.8882469992298 1.97397653778353e-14
endloop
endfacet
facet normal -4.99395227416208e-17 4.44089209850063e-16 -1.0
outer loop
vertex -93.5199671333393 81.8882469992298 1.97397653778353e-14
vertex -67.451337983237 126.212210665556 4.51194637207664e-14
vertex -67.7056077793936 125.507128419784 3.94795307556706e-14
endloop
endfacet
facet normal -4.99395227416208e-17 4.44089209850063e-16 -1.0
outer loop
vertex -93.5199671333393 81.8882469992298 1.97397653778353e-14
vertex -67.7056077793936 125.507128419784 3.94795307556706e-14
vertex -82.519967133339 81.8882469992298 1.40998324127395e-14
endloop
endfacet
facet normal -4.99395227416208e-17 4.44089209850063e-16 -1.0
outer loop
vertex -82.519967133339 81.8882469992298 1.40998324127395e-14
vertex -67.7056077793936 125.507128419784 3.94795307556706e-14
vertex -67.865448455401 124.686042754011 4.51194637207664e-14
endloop
endfacet
facet normal -4.99395227416208e-17 4.44089209850063e-16 -1.0
outer loop
vertex -82.519967133339 81.8882469992298 1.40998324127395e-14
vertex -67.865448455401 124.686042754011 4.51194637207664e-14
vertex -71.5199671333387 81.8882469992297 2.53796983429311e-14
endloop
endfacet
facet normal -4.99395227416208e-17 4.44089209850063e-16 -1.0
outer loop
vertex -71.5199671333387 81.8882469992297 2.53796983429311e-14
vertex -67.865448455401 124.686042754011 4.51194637207664e-14
vertex -67.9199671333385 123.804909299452 3.66595642731227e-14
endloop
endfacet
facet normal -4.99395227416208e-17 4.44089209850063e-16 -1.0
outer loop
vertex -67.1199671333385 126.753239301482 3.94795307556706e-14
vertex -62.5199671333384 132.31600490111 3.94795307556706e-14
vertex -66.7340776055025 127.093344120115 3.66595642731227e-14
endloop
endfacet
facet normal -4.99395227416208e-17 4.44089209850063e-16 -1.0
outer loop
vertex -66.7340776055025 127.093344120115 3.66595642731227e-14
vertex -62.5199671333384 132.31600490111 3.94795307556706e-14
vertex -66.3199671333385 127.209347540115 3.94795307556706e-14
endloop
endfacet
facet normal -4.99395227416208e-17 4.44089209850063e-16 -1.0
outer loop
vertex -66.3199671333385 127.209347540115 3.94795307556706e-14
vertex -62.5199671333384 132.31600490111 3.94795307556706e-14
vertex -65.9058566611745 127.093344120115 3.38395977905748e-14
endloop
endfacet
facet normal -4.99395227416208e-17 4.44089209850063e-16 -1.0
outer loop
vertex -65.9058566611745 127.093344120115 3.38395977905748e-14
vertex -62.5199671333384 132.31600490111 3.94795307556706e-14
vertex -65.5199671333385 126.753239301482 3.94795307556706e-14
endloop
endfacet
facet normal -4.99395227416208e-17 4.44089209850063e-16 -1.0
outer loop
vertex -65.5199671333385 126.753239301482 3.94795307556706e-14
vertex -62.5199671333384 132.31600490111 3.94795307556706e-14
vertex -65.18859628344 126.212210665556 2.8199664825479e-14
endloop
endfacet
facet normal -4.99395227416208e-17 4.44089209850063e-16 -1.0
outer loop
vertex -65.18859628344 126.212210665556 2.8199664825479e-14
vertex -62.5199671333384 132.31600490111 3.94795307556706e-14
vertex -64.9343264872834 125.507128419784 2.8199664825479e-14
endloop
endfacet
facet normal -4.99395227416208e-17 4.44089209850063e-16 -1.0
outer loop
vertex -64.9343264872834 125.507128419784 2.8199664825479e-14
vertex -62.5199671333384 132.31600490111 3.94795307556706e-14
vertex -64.774485811276 124.686042754011 2.25597318603832e-14
endloop
endfacet
facet normal -4.99395227416208e-17 4.44089209850063e-16 -1.0
outer loop
vertex -64.774485811276 124.686042754011 2.25597318603832e-14
vertex -62.5199671333384 132.31600490111 3.94795307556706e-14
vertex -64.7199671333385 123.804909299452 4.51194637207664e-14
endloop
endfacet
facet normal -4.99395227416208e-17 4.44089209850063e-16 -1.0
outer loop
vertex -71.5199671333387 81.8882469992297 2.53796983429311e-14
vertex -64.9343264872834 122.102690179121 3.94795307556706e-14
vertex -62.5199671333384 132.31600490111 3.94795307556706e-14
endloop
endfacet
facet normal -4.99395227416208e-17 4.44089209850063e-16 -1.0
outer loop
vertex -64.9343264872834 122.102690179121 3.94795307556706e-14
vertex -71.5199671333387 81.8882469992297 2.53796983429311e-14
vertex -65.18859628344 121.397607933349 2.25597318603832e-14
endloop
endfacet
facet normal -4.99395227416208e-17 4.44089209850063e-16 -1.0
outer loop
vertex -65.18859628344 121.397607933349 2.25597318603832e-14
vertex -71.5199671333387 81.8882469992297 2.53796983429311e-14
vertex -65.5199671333385 120.856579297423 3.38395977905748e-14
endloop
endfacet
facet normal -4.99395227416208e-17 4.44089209850063e-16 -1.0
outer loop
vertex -65.5199671333385 120.856579297423 3.38395977905748e-14
vertex -71.5199671333387 81.8882469992297 2.53796983429311e-14
vertex -65.9058566611745 120.51647447879 3.94795307556706e-14
endloop
endfacet
facet normal -4.99395227416208e-17 4.44089209850063e-16 -1.0
outer loop
vertex -65.9058566611745 120.51647447879 3.94795307556706e-14
vertex -71.5199671333387 81.8882469992297 2.53796983429311e-14
vertex -66.3199671333386 120.40047105879 4.79394302033143e-14
endloop
endfacet
facet normal -4.99395227416208e-17 4.44089209850063e-16 -1.0
outer loop
vertex -66.3199671333386 120.40047105879 4.79394302033143e-14
vertex -71.5199671333387 81.8882469992297 2.53796983429311e-14
vertex -66.7340776055025 120.51647447879 4.51194637207664e-14
endloop
endfacet
facet normal -4.99395227416208e-17 4.44089209850063e-16 -1.0
outer loop
vertex -66.7340776055025 120.51647447879 4.51194637207664e-14
vertex -71.5199671333387 81.8882469992297 2.53796983429311e-14
vertex -67.1199671333386 120.856579297423 3.94795307556706e-14
endloop
endfacet
facet normal -4.99395227416208e-17 4.44089209850063e-16 -1.0
outer loop
vertex -67.1199671333386 120.856579297423 3.94795307556706e-14
vertex -71.5199671333387 81.8882469992297 2.53796983429311e-14
vertex -67.451337983237 121.397607933349 3.10196313080269e-14
endloop
endfacet
facet normal -4.99395227416208e-17 4.44089209850063e-16 -1.0
outer loop
vertex -67.451337983237 121.397607933349 3.10196313080269e-14
vertex -71.5199671333387 81.8882469992297 2.53796983429311e-14
vertex -67.7056077793937 122.102690179121 3.38395977905748e-14
endloop
endfacet
facet normal -4.99395227416208e-17 4.44089209850063e-16 -1.0
outer loop
vertex -67.7056077793937 122.102690179121 3.38395977905748e-14
vertex -71.5199671333387 81.8882469992297 2.53796983429311e-14
vertex -67.8654484554011 122.923775844894 3.94795307556706e-14
endloop
endfacet
facet normal -4.99395227416208e-17 4.44089209850063e-16 -1.0
outer loop
vertex -67.8654484554011 122.923775844894 3.94795307556706e-14
vertex -71.5199671333387 81.8882469992297 2.53796983429311e-14
vertex -67.9199671333385 123.804909299452 3.66595642731227e-14
endloop
endfacet
facet normal -4.99395227416208e-17 4.44089209850063e-16 -1.0
outer loop
vertex -62.5199671333384 132.31600490111 3.94795307556706e-14
vertex -64.9343264872834 122.102690179121 3.94795307556706e-14
vertex -64.774485811276 122.923775844894 3.66595642731227e-14
endloop
endfacet
facet normal -4.99395227416208e-17 4.44089209850063e-16 -1.0
outer loop
vertex -62.5199671333384 132.31600490111 3.94795307556706e-14
vertex -64.774485811276 122.923775844894 3.66595642731227e-14
vertex -64.7199671333385 123.804909299452 4.51194637207664e-14
endloop
endfacet
facet normal -4.99395227416208e-17 4.44089209850063e-16 -1.0
outer loop
vertex -102.519967133339 132.31600490111 4.51194637207664e-14
vertex -100.265448455402 122.923775844894 4.22994972382185e-14
vertex -93.5199671333393 81.8882469992298 1.97397653778353e-14
endloop
endfacet
facet normal -4.99395227416208e-17 4.44089209850063e-16 -1.0
outer loop
vertex -100.265448455402 122.923775844894 4.22994972382185e-14
vertex -102.519967133339 132.31600490111 4.51194637207664e-14
vertex -100.319967133339 123.804909299452 5.07593966858622e-14
endloop
endfacet
facet normal -4.99395227416208e-17 4.44089209850063e-16 -1.0
outer loop
vertex -93.5199671333393 81.8882469992298 1.97397653778353e-14
vertex -100.265448455402 122.923775844894 4.22994972382185e-14
vertex -100.105607779395 122.102690179121 4.51194637207664e-14
endloop
endfacet
facet normal -4.99395227416208e-17 4.44089209850063e-16 -1.0
outer loop
vertex -93.5199671333393 81.8882469992298 1.97397653778353e-14
vertex -100.105607779395 122.102690179121 4.51194637207664e-14
vertex -99.8513379832379 121.397607933349 2.8199664825479e-14
endloop
endfacet
facet normal -4.99395227416208e-17 4.44089209850063e-16 -1.0
outer loop
vertex -93.5199671333393 81.8882469992298 1.97397653778353e-14
vertex -99.8513379832379 121.397607933349 2.8199664825479e-14
vertex -99.5199671333394 120.856579297423 3.94795307556706e-14
endloop
endfacet
facet normal -4.99395227416208e-17 4.44089209850063e-16 -1.0
outer loop
vertex -93.5199671333393 81.8882469992298 1.97397653778353e-14
vertex -99.5199671333394 120.856579297423 3.94795307556706e-14
vertex -99.1340776055034 120.51647447879 4.51194637207664e-14
endloop
endfacet
facet normal -4.99395227416208e-17 4.44089209850063e-16 -1.0
outer loop
vertex -93.5199671333393 81.8882469992298 1.97397653778353e-14
vertex -99.1340776055034 120.51647447879 4.51194637207664e-14
vertex -98.7199671333394 120.40047105879 5.6399329650958e-14
endloop
endfacet
facet normal -4.99395227416208e-17 4.44089209850063e-16 -1.0
outer loop
vertex -93.5199671333393 81.8882469992298 1.97397653778353e-14
vertex -98.7199671333394 120.40047105879 5.6399329650958e-14
vertex -98.3058566611754 120.51647447879 4.51194637207664e-14
endloop
endfacet
facet normal -4.99395227416208e-17 4.44089209850063e-16 -1.0
outer loop
vertex -93.5199671333393 81.8882469992298 1.97397653778353e-14
vertex -98.3058566611754 120.51647447879 4.51194637207664e-14
vertex -97.9199671333394 120.856579297423 3.94795307556706e-14
endloop
endfacet
facet normal -4.99395227416208e-17 4.44089209850063e-16 -1.0
outer loop
vertex -93.5199671333393 81.8882469992298 1.97397653778353e-14
vertex -97.9199671333394 120.856579297423 3.94795307556706e-14
vertex -97.5885962834409 121.397607933349 3.66595642731227e-14
endloop
endfacet
facet normal -4.99395227416208e-17 4.44089209850063e-16 -1.0
outer loop
vertex -93.5199671333393 81.8882469992298 1.97397653778353e-14
vertex -97.5885962834409 121.397607933349 3.66595642731227e-14
vertex -97.3343264872843 122.102690179121 3.38395977905748e-14
endloop
endfacet
facet normal -4.99395227416208e-17 4.44089209850063e-16 -1.0
outer loop
vertex -93.5199671333393 81.8882469992298 1.97397653778353e-14
vertex -97.3343264872843 122.102690179121 3.38395977905748e-14
vertex -97.1744858112769 122.923775844894 4.51194637207664e-14
endloop
endfacet
facet normal -4.99395227416208e-17 4.44089209850063e-16 -1.0
outer loop
vertex -93.5199671333393 81.8882469992298 1.97397653778353e-14
vertex -97.1744858112769 122.923775844894 4.51194637207664e-14
vertex -97.1199671333394 123.804909299452 3.66595642731227e-14
endloop
endfacet
facet normal -0.500000000000037 0.407010069827351 -0.764423183229746
outer loop
vertex -65.5199671333385 129.784889802364 4.75379653806779
vertex -65.18859628344 121.397607933349 2.25597318603832e-14
vertex -65.5199671333385 120.856579297423 3.38395977905748e-14
endloop
endfacet
facet normal -0.648454371398039 0.357769932285868 -0.671943155160419
outer loop
vertex -65.18859628344 121.397607933349 2.25597318603832e-14
vertex -65.5199671333385 129.784889802364 4.75379653806779
vertex -65.18859628344 129.90439018542 4.52935770968255
endloop
endfacet
facet normal 0.707106781186552 0.332322330417192 -0.624148915488989
outer loop
vertex -67.451337983237 129.90439018542 4.52935770968255
vertex -67.1199671333386 120.856579297423 3.94795307556706e-14
vertex -67.451337983237 121.397607933349 3.10196313080269e-14
endloop
endfacet
facet normal 0.441266468870328 0.42174411544956 -0.792095830398305
outer loop
vertex -67.1199671333386 120.856579297423 3.94795307556706e-14
vertex -67.451337983237 129.90439018542 4.52935770968255
vertex -67.1199671333385 129.784889802364 4.75379653806779
endloop
endfacet
facet normal -0.866025403784433 0.23498737337772 -0.441339930612504
outer loop
vertex -64.9343264872834 130.060126116684 4.23686333388016
vertex -64.774485811276 122.923775844894 3.66595642731227e-14
vertex -64.9343264872834 122.102690179121 3.94795307556706e-14
endloop
endfacet
facet normal -0.938855008317678 0.161818299904804 -0.303917934931013
outer loop
vertex -64.774485811276 122.923775844894 3.66595642731227e-14
vertex -64.9343264872834 130.060126116684 4.23686333388016
vertex -64.774485811276 130.241484449804 3.89624641900173
endloop
endfacet
facet normal 0.995943550826127 0.0422884404479377 -0.0794237456452804
outer loop
vertex -67.9199671333385 123.804909299452 3.66595642731227e-14
vertex -67.865448455401 130.241484449804 3.89624641900174
vertex -67.8654484554011 122.923775844894 3.94795307556706e-14
endloop
endfacet
facet normal 0.96592582628908 0.121638415177516 -0.228454358813438
outer loop
vertex -67.865448455401 130.241484449804 3.89624641900174
vertex -67.9199671333385 123.804909299452 3.66595642731227e-14
vertex -67.9199671333385 130.436105914088 3.53071944490016
endloop
endfacet
facet normal -0.965925826289065 -0.121638415177544 0.228454358813489
outer loop
vertex -64.774485811276 130.630727378372 3.16519247079859
vertex -64.9343264872834 125.507128419784 2.8199664825479e-14
vertex -64.774485811276 124.686042754011 2.25597318603832e-14
endloop
endfacet
facet normal -0.904485740120349 -0.200446045425133 0.376466371396396
outer loop
vertex -64.9343264872834 125.507128419784 2.8199664825479e-14
vertex -64.774485811276 130.630727378372 3.16519247079859
vertex -64.9343264872834 130.812085711492 2.82457555592016
endloop
endfacet
facet normal -0.965925826289068 0.121638415177541 -0.22845435881348
outer loop
vertex -64.774485811276 130.241484449804 3.89624641900173
vertex -64.7199671333385 123.804909299452 4.51194637207664e-14
vertex -64.774485811276 122.923775844894 3.66595642731227e-14
endloop
endfacet
facet normal -0.995943550826122 0.0422884404479688 -0.0794237456453357
outer loop
vertex -64.7199671333385 123.804909299452 4.51194637207664e-14
vertex -64.774485811276 130.241484449804 3.89624641900173
vertex -64.7199671333385 130.436105914088 3.53071944490016
endloop
endfacet
facet normal 0.500000000000028 0.407010069827352 -0.764423183229752
outer loop
vertex -67.1199671333385 129.784889802364 4.75379653806779
vertex -66.7340776055025 120.51647447879 4.51194637207664e-14
vertex -67.1199671333386 120.856579297423 3.94795307556706e-14
endloop
endfacet
facet normal 0.218826140513729 0.458584375343613 -0.861287112941192
outer loop
vertex -66.7340776055025 120.51647447879 4.51194637207664e-14
vertex -67.1199671333385 129.784889802364 4.75379653806779
vertex -66.7340776055025 129.709768721136 4.89488468378413
endloop
endfacet
facet normal 0.938855008317684 0.161818299904794 -0.303917934931
outer loop
vertex -67.8654484554011 122.923775844894 3.94795307556706e-14
vertex -67.7056077793936 130.060126116684 4.23686333388017
vertex -67.7056077793937 122.102690179121 3.38395977905748e-14
endloop
endfacet
facet normal 0.866025403784435 0.234987373377716 -0.441339930612502
outer loop
vertex -67.7056077793936 130.060126116684 4.23686333388017
vertex -67.8654484554011 122.923775844894 3.94795307556706e-14
vertex -67.865448455401 130.241484449804 3.89624641900174
endloop
endfacet
facet normal -8.19974099291099e-15 -0.469974746755428 0.882679861224992
outer loop
vertex -66.3199671333385 127.209347540115 3.94795307556706e-14
vertex -66.7340776055025 131.16244310704 2.1665542060162
vertex -66.7340776055025 127.093344120115 3.66595642731227e-14
endloop
endfacet
facet normal 0.258819045102468 -0.453960745594738 0.852603274302484
outer loop
vertex -66.7340776055025 131.16244310704 2.1665542060162
vertex -66.3199671333385 127.209347540115 3.94795307556706e-14
vertex -66.3199671333385 131.188065508897 2.1184316669402
endloop
endfacet
facet normal 0.757214262747581 -0.306971790492088 0.576536972044047
outer loop
vertex -67.451337983237 126.212210665556 4.51194637207664e-14
vertex -67.7056077793936 130.812085711492 2.82457555592016
vertex -67.7056077793936 125.507128419784 3.94795307556706e-14
endloop
endfacet
facet normal 0.866025403784433 -0.234987373377719 0.441339930612504
outer loop
vertex -67.7056077793936 130.812085711492 2.82457555592016
vertex -67.451337983237 126.212210665556 4.51194637207664e-14
vertex -67.451337983237 130.967821642755 2.53208118011777
endloop
endfacet
facet normal 2.26217068263388e-16 0.557017444408214 -0.830500792669665
outer loop
vertex -67.8587430195781 108.738004317067 19.6438294045592
vertex -91.5199671333393 81.3109457453281 1.24848263534653
vertex -97.1811912470999 108.738004317067 19.6438294045592
endloop
endfacet
facet normal 2.26217068263388e-16 0.557017444408214 -0.830500792669665
outer loop
vertex -91.5199671333393 81.3109457453281 1.24848263534653
vertex -67.8587430195781 108.738004317067 19.6438294045592
vertex -82.519967133339 81.3109457453281 1.24848263534657
endloop
endfacet
facet normal 2.26217068263388e-16 0.557017444408214 -0.830500792669665
outer loop
vertex -82.519967133339 81.3109457453281 1.24848263534657
vertex -67.8587430195781 108.738004317067 19.6438294045592
vertex -73.5199671333387 81.310945745328 1.24848263534653
endloop
endfacet
facet normal 2.26217068263388e-16 0.557017444408214 -0.830500792669665
outer loop
vertex -67.8587430195781 108.738004317067 19.6438294045592
vertex -73.5199671333387 80.9085411884273 0.978589626355525
vertex -73.5199671333387 81.310945745328 1.24848263534653
endloop
endfacet
facet normal 2.26217068263388e-16 0.557017444408214 -0.830500792669665
outer loop
vertex -91.5199671333393 80.9085411884273 0.97858962635552
vertex -97.1811912470999 108.738004317067 19.6438294045592
vertex -91.5199671333393 81.3109457453281 1.24848263534653
endloop
endfacet
facet normal 0.289828508295624 -0.449802770008649 0.844794000849722
outer loop
vertex -66.7340776055025 127.093344120115 3.66595642731227e-14
vertex -67.1199671333385 131.087322025812 2.30764235173254
vertex -67.1199671333385 126.753239301482 3.94795307556706e-14
endloop
endfacet
facet normal 0.499999999999998 -0.407010069827359 0.764423183229768
outer loop
vertex -67.1199671333385 131.087322025812 2.30764235173254
vertex -66.7340776055025 127.093344120115 3.66595642731227e-14
vertex -66.7340776055025 131.16244310704 2.1665542060162
endloop
endfacet
facet normal -1.50028520995661e-16 -0.0487451553276552 0.9988112483508
outer loop
vertex -82.519967133339 81.3222392382253 0.565362905117386
vertex -92.1199671333393 130.731103306687 2.97667210648742
vertex -91.5199671333393 81.3222392382254 0.565362905117386
endloop
endfacet
facet normal -0.970174295122486 0.241885561991971 -0.0159126359669022
outer loop
vertex -63.319967133338 122.916509966001 17.6535972244997
vertex -73.5199671333387 80.9085411884273 0.978589626355525
vertex -63.9741912685879 120.581052394592 22.0399209137187
endloop
endfacet
facet normal -0.0928204576485467 -0.591171807345067 0.801186780246829
outer loop
vertex -93.5199671333393 80.3425334274229 1.54395253147288
vertex -97.1811912470999 109.694086766452 22.7774211276285
vertex -102.519967133339 117.464802903638 27.8926836147097
endloop
endfacet
facet normal 0.997367861010813 0.069351419768069 -0.0211596408019775
outer loop
vertex -97.6130009100436 117.464802903638 27.8926836147097
vertex -97.1811912470999 109.694086766452 22.7774211276285
vertex -97.1811912470999 108.738004317067 19.6438294045592
endloop
endfacet
facet normal -0.980164820018892 -0.174933087394737 -0.0931415081039549
outer loop
vertex -102.519967133339 132.31600490111 4.51194637207664e-14
vertex -93.5199671333393 81.8882469992298 1.97397653778353e-14
vertex -102.519967133339 117.464802903638 27.8926836147097
endloop
endfacet
facet normal 0.500000000000034 0.407010069827351 -0.764423183229748
outer loop
vertex -99.5199671333394 129.784889802364 4.7537965380678
vertex -99.8513379832379 121.397607933349 2.8199664825479e-14
vertex -99.8513379832379 129.90439018542 4.52935770968256
endloop
endfacet
facet normal 0.648454371398035 0.357769932285868 -0.671943155160423
outer loop
vertex -99.8513379832379 121.397607933349 2.8199664825479e-14
vertex -99.5199671333394 129.784889802364 4.7537965380678
vertex -99.5199671333394 120.856579297423 3.94795307556706e-14
endloop
endfacet
facet normal -0.707106781186546 0.332322330417195 -0.624148915488993
outer loop
vertex -97.5885962834409 129.90439018542 4.52935770968255
vertex -97.3343264872843 122.102690179121 3.38395977905748e-14
vertex -97.5885962834409 121.397607933349 3.66595642731227e-14
endloop
endfacet
facet normal -0.819509497331155 0.269326361005426 -0.505833465729199
outer loop
vertex -97.3343264872843 122.102690179121 3.38395977905748e-14
vertex -97.5885962834409 129.90439018542 4.52935770968255
vertex -97.3343264872843 130.060126116684 4.23686333388017
endloop
endfacet
facet normal 1.04718652642741e-14 -0.469974746755428 0.882679861224992
outer loop
vertex -98.7199671333395 127.209347540115 4.51194637207664e-14
vertex -99.1340776055035 131.16244310704 2.1665542060162
vertex -99.1340776055035 127.093344120115 4.22994972382185e-14
endloop
endfacet
facet normal 0.258819045102486 -0.453960745594737 0.852603274302479
outer loop
vertex -99.1340776055035 131.16244310704 2.1665542060162
vertex -98.7199671333395 127.209347540115 4.51194637207664e-14
vertex -98.7199671333395 131.188065508897 2.1184316669402
endloop
endfacet
facet normal 0.904485740120349 -0.200446045425134 0.376466371396398
outer loop
vertex -100.105607779395 125.507128419784 3.38395977905748e-14
vertex -100.265448455402 130.630727378372 3.1651924707986
vertex -100.265448455402 124.686042754011 3.10196313080269e-14
endloop
endfacet
facet normal 0.965925826289064 -0.121638415177547 0.228454358813493
outer loop
vertex -100.265448455402 130.630727378372 3.1651924707986
vertex -100.105607779395 125.507128419784 3.38395977905748e-14
vertex -100.105607779395 130.812085711492 2.82457555592016
endloop
endfacet
facet normal -0.289828508295621 -0.44980277000865 0.844794000849723
outer loop
vertex -98.3058566611754 127.093344120115 3.66595642731227e-14
vertex -98.7199671333395 131.188065508897 2.1184316669402
vertex -98.7199671333395 127.209347540115 4.51194637207664e-14
endloop
endfacet
facet normal 9.51706536855053e-15 -0.469974746755428 0.882679861224992
outer loop
vertex -98.7199671333395 131.188065508897 2.1184316669402
vertex -98.3058566611754 127.093344120115 3.66595642731227e-14
vertex -98.3058566611754 131.16244310704 2.1665542060162
endloop
endfacet
facet normal 0.938855008317678 0.161818299904804 -0.303917934931015
outer loop
vertex -100.265448455402 122.923775844894 4.22994972382185e-14
vertex -100.105607779395 130.060126116684 4.23686333388017
vertex -100.105607779395 122.102690179121 4.51194637207664e-14
endloop
endfacet
facet normal 0.866025403784429 0.234987373377722 -0.44133993061251
outer loop
vertex -100.105607779395 130.060126116684 4.23686333388017
vertex -100.265448455402 122.923775844894 4.22994972382185e-14
vertex -100.265448455402 130.241484449804 3.89624641900174
endloop
endfacet
facet normal 0.339855057338724 0.0201450902738602 0.940262046101591
outer loop
vertex -82.519967133339 81.3222392382253 0.565362905117386
vertex -87.4892927993074 131.632556281421 1.28361435789145
vertex -92.1199671333393 130.731103306687 2.97667210648742
endloop
endfacet
facet normal 4.47648851175558e-15 -0.291826585071766 -0.956471245906196
outer loop
vertex -91.5199671333393 81.3109457453281 1.24848263534653
vertex -82.519967133339 80.3425334274229 1.54395253147289
vertex -91.5199671333393 80.3425334274229 1.54395253147285
endloop
endfacet
facet normal 4.47648851175558e-15 -0.291826585071766 -0.956471245906196
outer loop
vertex -82.519967133339 80.3425334274229 1.54395253147289
vertex -91.5199671333393 81.3109457453281 1.24848263534653
vertex -82.519967133339 81.3109457453281 1.24848263534657
endloop
endfacet
facet normal 0.964124094465545 0.146133283423421 0.221607296691428
outer loop
vertex -101.06574299809 125.25196753741 13.2672735352812
vertex -101.71996713334 122.916509966001 17.6535972244997
vertex -91.5199671333393 80.9085411884273 0.97858962635552
endloop
endfacet
facet normal 1.0 -8.03918904215195e-15 1.17131037727232e-14
outer loop
vertex -91.5199671333393 81.3109457453281 1.24848263534653
vertex -91.5199671333393 80.3425334274229 1.54395253147285
vertex -91.5199671333393 80.9085411884273 0.97858962635552
endloop
endfacet
facet normal -3.46115625799224e-15 -0.549837732199943 0.835271493736751
outer loop
vertex -62.5199671333385 117.464802903638 27.8926836147097
vertex -67.4269333566343 117.464802903638 27.8926836147097
vertex -67.8587430195781 109.694086766452 22.7774211276285
endloop
endfacet
facet normal 0.980164820018891 -0.174933087394738 -0.0931415081039562
outer loop
vertex -62.5199671333384 132.31600490111 3.94795307556706e-14
vertex -62.5199671333385 117.464802903638 27.8926836147097
vertex -71.5199671333387 81.8882469992297 2.53796983429311e-14
endloop
endfacet
facet normal 0.81950949733117 0.269326361005414 -0.50583346572918
outer loop
vertex -67.7056077793937 122.102690179121 3.38395977905748e-14
vertex -67.451337983237 129.90439018542 4.52935770968255
vertex -67.451337983237 121.397607933349 3.10196313080269e-14
endloop
endfacet
facet normal 0.707106781186552 0.332322330417192 -0.624148915488989
outer loop
vertex -67.451337983237 129.90439018542 4.52935770968255
vertex -67.7056077793937 122.102690179121 3.38395977905748e-14
vertex -67.7056077793936 130.060126116684 4.23686333388017
endloop
endfacet
facet normal -0.258819045102486 0.453960745594737 -0.852603274302479
outer loop
vertex -65.9058566611745 129.709768721136 4.89488468378412
vertex -65.5199671333385 120.856579297423 3.38395977905748e-14
vertex -65.9058566611745 120.51647447879 3.94795307556706e-14
endloop
endfacet
facet normal -0.441266468870333 0.42174411544956 -0.792095830398302
outer loop
vertex -65.5199671333385 120.856579297423 3.38395977905748e-14
vertex -65.9058566611745 129.709768721136 4.89488468378412
vertex -65.5199671333385 129.784889802364 4.75379653806779
endloop
endfacet
facet normal -1.10413863833675e-15 -0.706703631396704 -0.707509701255546
outer loop
vertex -71.5199671333387 81.8882469992297 2.53796983429311e-14
vertex -82.519967133339 81.3222392382253 0.565362905117386
vertex -82.519967133339 81.8882469992298 1.40998324127395e-14
endloop
endfacet
facet normal -1.10413863833675e-15 -0.706703631396704 -0.707509701255546
outer loop
vertex -82.519967133339 81.3222392382253 0.565362905117386
vertex -71.5199671333387 81.8882469992297 2.53796983429311e-14
vertex -73.5199671333387 81.3222392382253 0.565362905117391
endloop
endfacet
facet normal -1.10413863833675e-15 -0.706703631396704 -0.707509701255546
outer loop
vertex -73.5199671333387 81.3222392382253 0.565362905117391
vertex -71.5199671333387 81.8882469992297 2.53796983429311e-14
vertex -73.5199671333387 80.3425334274228 1.54395253147285
endloop
endfacet
facet normal -1.10413863833675e-15 -0.706703631396704 -0.707509701255546
outer loop
vertex -73.5199671333387 80.3425334274228 1.54395253147285
vertex -71.5199671333387 81.8882469992297 2.53796983429311e-14
vertex -71.5199671333387 80.3425334274229 1.54395253147289
endloop
endfacet
facet normal -1.10413863833675e-15 -0.706703631396704 -0.707509701255546
outer loop
vertex -73.5199671333387 80.3425334274228 1.54395253147285
vertex -73.5199671333387 80.9085411884273 0.978589626355525
vertex -73.5199671333387 81.3222392382253 0.565362905117391
endloop
endfacet
facet normal -1.0 -1.62627755595553e-15 3.89415502439764e-15
outer loop
vertex -64.7199671333385 130.436105914088 3.53071944490016
vertex -64.774485811276 124.686042754011 2.25597318603832e-14
vertex -64.7199671333385 123.804909299452 4.51194637207664e-14
endloop
endfacet
facet normal -0.984938323419486 -0.081261472893049 0.152620680390519
outer loop
vertex -64.774485811276 124.686042754011 2.25597318603832e-14
vertex -64.7199671333385 130.436105914088 3.53071944490016
vertex -64.774485811276 130.630727378372 3.16519247079859
endloop
endfacet
facet normal -8.19974099291099e-15 -0.469974746755428 0.882679861224992
outer loop
vertex -66.3199671333385 127.209347540115 3.94795307556706e-14
vertex -65.9058566611745 131.16244310704 2.1665542060162
vertex -66.3199671333385 131.188065508897 2.1184316669402
endloop
endfacet
facet normal -0.258819045102488 -0.453960745594736 0.852603274302478
outer loop
vertex -65.9058566611745 131.16244310704 2.1665542060162
vertex -66.3199671333385 127.209347540115 3.94795307556706e-14
vertex -65.9058566611745 127.093344120115 3.38395977905748e-14
endloop
endfacet
facet normal 5.65344264060302e-16 0.88267986122499 0.469974746755433
outer loop
vertex -102.519967133339 132.31600490111 4.51194637207664e-14
vertex -98.7199671333395 131.188065508897 2.1184316669402
vertex -82.5199671333387 131.940025103706 0.706143888979107
endloop
endfacet
facet normal 5.65344264060302e-16 0.88267986122499 0.469974746755433
outer loop
vertex -98.7199671333395 131.188065508897 2.1184316669402
vertex -102.519967133339 132.31600490111 4.51194637207664e-14
vertex -99.1340776055035 131.16244310704 2.1665542060162
endloop
endfacet
facet normal 5.65344264060302e-16 0.88267986122499 0.469974746755433
outer loop
vertex -99.1340776055035 131.16244310704 2.1665542060162
vertex -102.519967133339 132.31600490111 4.51194637207664e-14
vertex -99.5199671333394 131.087322025812 2.30764235173254
endloop
endfacet
facet normal 5.65344264060302e-16 0.88267986122499 0.469974746755433
outer loop
vertex -99.5199671333394 131.087322025812 2.30764235173254
vertex -102.519967133339 132.31600490111 4.51194637207664e-14
vertex -99.8513379832379 130.967821642756 2.53208118011777
endloop
endfacet
facet normal 5.65344264060302e-16 0.88267986122499 0.469974746755433
outer loop
vertex -99.8513379832379 130.967821642756 2.53208118011777
vertex -102.519967133339 132.31600490111 4.51194637207664e-14
vertex -100.105607779395 130.812085711492 2.82457555592016
endloop
endfacet
facet normal 5.65344264060302e-16 0.88267986122499 0.469974746755433
outer loop
vertex -100.105607779395 130.812085711492 2.82457555592016
vertex -102.519967133339 132.31600490111 4.51194637207664e-14
vertex -100.265448455402 130.630727378372 3.1651924707986
endloop
endfacet
facet normal 5.65344264060302e-16 0.88267986122499 0.469974746755433
outer loop
vertex -100.265448455402 130.630727378372 3.1651924707986
vertex -102.519967133339 132.31600490111 4.51194637207664e-14
vertex -100.319967133339 130.436105914088 3.53071944490016
endloop
endfacet
facet normal 5.65344264060302e-16 0.88267986122499 0.469974746755433
outer loop
vertex -100.319967133339 130.436105914088 3.53071944490016
vertex -102.519967133339 132.31600490111 4.51194637207664e-14
vertex -101.71996713334 122.916509966001 17.6535972244997
endloop
endfacet
facet normal 5.65344264060302e-16 0.88267986122499 0.469974746755433
outer loop
vertex -101.71996713334 122.916509966001 17.6535972244997
vertex -102.519967133339 132.31600490111 4.51194637207664e-14
vertex -102.519967133339 117.464802903638 27.8926836147097
endloop
endfacet
facet normal 5.65344264060302e-16 0.88267986122499 0.469974746755433
outer loop
vertex -82.5199671333387 131.940025103706 0.706143888979107
vertex -98.7199671333395 131.188065508897 2.1184316669402
vertex -87.4892927993074 131.632556281421 1.28361435789145
endloop
endfacet
facet normal 5.65344264060302e-16 0.88267986122499 0.469974746755433
outer loop
vertex -100.319967133339 130.436105914088 3.53071944490016
vertex -101.71996713334 122.916509966001 17.6535972244997
vertex -100.265448455402 130.241484449804 3.89624641900174
endloop
endfacet
facet normal 5.65344264060302e-16 0.88267986122499 0.469974746755433
outer loop
vertex -100.265448455402 130.241484449804 3.89624641900174
vertex -101.71996713334 122.916509966001 17.6535972244997
vertex -100.105607779395 130.060126116684 4.23686333388017
endloop
endfacet
facet normal 5.65344264060302e-16 0.88267986122499 0.469974746755433
outer loop
vertex -100.105607779395 130.060126116684 4.23686333388017
vertex -101.71996713334 122.916509966001 17.6535972244997
vertex -99.8513379832379 129.90439018542 4.52935770968256
endloop
endfacet
facet normal 5.65344264060302e-16 0.88267986122499 0.469974746755433
outer loop
vertex -99.8513379832379 129.90439018542 4.52935770968256
vertex -101.71996713334 122.916509966001 17.6535972244997
vertex -101.06574299809 125.25196753741 13.2672735352812
endloop
endfacet
facet normal 5.65344264060302e-16 0.88267986122499 0.469974746755433
outer loop
vertex -99.8513379832379 129.90439018542 4.52935770968256
vertex -101.06574299809 125.25196753741 13.2672735352812
vertex -99.5199671333394 129.784889802364 4.7537965380678
endloop
endfacet
facet normal 5.65344264060302e-16 0.88267986122499 0.469974746755433
outer loop
vertex -99.5199671333394 129.784889802364 4.7537965380678
vertex -101.06574299809 125.25196753741 13.2672735352812
vertex -99.1340776055035 129.709768721136 4.89488468378413
endloop
endfacet
facet normal 5.65344264060302e-16 0.88267986122499 0.469974746755433
outer loop
vertex -99.1340776055035 129.709768721136 4.89488468378413
vertex -101.06574299809 125.25196753741 13.2672735352812
vertex -98.7199671333394 129.684146319279 4.94300722286013
endloop
endfacet
facet normal 5.65344264060302e-16 0.88267986122499 0.469974746755433
outer loop
vertex -98.7199671333394 129.684146319279 4.94300722286013
vertex -101.06574299809 125.25196753741 13.2672735352812
vertex -99.147654886001 127.428267534854 9.17987055673935
endloop
endfacet
facet normal 5.65344264060302e-16 0.88267986122499 0.469974746755433
outer loop
vertex -98.7199671333394 129.684146319279 4.94300722286013
vertex -99.147654886001 127.428267534854 9.17987055673935
vertex -96.0964173321212 129.297098710012 5.66993804711034
endloop
endfacet
facet normal 5.65344264060302e-16 0.88267986122499 0.469974746755433
outer loop
vertex -101.71996713334 122.916509966001 17.6535972244997
vertex -102.519967133339 117.464802903638 27.8926836147097
vertex -101.06574299809 120.581052394592 22.0399209137187
endloop
endfacet
facet normal 5.65344264060302e-16 0.88267986122499 0.469974746755433
outer loop
vertex -101.06574299809 120.581052394592 22.0399209137187
vertex -102.519967133339 117.464802903638 27.8926836147097
vertex -99.147654886001 118.404752397149 26.1273238922605
endloop
endfacet
facet normal 5.65344264060302e-16 0.88267986122499 0.469974746755433
outer loop
vertex -99.147654886001 118.404752397149 26.1273238922605
vertex -102.519967133339 117.464802903638 27.8926836147097
vertex -97.6130009100436 117.464802903638 27.8926836147097
endloop
endfacet
facet normal 5.65344264060302e-16 0.88267986122499 0.469974746755433
outer loop
vertex -87.4892927993074 131.632556281421 1.28361435789145
vertex -98.3058566611754 131.16244310704 2.1665542060162
vertex -92.1199671333393 130.731103306687 2.97667210648742
endloop
endfacet
facet normal 5.65344264060302e-16 0.88267986122499 0.469974746755433
outer loop
vertex -98.3058566611754 131.16244310704 2.1665542060162
vertex -87.4892927993074 131.632556281421 1.28361435789145
vertex -98.7199671333395 131.188065508897 2.1184316669402
endloop
endfacet
facet normal 5.65344264060302e-16 0.88267986122499 0.469974746755433
outer loop
vertex -92.1199671333393 130.731103306687 2.97667210648742
vertex -98.3058566611754 131.16244310704 2.1665542060162
vertex -97.9199671333394 131.087322025812 2.30764235173254
endloop
endfacet
facet normal 5.65344264060302e-16 0.88267986122499 0.469974746755433
outer loop
vertex -92.1199671333393 130.731103306687 2.97667210648742
vertex -97.9199671333394 131.087322025812 2.30764235173254
vertex -97.5885962834409 130.967821642756 2.53208118011777
endloop
endfacet
facet normal 5.65344264060302e-16 0.88267986122499 0.469974746755433
outer loop
vertex -92.1199671333393 130.731103306687 2.97667210648742
vertex -97.5885962834409 130.967821642756 2.53208118011777
vertex -97.3343264872843 130.812085711492 2.82457555592016
endloop
endfacet
facet normal 5.65344264060302e-16 0.88267986122499 0.469974746755433
outer loop
vertex -92.1199671333393 130.731103306687 2.97667210648742
vertex -97.3343264872843 130.812085711492 2.82457555592016
vertex -97.1744858112769 130.630727378372 3.1651924707986
endloop
endfacet
facet normal 5.65344264060302e-16 0.88267986122499 0.469974746755433
outer loop
vertex -92.1199671333393 130.731103306687 2.97667210648742
vertex -97.1744858112769 130.630727378372 3.1651924707986
vertex -96.0964173321212 129.297098710012 5.66993804711034
endloop
endfacet
facet normal 5.65344264060302e-16 0.88267986122499 0.469974746755433
outer loop
vertex -96.0964173321212 129.297098710012 5.66993804711034
vertex -97.1744858112769 130.630727378372 3.1651924707986
vertex -97.1199671333394 130.436105914088 3.53071944490016
endloop
endfacet
facet normal 5.65344264060302e-16 0.88267986122499 0.469974746755433
outer loop
vertex -96.0964173321212 129.297098710012 5.66993804711034
vertex -97.1199671333394 130.436105914088 3.53071944490016
vertex -97.1744858112769 130.241484449804 3.89624641900174
endloop
endfacet
facet normal 5.65344264060302e-16 0.88267986122499 0.469974746755433
outer loop
vertex -96.0964173321212 129.297098710012 5.66993804711034
vertex -97.1744858112769 130.241484449804 3.89624641900174
vertex -97.3343264872843 130.060126116684 4.23686333388017
endloop
endfacet
facet normal 5.65344264060302e-16 0.88267986122499 0.469974746755433
outer loop
vertex -96.0964173321212 129.297098710012 5.66993804711034
vertex -97.3343264872843 130.060126116684 4.23686333388017
vertex -97.5885962834409 129.90439018542 4.52935770968255
endloop
endfacet
facet normal 5.65344264060302e-16 0.88267986122499 0.469974746755433
outer loop
vertex -96.0964173321212 129.297098710012 5.66993804711034
vertex -97.5885962834409 129.90439018542 4.52935770968255
vertex -97.9199671333394 129.784889802364 4.75379653806779
endloop
endfacet
facet normal 5.65344264060302e-16 0.88267986122499 0.469974746755433
outer loop
vertex -96.0964173321212 129.297098710012 5.66993804711034
vertex -97.9199671333394 129.784889802364 4.75379653806779
vertex -98.3058566611754 129.709768721136 4.89488468378413
endloop
endfacet
facet normal 5.65344264060302e-16 0.88267986122499 0.469974746755433
outer loop
vertex -96.0964173321212 129.297098710012 5.66993804711034
vertex -98.3058566611754 129.709768721136 4.89488468378413
vertex -98.7199671333394 129.684146319279 4.94300722286013
endloop
endfacet
facet normal 5.65344264060302e-16 0.88267986122499 0.469974746755433
outer loop
vertex -77.5506414673705 131.632556281421 1.28361435789145
vertex -66.7340776055025 131.16244310704 2.1665542060162
vertex -66.3199671333385 131.188065508897 2.1184316669402
endloop
endfacet
facet normal 5.65344264060302e-16 0.88267986122499 0.469974746755433
outer loop
vertex -66.7340776055025 131.16244310704 2.1665542060162
vertex -77.5506414673705 131.632556281421 1.28361435789145
vertex -72.9199671333387 130.731103306687 2.97667210648743
endloop
endfacet
facet normal 5.65344264060302e-16 0.88267986122499 0.469974746755433
outer loop
vertex -66.7340776055025 131.16244310704 2.1665542060162
vertex -72.9199671333387 130.731103306687 2.97667210648743
vertex -67.1199671333385 131.087322025812 2.30764235173254
endloop
endfacet
facet normal 5.65344264060302e-16 0.88267986122499 0.469974746755433
outer loop
vertex -67.1199671333385 131.087322025812 2.30764235173254
vertex -72.9199671333387 130.731103306687 2.97667210648743
vertex -67.451337983237 130.967821642755 2.53208118011777
endloop
endfacet
facet normal 5.65344264060302e-16 0.88267986122499 0.469974746755433
outer loop
vertex -67.451337983237 130.967821642755 2.53208118011777
vertex -72.9199671333387 130.731103306687 2.97667210648743
vertex -67.7056077793936 130.812085711492 2.82457555592016
endloop
endfacet
facet normal 5.65344264060302e-16 0.88267986122499 0.469974746755433
outer loop
vertex -67.7056077793936 130.812085711492 2.82457555592016
vertex -72.9199671333387 130.731103306687 2.97667210648743
vertex -67.865448455401 130.630727378372 3.1651924707986
endloop
endfacet
facet normal 5.65344264060302e-16 0.88267986122499 0.469974746755433
outer loop
vertex -67.865448455401 130.630727378372 3.1651924707986
vertex -72.9199671333387 130.731103306687 2.97667210648743
vertex -68.9435169345567 129.297098710012 5.66993804711035
endloop
endfacet
facet normal 5.65344264060302e-16 0.88267986122499 0.469974746755433
outer loop
vertex -67.865448455401 130.630727378372 3.1651924707986
vertex -68.9435169345567 129.297098710012 5.66993804711035
vertex -67.9199671333385 130.436105914088 3.53071944490016
endloop
endfacet
facet normal 5.65344264060302e-16 0.88267986122499 0.469974746755433
outer loop
vertex -67.9199671333385 130.436105914088 3.53071944490016
vertex -68.9435169345567 129.297098710012 5.66993804711035
vertex -67.865448455401 130.241484449804 3.89624641900174
endloop
endfacet
facet normal 5.65344264060302e-16 0.88267986122499 0.469974746755433
outer loop
vertex -67.865448455401 130.241484449804 3.89624641900174
vertex -68.9435169345567 129.297098710012 5.66993804711035
vertex -67.7056077793936 130.060126116684 4.23686333388017
endloop
endfacet
facet normal 5.65344264060302e-16 0.88267986122499 0.469974746755433
outer loop
vertex -67.7056077793936 130.060126116684 4.23686333388017
vertex -68.9435169345567 129.297098710012 5.66993804711035
vertex -67.451337983237 129.90439018542 4.52935770968255
endloop
endfacet
facet normal 5.65344264060302e-16 0.88267986122499 0.469974746755433
outer loop
vertex -67.451337983237 129.90439018542 4.52935770968255
vertex -68.9435169345567 129.297098710012 5.66993804711035
vertex -67.1199671333385 129.784889802364 4.75379653806779
endloop
endfacet
facet normal 5.65344264060302e-16 0.88267986122499 0.469974746755433
outer loop
vertex -67.1199671333385 129.784889802364 4.75379653806779
vertex -68.9435169345567 129.297098710012 5.66993804711035
vertex -66.7340776055025 129.709768721136 4.89488468378413
endloop
endfacet
facet normal 5.65344264060302e-16 0.88267986122499 0.469974746755433
outer loop
vertex -66.7340776055025 129.709768721136 4.89488468378413
vertex -68.9435169345567 129.297098710012 5.66993804711035
vertex -66.3199671333386 129.684146319279 4.94300722286013
endloop
endfacet
facet normal 5.65344264060302e-16 0.88267986122499 0.469974746755433
outer loop
vertex -62.5199671333384 132.31600490111 3.94795307556706e-14
vertex -63.319967133338 122.916509966001 17.6535972244997
vertex -62.5199671333385 117.464802903638 27.8926836147097
endloop
endfacet
facet normal 5.65344264060302e-16 0.88267986122499 0.469974746755433
outer loop
vertex -63.319967133338 122.916509966001 17.6535972244997
vertex -62.5199671333384 132.31600490111 3.94795307556706e-14
vertex -64.7199671333385 130.436105914088 3.53071944490016
endloop
endfacet
facet normal 5.65344264060302e-16 0.88267986122499 0.469974746755433
outer loop
vertex -64.7199671333385 130.436105914088 3.53071944490016
vertex -62.5199671333384 132.31600490111 3.94795307556706e-14
vertex -64.774485811276 130.630727378372 3.16519247079859
endloop
endfacet
facet normal 5.65344264060302e-16 0.88267986122499 0.469974746755433
outer loop
vertex -64.774485811276 130.630727378372 3.16519247079859
vertex -62.5199671333384 132.31600490111 3.94795307556706e-14
vertex -64.9343264872834 130.812085711492 2.82457555592016
endloop
endfacet
facet normal 5.65344264060302e-16 0.88267986122499 0.469974746755433
outer loop
vertex -64.9343264872834 130.812085711492 2.82457555592016
vertex -62.5199671333384 132.31600490111 3.94795307556706e-14
vertex -65.18859628344 130.967821642756 2.53208118011776
endloop
endfacet
facet normal 5.65344264060302e-16 0.88267986122499 0.469974746755433
outer loop
vertex -65.18859628344 130.967821642756 2.53208118011776
vertex -62.5199671333384 132.31600490111 3.94795307556706e-14
vertex -65.5199671333385 131.087322025812 2.30764235173253
endloop
endfacet
facet normal 5.65344264060302e-16 0.88267986122499 0.469974746755433
outer loop
vertex -65.5199671333385 131.087322025812 2.30764235173253
vertex -62.5199671333384 132.31600490111 3.94795307556706e-14
vertex -65.9058566611745 131.16244310704 2.1665542060162
endloop
endfacet
facet normal 5.65344264060302e-16 0.88267986122499 0.469974746755433
outer loop
vertex -65.9058566611745 131.16244310704 2.1665542060162
vertex -62.5199671333384 132.31600490111 3.94795307556706e-14
vertex -66.3199671333385 131.188065508897 2.1184316669402
endloop
endfacet
facet normal 5.65344264060302e-16 0.88267986122499 0.469974746755433
outer loop
vertex -66.3199671333385 131.188065508897 2.1184316669402
vertex -62.5199671333384 132.31600490111 3.94795307556706e-14
vertex -82.5199671333387 131.940025103706 0.706143888979107
endloop
endfacet
facet normal 5.65344264060302e-16 0.88267986122499 0.469974746755433
outer loop
vertex -82.5199671333387 131.940025103706 0.706143888979107
vertex -62.5199671333384 132.31600490111 3.94795307556706e-14
vertex -102.519967133339 132.31600490111 4.51194637207664e-14
endloop
endfacet
facet normal 5.65344264060302e-16 0.88267986122499 0.469974746755433
outer loop
vertex -66.3199671333385 131.188065508897 2.1184316669402
vertex -82.5199671333387 131.940025103706 0.706143888979107
vertex -77.5506414673705 131.632556281421 1.28361435789145
endloop
endfacet
facet normal 5.65344264060302e-16 0.88267986122499 0.469974746755433
outer loop
vertex -63.319967133338 122.916509966001 17.6535972244997
vertex -64.7199671333385 130.436105914088 3.53071944490016
vertex -64.774485811276 130.241484449804 3.89624641900173
endloop
endfacet
facet normal 5.65344264060302e-16 0.88267986122499 0.469974746755433
outer loop
vertex -63.319967133338 122.916509966001 17.6535972244997
vertex -64.774485811276 130.241484449804 3.89624641900173
vertex -64.9343264872834 130.060126116684 4.23686333388016
endloop
endfacet
facet normal 5.65344264060302e-16 0.88267986122499 0.469974746755433
outer loop
vertex -63.319967133338 122.916509966001 17.6535972244997
vertex -64.9343264872834 130.060126116684 4.23686333388016
vertex -65.18859628344 129.90439018542 4.52935770968255
endloop
endfacet
facet normal 5.65344264060302e-16 0.88267986122499 0.469974746755433
outer loop
vertex -63.319967133338 122.916509966001 17.6535972244997
vertex -65.18859628344 129.90439018542 4.52935770968255
vertex -63.9741912685878 125.25196753741 13.2672735352812
endloop
endfacet
facet normal 5.65344264060302e-16 0.88267986122499 0.469974746755433
outer loop
vertex -63.9741912685878 125.25196753741 13.2672735352812
vertex -65.18859628344 129.90439018542 4.52935770968255
vertex -65.5199671333385 129.784889802364 4.75379653806779
endloop
endfacet
facet normal 5.65344264060302e-16 0.88267986122499 0.469974746755433
outer loop
vertex -63.9741912685878 125.25196753741 13.2672735352812
vertex -65.5199671333385 129.784889802364 4.75379653806779
vertex -65.9058566611745 129.709768721136 4.89488468378412
endloop
endfacet
facet normal 5.65344264060302e-16 0.88267986122499 0.469974746755433
outer loop
vertex -63.9741912685878 125.25196753741 13.2672735352812
vertex -65.9058566611745 129.709768721136 4.89488468378412
vertex -66.3199671333386 129.684146319279 4.94300722286013
endloop
endfacet
facet normal 5.65344264060302e-16 0.88267986122499 0.469974746755433
outer loop
vertex -63.9741912685878 125.25196753741 13.2672735352812
vertex -66.3199671333386 129.684146319279 4.94300722286013
vertex -65.892279380677 127.428267534854 9.17987055673935
endloop
endfacet
facet normal 5.65344264060302e-16 0.88267986122499 0.469974746755433
outer loop
vertex -65.892279380677 127.428267534854 9.17987055673935
vertex -66.3199671333386 129.684146319279 4.94300722286013
vertex -68.9435169345567 129.297098710012 5.66993804711035
endloop
endfacet
facet normal 5.65344264060302e-16 0.88267986122499 0.469974746755433
outer loop
vertex -62.5199671333385 117.464802903638 27.8926836147097
vertex -63.319967133338 122.916509966001 17.6535972244997
vertex -63.9741912685879 120.581052394592 22.0399209137187
endloop
endfacet
facet normal 5.65344264060302e-16 0.88267986122499 0.469974746755433
outer loop
vertex -62.5199671333385 117.464802903638 27.8926836147097
vertex -63.9741912685879 120.581052394592 22.0399209137187
vertex -65.892279380677 118.404752397149 26.1273238922605
endloop
endfacet
facet normal 5.65344264060302e-16 0.88267986122499 0.469974746755433
outer loop
vertex -62.5199671333385 117.464802903638 27.8926836147097
vertex -65.892279380677 118.404752397149 26.1273238922605
vertex -67.4269333566343 117.464802903638 27.8926836147097
endloop
endfacet
facet normal -0.964124094465544 0.146133283423422 0.221607296691431
outer loop
vertex -63.9741912685878 125.25196753741 13.2672735352812
vertex -73.5199671333387 80.9085411884273 0.978589626355525
vertex -63.319967133338 122.916509966001 17.6535972244997
endloop
endfacet
facet normal -3.35825425997561e-16 -0.0487451553276552 0.9988112483508
outer loop
vertex -72.9199671333387 130.731103306687 2.97667210648743
vertex -82.519967133339 81.3222392382253 0.565362905117386
vertex -73.5199671333387 81.3222392382253 0.565362905117391
endloop
endfacet
facet normal -0.757214262747583 -0.306971790492084 0.576536972044047
outer loop
vertex -65.18859628344 126.212210665556 2.8199664825479e-14
vertex -65.5199671333385 131.087322025812 2.30764235173253
vertex -65.5199671333385 126.753239301482 3.94795307556706e-14
endloop
endfacet
facet normal -0.50000000000002 -0.407010069827351 0.764423183229757
outer loop
vertex -65.5199671333385 131.087322025812 2.30764235173253
vertex -65.18859628344 126.212210665556 2.8199664825479e-14
vertex -65.18859628344 130.967821642756 2.53208118011776
endloop
endfacet
facet normal -0.906649645783489 0.346172234147238 -0.241145607685863
outer loop
vertex -67.8587430195781 108.738004317067 19.6438294045592
vertex -63.9741912685879 120.581052394592 22.0399209137187
vertex -73.5199671333387 80.9085411884273 0.978589626355525
endloop
endfacet
facet normal -0.906649645783489 0.346172234147238 -0.241145607685863
outer loop
vertex -63.9741912685879 120.581052394592 22.0399209137187
vertex -67.8587430195781 108.738004317067 19.6438294045592
vertex -65.892279380677 118.404752397149 26.1273238922605
endloop
endfacet
facet normal 0.54899540637249 -0.392816815092341 0.737766218773003
outer loop
vertex -67.1199671333385 126.753239301482 3.94795307556706e-14
vertex -67.451337983237 130.967821642755 2.53208118011777
vertex -67.451337983237 126.212210665556 4.51194637207664e-14
endloop
endfacet
facet normal 0.707106781186523 -0.332322330417205 0.624148915489014
outer loop
vertex -67.451337983237 130.967821642755 2.53208118011777
vertex -67.1199671333385 126.753239301482 3.94795307556706e-14
vertex -67.1199671333385 131.087322025812 2.30764235173254
endloop
endfacet
facet normal 0.980476695876628 -0.138962894293969 -0.139121396098131
outer loop
vertex -62.5199671333385 117.464802903638 27.8926836147097
vertex -71.5199671333387 80.3425334274229 1.54395253147289
vertex -71.5199671333387 81.8882469992297 2.53796983429311e-14
endloop
endfacet
facet normal 0.258819045102519 0.453960745594733 -0.852603274302471
outer loop
vertex -66.7340776055025 129.709768721136 4.89488468378413
vertex -66.3199671333386 120.40047105879 4.79394302033143e-14
vertex -66.7340776055025 120.51647447879 4.51194637207664e-14
endloop
endfacet
facet normal 2.726088526084e-14 0.469974746755427 -0.882679861224993
outer loop
vertex -66.3199671333386 120.40047105879 4.79394302033143e-14
vertex -66.7340776055025 129.709768721136 4.89488468378413
vertex -66.3199671333386 129.684146319279 4.94300722286013
endloop
endfacet
facet normal -0.866025403784428 -0.234987373377722 0.441339930612514
outer loop
vertex -64.9343264872834 130.812085711492 2.82457555592016
vertex -65.18859628344 126.212210665556 2.8199664825479e-14
vertex -64.9343264872834 125.507128419784 2.8199664825479e-14
endloop
endfacet
facet normal -0.757214262747583 -0.306971790492084 0.576536972044047
outer loop
vertex -65.18859628344 126.212210665556 2.8199664825479e-14
vertex -64.9343264872834 130.812085711492 2.82457555592016
vertex -65.18859628344 130.967821642756 2.53208118011776
endloop
endfacet
facet normal -2.82286776331243e-16 -0.706703631396704 -0.707509701255546
outer loop
vertex -91.5199671333393 80.9085411884273 0.97858962635552
vertex -91.5199671333393 80.3425334274229 1.54395253147285
vertex -91.5199671333393 81.3222392382254 0.565362905117386
endloop
endfacet
facet normal -2.82286776331243e-16 -0.706703631396704 -0.707509701255546
outer loop
vertex -93.5199671333393 81.8882469992298 1.97397653778353e-14
vertex -91.5199671333393 80.3425334274229 1.54395253147285
vertex -93.5199671333393 80.3425334274229 1.54395253147288
endloop
endfacet
facet normal -2.82286776331243e-16 -0.706703631396704 -0.707509701255546
outer loop
vertex -91.5199671333393 80.3425334274229 1.54395253147285
vertex -93.5199671333393 81.8882469992298 1.97397653778353e-14
vertex -91.5199671333393 81.3222392382254 0.565362905117386
endloop
endfacet
facet normal -2.82286776331243e-16 -0.706703631396704 -0.707509701255546
outer loop
vertex -91.5199671333393 81.3222392382254 0.565362905117386
vertex -93.5199671333393 81.8882469992298 1.97397653778353e-14
vertex -82.519967133339 81.8882469992298 1.40998324127395e-14
endloop
endfacet
facet normal -2.82286776331243e-16 -0.706703631396704 -0.707509701255546
outer loop
vertex -91.5199671333393 81.3222392382254 0.565362905117386
vertex -82.519967133339 81.8882469992298 1.40998324127395e-14
vertex -82.519967133339 81.3222392382253 0.565362905117386
endloop
endfacet
facet normal -0.568654969251154 -0.0332060993820851 0.821905639906307
outer loop
vertex -68.9435169345567 129.297098710012 5.66993804711035
vertex -72.9199671333387 130.731103306687 2.97667210648743
vertex -73.5199671333387 81.3222392382253 0.565362905117391
endloop
endfacet
facet normal 0.904485740120356 -0.200446045425128 0.376466371396383
outer loop
vertex -67.7056077793936 125.507128419784 3.94795307556706e-14
vertex -67.865448455401 130.630727378372 3.1651924707986
vertex -67.865448455401 124.686042754011 4.51194637207664e-14
endloop
endfacet
facet normal 0.965925826289075 -0.121638415177527 0.228454358813455
outer loop
vertex -67.865448455401 130.630727378372 3.1651924707986
vertex -67.7056077793936 125.507128419784 3.94795307556706e-14
vertex -67.7056077793936 130.812085711492 2.82457555592016
endloop
endfacet
facet normal 3.34523065482594e-14 0.469974746755427 -0.882679861224993
outer loop
vertex -66.3199671333386 129.684146319279 4.94300722286013
vertex -65.9058566611745 120.51647447879 3.94795307556706e-14
vertex -66.3199671333386 120.40047105879 4.79394302033143e-14
endloop
endfacet
facet normal -0.218826140513687 0.458584375343617 -0.861287112941201
outer loop
vertex -65.9058566611745 120.51647447879 3.94795307556706e-14
vertex -66.3199671333386 129.684146319279 4.94300722286013
vertex -65.9058566611745 129.709768721136 4.89488468378412
endloop
endfacet
facet normal -0.75415205963258 0.0020673809417166 0.656696579013458
outer loop
vertex -68.9435169345567 129.297098710012 5.66993804711035
vertex -73.5199671333387 81.3222392382253 0.565362905117391
vertex -65.892279380677 127.428267534854 9.17987055673935
endloop
endfacet
facet normal 0.970174295122487 0.241885561991969 -0.0159126359669015
outer loop
vertex -101.71996713334 122.916509966001 17.6535972244997
vertex -101.06574299809 120.581052394592 22.0399209137187
vertex -91.5199671333393 80.9085411884273 0.97858962635552
endloop
endfacet
facet normal 3.51353068513946e-16 0.956471245906196 -0.291826585071767
outer loop
vertex -97.1811912470999 108.738004317067 19.6438294045592
vertex -67.8587430195781 109.694086766452 22.7774211276285
vertex -67.8587430195781 108.738004317067 19.6438294045592
endloop
endfacet
facet normal 3.51353068513946e-16 0.956471245906196 -0.291826585071767
outer loop
vertex -67.8587430195781 109.694086766452 22.7774211276285
vertex -97.1811912470999 108.738004317067 19.6438294045592
vertex -97.1811912470999 109.694086766452 22.7774211276285
endloop
endfacet
facet normal 0.906649645783489 0.346172234147235 -0.241145607685866
outer loop
vertex -101.06574299809 120.581052394592 22.0399209137187
vertex -97.1811912470999 108.738004317067 19.6438294045592
vertex -91.5199671333393 80.9085411884273 0.97858962635552
endloop
endfacet
facet normal 0.906649645783489 0.346172234147235 -0.241145607685866
outer loop
vertex -97.1811912470999 108.738004317067 19.6438294045592
vertex -101.06574299809 120.581052394592 22.0399209137187
vertex -99.147654886001 118.404752397149 26.1273238922605
endloop
endfacet
facet normal -1.0 -3.29711066138936e-15 7.28037678474354e-15
outer loop
vertex -97.1199671333394 130.436105914088 3.53071944490016
vertex -97.1744858112769 124.686042754011 4.51194637207664e-14
vertex -97.1199671333394 123.804909299452 3.66595642731227e-14
endloop
endfacet
facet normal -0.984938323419497 -0.0812614728930182 0.152620680390462
outer loop
vertex -97.1744858112769 124.686042754011 4.51194637207664e-14
vertex -97.1199671333394 130.436105914088 3.53071944490016
vertex -97.1744858112769 130.630727378372 3.1651924707986
endloop
endfacet
facet normal 0.757214262747576 -0.306971790492087 0.576536972044054
outer loop
vertex -99.8513379832379 126.212210665556 3.38395977905748e-14
vertex -99.5199671333394 131.087322025812 2.30764235173254
vertex -99.8513379832379 130.967821642756 2.53208118011777
endloop
endfacet
facet normal 0.500000000000018 -0.407010069827351 0.764423183229758
outer loop
vertex -99.5199671333394 131.087322025812 2.30764235173254
vertex -99.8513379832379 126.212210665556 3.38395977905748e-14
vertex -99.5199671333394 126.753239301482 4.51194637207664e-14
endloop
endfacet
facet normal -0.258819045102523 0.453960745594732 -0.85260327430247
outer loop
vertex -98.3058566611754 129.709768721136 4.89488468378413
vertex -98.7199671333394 120.40047105879 5.6399329650958e-14
vertex -98.7199671333394 129.684146319279 4.94300722286013
endloop
endfacet
facet normal -2.70925432445634e-14 0.469974746755427 -0.882679861224993
outer loop
vertex -98.7199671333394 120.40047105879 5.6399329650958e-14
vertex -98.3058566611754 129.709768721136 4.89488468378413
vertex -98.3058566611754 120.51647447879 4.51194637207664e-14
endloop
endfacet
endsolid Carriage
