solid Carriage
facet normal 4.34909841993476e-15 -0.995687175123994 0.0927741844135544
outer loop
vertex -171.141973963845 133.94895241338 23.9792592148755
vertex -170.710164300901 133.085853579836 14.7161603813317
vertex -165.803198077605 133.085853579836 14.7161603813318
endloop
endfacet
facet normal 0.499999999999928 -0.86602540378448 -1.7748879061136e-14
outer loop
vertex -170.403198077606 162.071494225891 14.7161603813318
vertex -170.734568927504 161.817224429734 19.223703992058
vertex -170.734568927504 161.817224429734 14.7161603813318
endloop
endfacet
facet normal 0.707106781186503 -0.707106781186592 -1.32136765250102e-14
outer loop
vertex -170.734568927504 161.817224429734 19.223703992058
vertex -170.403198077606 162.071494225891 14.7161603813318
vertex -170.403198077605 162.071494225891 19.223703992058
endloop
endfacet
facet normal 0.965925826289055 -0.25881904510257 1.2100872199017e-14
outer loop
vertex -171.148679399668 161.099964052 14.7161603813318
vertex -170.988838723661 161.485853579836 19.223703992058
vertex -171.148679399668 161.099964052 19.223703992058
endloop
endfacet
facet normal 0.866025403784327 -0.500000000000193 -4.59119269089316e-15
outer loop
vertex -170.988838723661 161.485853579836 19.223703992058
vertex -171.148679399668 161.099964052 14.7161603813318
vertex -170.988838723661 161.485853579836 14.7161603813318
endloop
endfacet
facet normal -0.499999999999939 -0.866025403784474 -9.18238538178641e-15
outer loop
vertex -168.803198077606 162.071494225891 19.223703992058
vertex -169.189087605442 162.231334901898 14.7161603813317
vertex -168.803198077606 162.071494225891 14.7161603813317
endloop
endfacet
facet normal -0.258819045102554 -0.965925826289059 -1.09740703343304e-14
outer loop
vertex -169.189087605442 162.231334901898 14.7161603813317
vertex -168.803198077606 162.071494225891 19.223703992058
vertex -169.189087605442 162.231334901898 19.223703992058
endloop
endfacet
facet normal -0.754152059632572 -0.578681228396006 -0.310455643939742
outer loop
vertex -176.588369472742 141.067933637286 57.3611739338747
vertex -169.175510324944 154.285853579837 14.7161603813315
vertex -176.440506241657 140.889810355653 57.3340049613971
endloop
endfacet
facet normal -0.754152059632572 -0.578681228396006 -0.310455643939742
outer loop
vertex -169.175510324944 154.285853579837 14.7161603813315
vertex -176.588369472742 141.067933637286 57.3611739338747
vertex -172.226747878824 158.262303778619 14.7161603813316
endloop
endfacet
facet normal 0.500000000000117 0.866025403784371 3.98929852714831e-14
outer loop
vertex -170.403198077606 159.300212933781 14.7161603813317
vertex -170.01730854977 159.140372257773 19.223703992058
vertex -170.01730854977 159.140372257773 14.7161603813317
endloop
endfacet
facet normal 0.258819045102377 0.965925826289107 4.7059725081657e-14
outer loop
vertex -170.01730854977 159.140372257773 19.223703992058
vertex -170.403198077606 159.300212933781 14.7161603813317
vertex -170.403198077606 159.300212933781 19.223703992058
endloop
endfacet
facet normal -0.568654969251149 -0.741085584320373 -0.356964539777423
outer loop
vertex -172.226747878824 158.262303778619 14.7161603813316
vertex -176.77530606232 141.201557779901 57.3815554955651
vertex -176.203198077606 161.313541332498 14.7161603813315
endloop
endfacet
facet normal -0.568654969251149 -0.741085584320373 -0.356964539777423
outer loop
vertex -176.77530606232 141.201557779901 57.3815554955651
vertex -172.226747878824 158.262303778619 14.7161603813316
vertex -176.588369472742 141.067933637286 57.3611739338747
endloop
endfacet
facet normal 1.67579897800807e-15 6.20767060065876e-15 1.0
outer loop
vertex -171.779437646903 162.285853579836 19.223703992058
vertex -170.01730854977 162.231334901898 19.223703992058
vertex -169.603198077606 162.285853579836 19.223703992058
endloop
endfacet
facet normal 1.67579897800807e-15 6.20767060065876e-15 1.0
outer loop
vertex -170.01730854977 162.231334901898 19.223703992058
vertex -171.779437646903 162.285853579836 19.223703992058
vertex -170.403198077605 162.071494225891 19.223703992058
endloop
endfacet
facet normal 1.67579897800807e-15 6.20767060065876e-15 1.0
outer loop
vertex -170.403198077605 162.071494225891 19.223703992058
vertex -171.779437646903 162.285853579836 19.223703992058
vertex -170.734568927504 161.817224429734 19.223703992058
endloop
endfacet
facet normal 1.67579897800807e-15 6.20767060065876e-15 1.0
outer loop
vertex -170.734568927504 161.817224429734 19.223703992058
vertex -171.779437646903 162.285853579836 19.223703992058
vertex -170.988838723661 161.485853579836 19.223703992058
endloop
endfacet
facet normal 1.67579897800807e-15 6.20767060065876e-15 1.0
outer loop
vertex -170.988838723661 161.485853579836 19.223703992058
vertex -171.779437646903 162.285853579836 19.223703992058
vertex -171.148679399668 161.099964052 19.223703992058
endloop
endfacet
facet normal 1.67579897800807e-15 6.20767060065876e-15 1.0
outer loop
vertex -171.148679399668 161.099964052 19.223703992058
vertex -171.779437646903 162.285853579836 19.223703992058
vertex -171.203198077606 160.685853579836 19.223703992058
endloop
endfacet
facet normal 1.67579897800807e-15 6.20767060065876e-15 1.0
outer loop
vertex -171.153198077606 158.001174828105 19.223703992058
vertex -171.779437646903 162.285853579836 19.223703992058
vertex -172.703198077606 160.685853579836 19.223703992058
endloop
endfacet
facet normal 1.67579897800807e-15 6.20767060065876e-15 1.0
outer loop
vertex -171.779437646903 162.285853579836 19.223703992058
vertex -171.153198077606 158.001174828105 19.223703992058
vertex -171.203198077606 160.685853579836 19.223703992058
endloop
endfacet
facet normal 1.67579897800807e-15 6.20767060065876e-15 1.0
outer loop
vertex -171.203198077606 160.685853579836 19.223703992058
vertex -171.153198077606 158.001174828105 19.223703992058
vertex -171.148679399668 160.271743107672 19.223703992058
endloop
endfacet
facet normal 1.67579897800807e-15 6.20767060065876e-15 1.0
outer loop
vertex -171.148679399668 160.271743107672 19.223703992058
vertex -171.153198077606 158.001174828105 19.223703992058
vertex -170.988838723661 159.885853579836 19.223703992058
endloop
endfacet
facet normal 1.67579897800807e-15 6.20767060065876e-15 1.0
outer loop
vertex -170.988838723661 159.885853579836 19.223703992058
vertex -171.153198077606 158.001174828105 19.223703992058
vertex -170.734568927504 159.554482729937 19.223703992058
endloop
endfacet
facet normal 1.67579897800807e-15 6.20767060065876e-15 1.0
outer loop
vertex -170.734568927504 159.554482729937 19.223703992058
vertex -171.153198077606 158.001174828105 19.223703992058
vertex -170.403198077606 159.300212933781 19.223703992058
endloop
endfacet
facet normal 1.67579897800807e-15 6.20767060065876e-15 1.0
outer loop
vertex -170.403198077606 159.300212933781 19.223703992058
vertex -171.153198077606 158.001174828105 19.223703992058
vertex -168.053198077606 158.001174828105 19.223703992058
endloop
endfacet
facet normal 1.67579897800807e-15 6.20767060065876e-15 1.0
outer loop
vertex -170.403198077606 159.300212933781 19.223703992058
vertex -168.053198077606 158.001174828105 19.223703992058
vertex -170.01730854977 159.140372257773 19.223703992058
endloop
endfacet
facet normal 1.67579897800807e-15 6.20767060065876e-15 1.0
outer loop
vertex -170.01730854977 159.140372257773 19.223703992058
vertex -168.053198077606 158.001174828105 19.223703992058
vertex -169.603198077606 159.085853579836 19.223703992058
endloop
endfacet
facet normal 1.67579897800807e-15 6.20767060065876e-15 1.0
outer loop
vertex -169.603198077606 159.085853579836 19.223703992058
vertex -168.053198077606 158.001174828105 19.223703992058
vertex -169.189087605442 159.140372257773 19.223703992058
endloop
endfacet
facet normal 1.67579897800807e-15 6.20767060065876e-15 1.0
outer loop
vertex -169.189087605442 159.140372257773 19.223703992058
vertex -168.053198077606 158.001174828105 19.223703992058
vertex -168.803198077606 159.300212933781 19.223703992058
endloop
endfacet
facet normal 1.67579897800807e-15 6.20767060065876e-15 1.0
outer loop
vertex -168.803198077606 159.300212933781 19.223703992058
vertex -168.053198077606 158.001174828105 19.223703992058
vertex -168.471827227707 159.554482729937 19.223703992058
endloop
endfacet
facet normal 1.67579897800807e-15 6.20767060065876e-15 1.0
outer loop
vertex -168.471827227707 159.554482729937 19.223703992058
vertex -168.053198077606 158.001174828105 19.223703992058
vertex -168.21755743155 159.885853579836 19.223703992058
endloop
endfacet
facet normal 1.67579897800807e-15 6.20767060065876e-15 1.0
outer loop
vertex -168.21755743155 159.885853579836 19.223703992058
vertex -168.053198077606 158.001174828105 19.223703992058
vertex -168.057716755543 160.271743107672 19.223703992058
endloop
endfacet
facet normal 1.67579897800807e-15 6.20767060065876e-15 1.0
outer loop
vertex -168.057716755543 160.271743107672 19.223703992058
vertex -168.053198077606 158.001174828105 19.223703992058
vertex -168.003198077606 160.685853579836 19.223703992058
endloop
endfacet
facet normal 1.67579897800807e-15 6.20767060065876e-15 1.0
outer loop
vertex -168.003198077606 160.685853579836 19.223703992058
vertex -168.053198077606 158.001174828105 19.223703992058
vertex -166.714599221761 158.001174828105 19.223703992058
endloop
endfacet
facet normal 1.67579897800807e-15 6.20767060065876e-15 1.0
outer loop
vertex -168.003198077606 160.685853579836 19.223703992058
vertex -166.714599221761 158.001174828105 19.223703992058
vertex -166.714599221761 162.285853579836 19.223703992058
endloop
endfacet
facet normal 1.67579897800807e-15 6.20767060065876e-15 1.0
outer loop
vertex -169.189087605442 162.231334901898 19.223703992058
vertex -166.714599221761 162.285853579836 19.223703992058
vertex -169.603198077606 162.285853579836 19.223703992058
endloop
endfacet
facet normal 1.67579897800807e-15 6.20767060065876e-15 1.0
outer loop
vertex -166.714599221761 162.285853579836 19.223703992058
vertex -169.189087605442 162.231334901898 19.223703992058
vertex -168.803198077606 162.071494225891 19.223703992058
endloop
endfacet
facet normal 1.67579897800807e-15 6.20767060065876e-15 1.0
outer loop
vertex -166.714599221761 162.285853579836 19.223703992058
vertex -168.803198077606 162.071494225891 19.223703992058
vertex -168.471827227707 161.817224429734 19.223703992058
endloop
endfacet
facet normal 1.67579897800807e-15 6.20767060065876e-15 1.0
outer loop
vertex -166.714599221761 162.285853579836 19.223703992058
vertex -168.471827227707 161.817224429734 19.223703992058
vertex -168.21755743155 161.485853579836 19.223703992058
endloop
endfacet
facet normal 1.67579897800807e-15 6.20767060065876e-15 1.0
outer loop
vertex -166.714599221761 162.285853579836 19.223703992058
vertex -168.21755743155 161.485853579836 19.223703992058
vertex -168.057716755543 161.099964052 19.223703992058
endloop
endfacet
facet normal 1.67579897800807e-15 6.20767060065876e-15 1.0
outer loop
vertex -166.714599221761 162.285853579836 19.223703992058
vertex -168.057716755543 161.099964052 19.223703992058
vertex -168.003198077606 160.685853579836 19.223703992058
endloop
endfacet
facet normal -0.866025403784596 0.499999999999726 1.24578094356555e-14
outer loop
vertex -168.21755743155 159.885853579836 19.223703992058
vertex -168.471827227707 159.554482729937 14.7161603813317
vertex -168.471827227707 159.554482729937 19.223703992058
endloop
endfacet
facet normal -0.707106781186517 0.707106781186578 3.44059501043164e-14
outer loop
vertex -168.471827227707 159.554482729937 14.7161603813317
vertex -168.21755743155 159.885853579836 19.223703992058
vertex -168.21755743155 159.885853579836 14.7161603813317
endloop
endfacet
facet normal -0.866025403784424 -0.500000000000026 9.56031892646388e-15
outer loop
vertex -168.21755743155 161.485853579836 19.223703992058
vertex -168.471827227707 161.817224429734 14.7161603813317
vertex -168.21755743155 161.485853579836 14.7161603813318
endloop
endfacet
facet normal -0.707106781186409 -0.707106781186686 2.09963080376168e-15
outer loop
vertex -168.471827227707 161.817224429734 14.7161603813317
vertex -168.21755743155 161.485853579836 19.223703992058
vertex -168.471827227707 161.817224429734 19.223703992058
endloop
endfacet
facet normal -0.890173750515179 -0.3687220403319 -0.267646690372253
outer loop
vertex -176.440506241657 140.889810355653 57.3340049613971
vertex -167.257422212855 149.655179245804 14.7161603813318
vertex -176.342360776937 140.676485037083 57.3014666561519
endloop
endfacet
facet normal -0.890173750515179 -0.3687220403319 -0.267646690372253
outer loop
vertex -167.257422212855 149.655179245804 14.7161603813318
vertex -176.440506241657 140.889810355653 57.3340049613971
vertex -169.175510324944 154.285853579837 14.7161603813315
endloop
endfacet
facet normal -2.53877520926973e-14 1.0 3.94450640333441e-14
outer loop
vertex -169.603198077606 159.085853579836 19.223703992058
vertex -169.189087605442 159.140372257773 14.7161603813317
vertex -169.603198077606 159.085853579836 14.7161603813316
endloop
endfacet
facet normal -0.258819045102454 0.965925826289086 3.15224571338168e-14
outer loop
vertex -169.189087605442 159.140372257773 14.7161603813317
vertex -169.603198077606 159.085853579836 19.223703992058
vertex -169.189087605442 159.140372257773 19.223703992058
endloop
endfacet
facet normal 0.707106781186703 0.707106781186392 1.36056076083786e-14
outer loop
vertex -170.734568927504 159.554482729937 14.7161603813318
vertex -170.403198077606 159.300212933781 19.223703992058
vertex -170.403198077606 159.300212933781 14.7161603813317
endloop
endfacet
facet normal 0.500000000000128 0.866025403784364 3.9892985271482e-14
outer loop
vertex -170.403198077606 159.300212933781 19.223703992058
vertex -170.734568927504 159.554482729937 14.7161603813318
vertex -170.734568927504 159.554482729937 19.223703992058
endloop
endfacet
facet normal -0.965925826289082 -0.258819045102469 2.65253358208613e-15
outer loop
vertex -168.057716755543 161.099964052 19.223703992058
vertex -168.003198077606 160.685853579836 14.7161603813317
vertex -168.003198077606 160.685853579836 19.223703992058
endloop
endfacet
facet normal -1.0 1.59758378209176e-13 -2.05203917221027e-14
outer loop
vertex -168.003198077606 160.685853579836 14.7161603813317
vertex -168.057716755543 161.099964052 19.223703992058
vertex -168.057716755543 161.099964052 14.7161603813317
endloop
endfacet
facet normal -0.258819045102454 0.965925826289086 3.15224571338168e-14
outer loop
vertex -169.189087605442 159.140372257773 14.7161603813317
vertex -168.803198077606 159.300212933781 19.223703992058
vertex -168.803198077606 159.300212933781 14.7161603813317
endloop
endfacet
facet normal -0.499999999999986 0.866025403784447 2.9338841097903e-14
outer loop
vertex -168.803198077606 159.300212933781 19.223703992058
vertex -169.189087605442 159.140372257773 14.7161603813317
vertex -169.189087605442 159.140372257773 19.223703992058
endloop
endfacet
facet normal -0.965925826289108 0.258819045102371 -2.49506127180392e-14
outer loop
vertex -168.057716755543 160.271743107672 19.223703992058
vertex -168.003198077606 160.685853579836 14.7161603813317
vertex -168.057716755543 160.271743107672 14.7161603813317
endloop
endfacet
facet normal -1.0 1.59758378209176e-13 -2.05203917221027e-14
outer loop
vertex -168.003198077606 160.685853579836 14.7161603813317
vertex -168.057716755543 160.271743107672 19.223703992058
vertex -168.003198077606 160.685853579836 19.223703992058
endloop
endfacet
facet normal 0.866025403784434 0.500000000000008 -2.1094237467878e-15
outer loop
vertex -172.703198077606 160.685853579836 19.223703992058
vertex -171.153198077606 158.001174828105 27.2709441301325
vertex -171.153198077606 158.001174828105 19.223703992058
endloop
endfacet
facet normal 0.866025403784434 0.500000000000008 -2.1094237467878e-15
outer loop
vertex -171.153198077606 158.001174828105 27.2709441301325
vertex -172.703198077606 160.685853579836 19.223703992058
vertex -172.703198077606 160.685853579836 22.2287330658741
endloop
endfacet
facet normal 0.980476695876627 0.0574906035471136 0.188043291150311
outer loop
vertex -174.412695056289 140.643296095961 57.2964043789491
vertex -174.415299339116 138.646366898474 57.9205058967822
vertex -165.803198077605 133.085853579836 14.7161603813318
endloop
endfacet
facet normal 0.965925826289079 0.258819045102482 -6.59983949315927e-15
outer loop
vertex -171.148679399668 160.271743107672 14.7161603813317
vertex -170.988838723661 159.885853579836 19.223703992058
vertex -170.988838723661 159.885853579836 14.7161603813316
endloop
endfacet
facet normal 0.866025403784469 0.499999999999947 -5.41704747370638e-15
outer loop
vertex -170.988838723661 159.885853579836 19.223703992058
vertex -171.148679399668 160.271743107672 14.7161603813317
vertex -171.148679399668 160.271743107672 19.223703992058
endloop
endfacet
facet normal 0.866025403784325 -0.500000000000197 -4.59119269089329e-15
outer loop
vertex -170.988838723661 161.485853579836 14.7161603813318
vertex -170.734568927504 161.817224429734 19.223703992058
vertex -170.988838723661 161.485853579836 19.223703992058
endloop
endfacet
facet normal 0.707106781186503 -0.707106781186592 -1.32136765250102e-14
outer loop
vertex -170.734568927504 161.817224429734 19.223703992058
vertex -170.988838723661 161.485853579836 14.7161603813318
vertex -170.734568927504 161.817224429734 14.7161603813318
endloop
endfacet
facet normal -0.115598444615446 -0.878057361112499 -0.464383753159651
outer loop
vertex -185.573591128185 141.284238008037 57.3941666310779
vertex -185.803198077606 163.885853579837 14.7161603813317
vertex -180.833872411638 163.231629444587 14.7161603813315
endloop
endfacet
facet normal -0.115598444615446 -0.878057361112499 -0.464383753159651
outer loop
vertex -185.803198077606 163.885853579837 14.7161603813317
vertex -185.573591128185 141.284238008037 57.3941666310779
vertex -185.803198077606 141.312209874028 57.3984331528391
endloop
endfacet
facet normal -0.778430183347911 0.59731048794028 -0.19304566985427
outer loop
vertex -171.141973963845 136.265576113607 26.2958829151028
vertex -169.175510324944 135.085853579835 14.7161603813318
vertex -170.710164300901 133.085853579836 14.7161603813317
endloop
endfacet
facet normal 1.0 1.60061355945614e-13 9.85426723898923e-15
outer loop
vertex -171.203198077606 160.685853579836 14.7161603813317
vertex -171.148679399668 160.271743107672 19.223703992058
vertex -171.148679399668 160.271743107672 14.7161603813317
endloop
endfacet
facet normal 0.965925826289081 0.258819045102473 -6.59983949315912e-15
outer loop
vertex -171.148679399668 160.271743107672 19.223703992058
vertex -171.203198077606 160.685853579836 14.7161603813317
vertex -171.203198077606 160.685853579836 19.223703992058
endloop
endfacet
facet normal 0.258819045102516 -0.96592582628907 -1.18139226558353e-14
outer loop
vertex -170.01730854977 162.231334901898 19.223703992058
vertex -170.403198077606 162.071494225891 14.7161603813318
vertex -170.01730854977 162.231334901898 14.7161603813317
endloop
endfacet
facet normal 0.499999999999928 -0.86602540378448 -1.7748879061136e-14
outer loop
vertex -170.403198077606 162.071494225891 14.7161603813318
vertex -170.01730854977 162.231334901898 19.223703992058
vertex -170.403198077605 162.071494225891 19.223703992058
endloop
endfacet
facet normal -3.89449012039826e-15 0.882679861224993 0.469974746755427
outer loop
vertex -197.154591802731 141.911408767233 57.4898283825305
vertex -200.453198077607 158.001174828105 27.2709441301326
vertex -203.264688134841 158.001174828105 27.2709441301326
endloop
endfacet
facet normal -3.89449012039826e-15 0.882679861224993 0.469974746755427
outer loop
vertex -200.453198077607 158.001174828105 27.2709441301326
vertex -197.154591802731 141.911408767233 57.4898283825305
vertex -174.451804352482 141.911408767234 57.4898283825305
endloop
endfacet
facet normal -3.89449012039826e-15 0.882679861224993 0.469974746755427
outer loop
vertex -204.891796933452 162.285853579836 19.223703992058
vertex -171.779437646903 162.285853579836 19.223703992058
vertex -205.803198077607 164.685853579836 14.7161603813318
endloop
endfacet
facet normal -3.89449012039826e-15 0.882679861224993 0.469974746755427
outer loop
vertex -171.779437646903 162.285853579836 19.223703992058
vertex -204.891796933452 162.285853579836 19.223703992058
vertex -199.82695850831 162.285853579836 19.223703992058
endloop
endfacet
facet normal -3.89449012039826e-15 0.882679861224993 0.469974746755427
outer loop
vertex -171.779437646903 162.285853579836 19.223703992058
vertex -199.82695850831 162.285853579836 19.223703992058
vertex -172.703198077606 160.685853579836 22.2287330658741
endloop
endfacet
facet normal -3.89449012039826e-15 0.882679861224993 0.469974746755427
outer loop
vertex -199.82695850831 162.285853579836 19.223703992058
vertex -204.891796933452 162.285853579836 19.223703992058
vertex -202.003198077607 162.285853579836 19.223703992058
endloop
endfacet
facet normal -3.89449012039826e-15 0.882679861224993 0.469974746755427
outer loop
vertex -172.703198077606 160.685853579836 22.2287330658741
vertex -199.82695850831 162.285853579836 19.223703992058
vertex -198.903198077607 160.685853579836 22.2287330658741
endloop
endfacet
facet normal -3.89449012039826e-15 0.882679861224993 0.469974746755427
outer loop
vertex -172.703198077606 160.685853579836 22.2287330658741
vertex -198.903198077607 160.685853579836 22.2287330658741
vertex -171.153198077606 158.001174828105 27.2709441301325
endloop
endfacet
facet normal -3.89449012039826e-15 0.882679861224993 0.469974746755427
outer loop
vertex -171.153198077606 158.001174828105 27.2709441301325
vertex -198.903198077607 160.685853579836 22.2287330658741
vertex -200.453198077607 158.001174828105 27.2709441301326
endloop
endfacet
facet normal -3.89449012039826e-15 0.882679861224993 0.469974746755427
outer loop
vertex -171.153198077606 158.001174828105 27.2709441301325
vertex -200.453198077607 158.001174828105 27.2709441301326
vertex -168.341708020371 158.001174828105 27.2709441301325
endloop
endfacet
facet normal -3.89449012039826e-15 0.882679861224993 0.469974746755427
outer loop
vertex -168.341708020371 158.001174828105 27.2709441301325
vertex -200.453198077607 158.001174828105 27.2709441301326
vertex -174.451804352482 141.911408767234 57.4898283825305
endloop
endfacet
facet normal -3.89449012039826e-15 0.882679861224993 0.469974746755427
outer loop
vertex -205.803198077607 164.685853579836 14.7161603813318
vertex -166.714599221761 162.285853579836 19.223703992058
vertex -165.803198077606 164.685853579836 14.7161603813317
endloop
endfacet
facet normal -3.89449012039826e-15 0.882679861224993 0.469974746755427
outer loop
vertex -166.714599221761 162.285853579836 19.223703992058
vertex -205.803198077607 164.685853579836 14.7161603813318
vertex -171.779437646903 162.285853579836 19.223703992058
endloop
endfacet
facet normal -3.89449012039826e-15 0.882679861224993 0.469974746755427
outer loop
vertex -166.714599221761 162.285853579836 19.223703992058
vertex -171.779437646903 162.285853579836 19.223703992058
vertex -169.603198077606 162.285853579836 19.223703992058
endloop
endfacet
facet normal 0.866025403784445 -0.499999999999988 1.02418074021671e-14
outer loop
vertex -171.779437646903 162.285853579836 19.223703992058
vertex -172.703198077606 160.685853579836 22.2287330658741
vertex -172.703198077606 160.685853579836 19.223703992058
endloop
endfacet
facet normal -0.97272763746414 -0.0678157056586999 -0.221815178424395
outer loop
vertex -176.338892569339 140.643296095961 57.296404378949
vertex -167.257422212855 149.655179245804 14.7161603813318
vertex -176.339661932193 140.147130900335 57.4514711945756
endloop
endfacet
facet normal -0.97272763746414 -0.0678157056586999 -0.221815178424395
outer loop
vertex -167.257422212855 149.655179245804 14.7161603813318
vertex -176.338892569339 140.643296095961 57.296404378949
vertex -176.342360776937 140.676485037083 57.3014666561519
endloop
endfacet
facet normal 5.11928225965832e-15 -0.904539566114914 -0.426389696560134
outer loop
vertex -185.356925833042 141.201557779901 57.3815554955652
vertex -176.203198077606 161.313541332498 14.7161603813315
vertex -176.77530606232 141.201557779901 57.3815554955651
endloop
endfacet
facet normal -3.68838766615474e-16 0.298301617746215 0.954471657436716
outer loop
vertex -197.191096816096 138.646366898474 57.9205058967823
vertex -195.234666825586 139.664333360108 57.6023602085882
vertex -195.280756461953 139.897082981644 57.5296188253394
endloop
endfacet
facet normal -3.68838766615474e-16 0.298301617746215 0.954471657436716
outer loop
vertex -195.234666825586 139.664333360108 57.6023602085882
vertex -197.191096816096 138.646366898474 57.9205058967823
vertex -195.137203408669 139.461485723101 57.6657563061087
endloop
endfacet
facet normal -3.68838766615474e-16 0.298301617746215 0.954471657436716
outer loop
vertex -195.137203408669 139.461485723101 57.6657563061087
vertex -197.191096816096 138.646366898474 57.9205058967823
vertex -174.415299339116 138.646366898474 57.9205058967822
endloop
endfacet
facet normal -3.68838766615474e-16 0.298301617746215 0.954471657436716
outer loop
vertex -195.137203408669 139.461485723101 57.6657563061087
vertex -174.415299339116 138.646366898474 57.9205058967822
vertex -185.803198077606 139.461485723101 57.6657563061087
endloop
endfacet
facet normal -3.68838766615474e-16 0.298301617746215 0.954471657436716
outer loop
vertex -185.803198077606 139.461485723101 57.6657563061087
vertex -174.415299339116 138.646366898474 57.9205058967822
vertex -176.469192746544 139.461485723101 57.6657563061087
endloop
endfacet
facet normal -3.68838766615474e-16 0.298301617746215 0.954471657436716
outer loop
vertex -176.469192746544 139.461485723101 57.6657563061087
vertex -174.415299339116 138.646366898474 57.9205058967822
vertex -176.371729329626 139.664333360108 57.6023602085882
endloop
endfacet
facet normal -3.68838766615474e-16 0.298301617746215 0.954471657436716
outer loop
vertex -176.371729329626 139.664333360108 57.6023602085882
vertex -174.415299339116 138.646366898474 57.9205058967822
vertex -176.325639693259 139.897082981644 57.5296188253394
endloop
endfacet
facet normal -3.68838766615474e-16 0.298301617746215 0.954471657436716
outer loop
vertex -176.325639693259 139.897082981644 57.5296188253394
vertex -176.338892569339 140.643296095961 57.296404378949
vertex -176.339661932193 140.147130900335 57.4514711945756
endloop
endfacet
facet normal -3.68838766615474e-16 0.298301617746215 0.954471657436716
outer loop
vertex -176.338892569339 140.643296095961 57.296404378949
vertex -176.325639693259 139.897082981644 57.5296188253394
vertex -174.412695056289 140.643296095961 57.2964043789491
endloop
endfacet
facet normal -3.68838766615474e-16 0.298301617746215 0.954471657436716
outer loop
vertex -174.412695056289 140.643296095961 57.2964043789491
vertex -176.325639693259 139.897082981644 57.5296188253394
vertex -174.415299339116 138.646366898474 57.9205058967822
endloop
endfacet
facet normal -3.68838766615474e-16 0.298301617746215 0.954471657436716
outer loop
vertex -197.191096816096 138.646366898474 57.9205058967823
vertex -195.267503585874 140.643296095961 57.296404378949
vertex -197.193701098923 140.643296095961 57.2964043789491
endloop
endfacet
facet normal -3.68838766615474e-16 0.298301617746215 0.954471657436716
outer loop
vertex -195.267503585874 140.643296095961 57.296404378949
vertex -197.191096816096 138.646366898474 57.9205058967823
vertex -195.280756461953 139.897082981644 57.5296188253394
endloop
endfacet
facet normal -3.68838766615474e-16 0.298301617746215 0.954471657436716
outer loop
vertex -195.267503585874 140.643296095961 57.296404378949
vertex -195.280756461953 139.897082981644 57.5296188253394
vertex -195.266734223019 140.147130900335 57.4514711945757
endloop
endfacet
facet normal -2.30458141799162e-16 1.0 -6.74183931265526e-15
outer loop
vertex -168.053198077606 158.001174828105 19.223703992058
vertex -168.341708020371 158.001174828105 27.2709441301325
vertex -166.714599221761 158.001174828105 19.223703992058
endloop
endfacet
facet normal -2.30458141799162e-16 1.0 -6.74183931265526e-15
outer loop
vertex -168.341708020371 158.001174828105 27.2709441301325
vertex -168.053198077606 158.001174828105 19.223703992058
vertex -171.153198077606 158.001174828105 19.223703992058
endloop
endfacet
facet normal -2.30458141799162e-16 1.0 -6.74183931265526e-15
outer loop
vertex -168.341708020371 158.001174828105 27.2709441301325
vertex -171.153198077606 158.001174828105 19.223703992058
vertex -171.153198077606 158.001174828105 27.2709441301325
endloop
endfacet
facet normal -6.09918417514122e-15 0.994850456795012 -0.101353680815034
outer loop
vertex -185.803198077606 139.461485723101 57.6657563061087
vertex -171.141973963845 136.265576113607 26.2958829151028
vertex -185.803198077606 136.265576113607 26.2958829151027
endloop
endfacet
facet normal -6.09918417514122e-15 0.994850456795012 -0.101353680815034
outer loop
vertex -171.141973963845 136.265576113607 26.2958829151028
vertex -185.803198077606 139.461485723101 57.6657563061087
vertex -176.469192746544 139.461485723101 57.6657563061087
endloop
endfacet
facet normal 0.092820457648551 -0.985027256449516 0.145277894717172
outer loop
vertex -174.415299339116 138.646366898474 57.9205058967822
vertex -171.141973963845 133.94895241338 23.9792592148755
vertex -165.803198077605 133.085853579836 14.7161603813318
endloop
endfacet
facet normal 0.092820457648551 -0.985027256449516 0.145277894717172
outer loop
vertex -171.141973963845 133.94895241338 23.9792592148755
vertex -174.415299339116 138.646366898474 57.9205058967822
vertex -174.602557782513 138.62566856251 57.8998075608182
endloop
endfacet
facet normal -0.997367861010813 0.0512706047492832 -0.0512706047492904
outer loop
vertex -171.141973963845 136.265576113607 26.2958829151028
vertex -170.710164300901 133.085853579836 14.7161603813317
vertex -171.141973963845 133.94895241338 23.9792592148755
endloop
endfacet
facet normal -0.499999999999986 0.866025403784447 2.9338841097903e-14
outer loop
vertex -168.803198077606 159.300212933781 19.223703992058
vertex -168.471827227707 159.554482729937 14.7161603813317
vertex -168.803198077606 159.300212933781 14.7161603813317
endloop
endfacet
facet normal -0.707106781186517 0.707106781186578 3.44059501043164e-14
outer loop
vertex -168.471827227707 159.554482729937 14.7161603813317
vertex -168.803198077606 159.300212933781 19.223703992058
vertex -168.471827227707 159.554482729937 19.223703992058
endloop
endfacet
facet normal 0.86602540378447 0.499999999999946 -5.41704747370642e-15
outer loop
vertex -170.988838723661 159.885853579836 14.7161603813316
vertex -170.734568927504 159.554482729937 19.223703992058
vertex -170.734568927504 159.554482729937 14.7161603813318
endloop
endfacet
facet normal 0.707106781186703 0.707106781186392 1.36056076083788e-14
outer loop
vertex -170.734568927504 159.554482729937 19.223703992058
vertex -170.988838723661 159.885853579836 14.7161603813316
vertex -170.988838723661 159.885853579836 19.223703992058
endloop
endfacet
facet normal -0.258819045102554 -0.965925826289059 -1.09740703343304e-14
outer loop
vertex -169.189087605442 162.231334901898 14.7161603813317
vertex -169.603198077606 162.285853579836 19.223703992058
vertex -169.603198077606 162.285853579836 14.7161603813317
endloop
endfacet
facet normal -5.28428816811863e-15 -1.0 -7.19473488755833e-15
outer loop
vertex -169.603198077606 162.285853579836 19.223703992058
vertex -169.189087605442 162.231334901898 14.7161603813317
vertex -169.189087605442 162.231334901898 19.223703992058
endloop
endfacet
facet normal -0.866025403784424 -0.500000000000026 9.56031892646388e-15
outer loop
vertex -168.21755743155 161.485853579836 19.223703992058
vertex -168.057716755543 161.099964052 14.7161603813317
vertex -168.057716755543 161.099964052 19.223703992058
endloop
endfacet
facet normal -0.965925826289084 -0.258819045102461 2.65253358208572e-15
outer loop
vertex -168.057716755543 161.099964052 14.7161603813317
vertex -168.21755743155 161.485853579836 19.223703992058
vertex -168.21755743155 161.485853579836 14.7161603813318
endloop
endfacet
facet normal -5.28428816811863e-15 -1.0 -7.19473488755833e-15
outer loop
vertex -169.603198077606 162.285853579836 19.223703992058
vertex -170.01730854977 162.231334901898 14.7161603813317
vertex -169.603198077606 162.285853579836 14.7161603813317
endloop
endfacet
facet normal 0.258819045102502 -0.965925826289073 -1.18139226558347e-14
outer loop
vertex -170.01730854977 162.231334901898 14.7161603813317
vertex -169.603198077606 162.285853579836 19.223703992058
vertex -170.01730854977 162.231334901898 19.223703992058
endloop
endfacet
facet normal -0.965925826289108 0.258819045102371 -2.49506127180392e-14
outer loop
vertex -168.057716755543 160.271743107672 19.223703992058
vertex -168.21755743155 159.885853579836 14.7161603813317
vertex -168.21755743155 159.885853579836 19.223703992058
endloop
endfacet
facet normal -0.866025403784591 0.499999999999736 1.24578094356575e-14
outer loop
vertex -168.21755743155 159.885853579836 14.7161603813317
vertex -168.057716755543 160.271743107672 19.223703992058
vertex -168.057716755543 160.271743107672 14.7161603813317
endloop
endfacet
facet normal 0.970174295122486 0.127725869047955 -0.206028977232649
outer loop
vertex -204.348973942357 139.716527913867 14.7161603813317
vertex -195.280756461953 139.897082981644 57.5296188253394
vertex -195.234666825586 139.664333360108 57.6023602085882
endloop
endfacet
facet normal 0.970174295122486 0.127725869047955 -0.206028977232649
outer loop
vertex -195.280756461953 139.897082981644 57.5296188253394
vertex -204.348973942357 139.716527913867 14.7161603813317
vertex -205.003198077607 144.685853579836 14.7161603813318
endloop
endfacet
facet normal -0.500000000000158 0.866025403784347 3.39120761118397e-14
outer loop
vertex -201.203198077607 159.30021293378 19.2237039920581
vertex -200.871827227708 159.554482729937 14.7161603813318
vertex -201.203198077607 159.300212933781 14.7161603813317
endloop
endfacet
facet normal -0.707106781186711 0.707106781186384 1.26215674291202e-14
outer loop
vertex -200.871827227708 159.554482729937 14.7161603813318
vertex -201.203198077607 159.30021293378 19.2237039920581
vertex -200.871827227708 159.554482729937 19.223703992058
endloop
endfacet
facet normal 0.568654969251142 -0.741085584320376 -0.356964539777427
outer loop
vertex -194.831090092892 141.201557779901 57.3815554955652
vertex -199.379648276389 158.262303778619 14.7161603813316
vertex -195.403198077607 161.313541332498 14.7161603813315
endloop
endfacet
facet normal 0.568654969251142 -0.741085584320376 -0.356964539777427
outer loop
vertex -199.379648276389 158.262303778619 14.7161603813316
vertex -194.831090092892 141.201557779901 57.3815554955652
vertex -195.01802668247 141.067933637285 57.3611739338747
endloop
endfacet
facet normal 0.707106781186492 0.707106781186603 3.32501161103622e-14
outer loop
vertex -203.134568927505 159.554482729937 14.7161603813317
vertex -203.388838723662 159.885853579836 19.223703992058
vertex -203.134568927505 159.554482729937 19.223703992058
endloop
endfacet
facet normal 0.866025403784588 0.499999999999741 8.16396888450476e-15
outer loop
vertex -203.388838723662 159.885853579836 19.223703992058
vertex -203.134568927505 159.554482729937 14.7161603813317
vertex -203.388838723662 159.885853579836 14.7161603813317
endloop
endfacet
facet normal 1.97128150555107e-15 -0.150785105300373 0.988566564283638
outer loop
vertex -195.267503585874 140.643296095961 57.296404378949
vertex -197.154591802731 141.911408767233 57.4898283825305
vertex -197.193701098923 140.643296095961 57.2964043789491
endloop
endfacet
facet normal 1.97128150555107e-15 -0.150785105300373 0.988566564283638
outer loop
vertex -197.154591802731 141.911408767233 57.4898283825305
vertex -195.267503585874 140.643296095961 57.296404378949
vertex -195.264035378275 140.676485037083 57.3014666561519
endloop
endfacet
facet normal 1.97128150555107e-15 -0.150785105300373 0.988566564283638
outer loop
vertex -197.154591802731 141.911408767233 57.4898283825305
vertex -195.264035378275 140.676485037083 57.3014666561519
vertex -195.165889913555 140.889810355653 57.3340049613971
endloop
endfacet
facet normal 1.97128150555107e-15 -0.150785105300373 0.988566564283638
outer loop
vertex -197.154591802731 141.911408767233 57.4898283825305
vertex -195.165889913555 140.889810355653 57.3340049613971
vertex -195.01802668247 141.067933637285 57.3611739338747
endloop
endfacet
facet normal 1.97128150555107e-15 -0.150785105300373 0.988566564283638
outer loop
vertex -197.154591802731 141.911408767233 57.4898283825305
vertex -195.01802668247 141.067933637285 57.3611739338747
vertex -194.831090092892 141.201557779901 57.3815554955652
endloop
endfacet
facet normal 1.97128150555107e-15 -0.150785105300373 0.988566564283638
outer loop
vertex -197.154591802731 141.911408767233 57.4898283825305
vertex -194.831090092892 141.201557779901 57.3815554955652
vertex -174.451804352482 141.911408767234 57.4898283825305
endloop
endfacet
facet normal 1.97128150555107e-15 -0.150785105300373 0.988566564283638
outer loop
vertex -174.451804352482 141.911408767234 57.4898283825305
vertex -194.831090092892 141.201557779901 57.3815554955652
vertex -185.803198077606 141.312209874028 57.3984331528391
endloop
endfacet
facet normal 1.97128150555107e-15 -0.150785105300373 0.988566564283638
outer loop
vertex -185.803198077606 141.312209874028 57.3984331528391
vertex -194.831090092892 141.201557779901 57.3815554955652
vertex -186.032805027028 141.284238008037 57.3941666310779
endloop
endfacet
facet normal 1.97128150555107e-15 -0.150785105300373 0.988566564283638
outer loop
vertex -186.032805027028 141.284238008037 57.3941666310779
vertex -194.831090092892 141.201557779901 57.3815554955652
vertex -186.24947032217 141.201557779901 57.3815554955652
endloop
endfacet
facet normal 1.97128150555107e-15 -0.150785105300373 0.988566564283638
outer loop
vertex -174.451804352482 141.911408767234 57.4898283825305
vertex -185.803198077606 141.312209874028 57.3984331528391
vertex -185.573591128185 141.284238008037 57.3941666310779
endloop
endfacet
facet normal 1.97128150555107e-15 -0.150785105300373 0.988566564283638
outer loop
vertex -174.451804352482 141.911408767234 57.4898283825305
vertex -185.573591128185 141.284238008037 57.3941666310779
vertex -185.356925833042 141.201557779901 57.3815554955652
endloop
endfacet
facet normal 1.97128150555107e-15 -0.150785105300373 0.988566564283638
outer loop
vertex -174.451804352482 141.911408767234 57.4898283825305
vertex -185.356925833042 141.201557779901 57.3815554955652
vertex -176.77530606232 141.201557779901 57.3815554955651
endloop
endfacet
facet normal 1.97128150555107e-15 -0.150785105300373 0.988566564283638
outer loop
vertex -174.451804352482 141.911408767234 57.4898283825305
vertex -176.77530606232 141.201557779901 57.3815554955651
vertex -176.588369472742 141.067933637286 57.3611739338747
endloop
endfacet
facet normal 1.97128150555107e-15 -0.150785105300373 0.988566564283638
outer loop
vertex -174.451804352482 141.911408767234 57.4898283825305
vertex -176.588369472742 141.067933637286 57.3611739338747
vertex -176.440506241657 140.889810355653 57.3340049613971
endloop
endfacet
facet normal 1.97128150555107e-15 -0.150785105300373 0.988566564283638
outer loop
vertex -174.451804352482 141.911408767234 57.4898283825305
vertex -176.440506241657 140.889810355653 57.3340049613971
vertex -176.342360776937 140.676485037083 57.3014666561519
endloop
endfacet
facet normal 1.97128150555107e-15 -0.150785105300373 0.988566564283638
outer loop
vertex -174.451804352482 141.911408767234 57.4898283825305
vertex -176.342360776937 140.676485037083 57.3014666561519
vertex -176.338892569339 140.643296095961 57.296404378949
endloop
endfacet
facet normal 1.97128150555107e-15 -0.150785105300373 0.988566564283638
outer loop
vertex -174.451804352482 141.911408767234 57.4898283825305
vertex -176.338892569339 140.643296095961 57.296404378949
vertex -174.412695056289 140.643296095961 57.2964043789491
endloop
endfacet
facet normal 0.5 0.866025403784439 3.11173432591127e-14
outer loop
vertex -202.803198077607 159.30021293378 19.223703992058
vertex -202.417308549771 159.140372257773 14.7161603813317
vertex -202.803198077607 159.300212933781 14.7161603813317
endloop
endfacet
facet normal 0.258819045102435 0.965925826289091 3.03020831632946e-14
outer loop
vertex -202.417308549771 159.140372257773 14.7161603813317
vertex -202.803198077607 159.30021293378 19.223703992058
vertex -202.417308549771 159.140372257773 19.223703992058
endloop
endfacet
facet normal -0.980164820018892 -3.7793942866678e-15 0.198184069988821
outer loop
vertex -203.264688134841 158.001174828105 27.2709441301326
vertex -204.891796933452 158.001174828104 19.223703992058
vertex -197.154591802731 141.911408767233 57.4898283825305
endloop
endfacet
facet normal -0.980164820018892 -3.7793942866678e-15 0.198184069988821
outer loop
vertex -205.803198077607 133.085853579836 14.7161603813318
vertex -204.891796933452 158.001174828104 19.223703992058
vertex -205.803198077607 164.685853579836 14.7161603813318
endloop
endfacet
facet normal -0.980164820018892 -3.7793942866678e-15 0.198184069988821
outer loop
vertex -204.891796933452 158.001174828104 19.223703992058
vertex -205.803198077607 133.085853579836 14.7161603813318
vertex -197.193701098923 140.643296095961 57.2964043789491
endloop
endfacet
facet normal -0.980164820018892 -3.7793942866678e-15 0.198184069988821
outer loop
vertex -204.891796933452 158.001174828104 19.223703992058
vertex -197.193701098923 140.643296095961 57.2964043789491
vertex -197.154591802731 141.911408767233 57.4898283825305
endloop
endfacet
facet normal -0.980164820018892 -3.7793942866678e-15 0.198184069988821
outer loop
vertex -205.803198077607 164.685853579836 14.7161603813318
vertex -204.891796933452 158.001174828104 19.223703992058
vertex -204.891796933452 162.285853579836 19.223703992058
endloop
endfacet
facet normal 0.707106781186492 0.707106781186603 3.32501161103622e-14
outer loop
vertex -203.134568927505 159.554482729937 14.7161603813317
vertex -202.803198077607 159.30021293378 19.223703992058
vertex -202.803198077607 159.300212933781 14.7161603813317
endloop
endfacet
facet normal 0.5 0.866025403784439 3.11173432591127e-14
outer loop
vertex -202.803198077607 159.30021293378 19.223703992058
vertex -203.134568927505 159.554482729937 14.7161603813317
vertex -203.134568927505 159.554482729937 19.223703992058
endloop
endfacet
facet normal 0.964124094465546 -0.126929345020561 -0.23313873947425
outer loop
vertex -205.003198077607 144.685853579836 14.7161603813318
vertex -195.266734223019 140.147130900335 57.4514711945757
vertex -195.280756461953 139.897082981644 57.5296188253394
endloop
endfacet
facet normal 0.964124094465546 -0.126929345020561 -0.23313873947425
outer loop
vertex -195.266734223019 140.147130900335 57.4514711945757
vertex -205.003198077607 144.685853579836 14.7161603813318
vertex -204.348973942357 149.655179245804 14.7161603813318
endloop
endfacet
facet normal -0.707106781186709 0.707106781186386 1.26215674291205e-14
outer loop
vertex -200.871827227708 159.554482729937 19.223703992058
vertex -200.617557431552 159.885853579836 14.7161603813317
vertex -200.871827227708 159.554482729937 14.7161603813318
endloop
endfacet
facet normal -0.866025403784459 0.499999999999965 -3.03600899016029e-15
outer loop
vertex -200.617557431552 159.885853579836 14.7161603813317
vertex -200.871827227708 159.554482729937 19.223703992058
vertex -200.617557431552 159.885853579836 19.223703992058
endloop
endfacet
facet normal -0.0928204576485439 -0.985027256449516 0.145277894717172
outer loop
vertex -200.464422191367 133.94895241338 23.9792592148755
vertex -197.191096816096 138.646366898474 57.9205058967823
vertex -205.803198077607 133.085853579836 14.7161603813318
endloop
endfacet
facet normal -0.0928204576485439 -0.985027256449516 0.145277894717172
outer loop
vertex -197.191096816096 138.646366898474 57.9205058967823
vertex -200.464422191367 133.94895241338 23.9792592148755
vertex -197.003838372699 138.62566856251 57.8998075608182
endloop
endfacet
facet normal -3.36170074779984e-15 4.87260487665901e-15 1.0
outer loop
vertex -204.891796933452 162.285853579836 19.223703992058
vertex -202.417308549771 162.231334901898 19.223703992058
vertex -202.003198077607 162.285853579836 19.223703992058
endloop
endfacet
facet normal -3.36170074779984e-15 4.87260487665901e-15 1.0
outer loop
vertex -202.417308549771 162.231334901898 19.223703992058
vertex -204.891796933452 162.285853579836 19.223703992058
vertex -202.803198077607 162.071494225891 19.223703992058
endloop
endfacet
facet normal -3.36170074779984e-15 4.87260487665901e-15 1.0
outer loop
vertex -202.803198077607 162.071494225891 19.223703992058
vertex -204.891796933452 162.285853579836 19.223703992058
vertex -203.134568927505 161.817224429734 19.223703992058
endloop
endfacet
facet normal -3.36170074779984e-15 4.87260487665901e-15 1.0
outer loop
vertex -203.134568927505 161.817224429734 19.223703992058
vertex -204.891796933452 162.285853579836 19.223703992058
vertex -203.388838723662 161.485853579836 19.223703992058
endloop
endfacet
facet normal -3.36170074779984e-15 4.87260487665901e-15 1.0
outer loop
vertex -203.388838723662 161.485853579836 19.223703992058
vertex -204.891796933452 162.285853579836 19.223703992058
vertex -203.548679399669 161.099964052 19.223703992058
endloop
endfacet
facet normal -3.36170074779984e-15 4.87260487665901e-15 1.0
outer loop
vertex -203.548679399669 161.099964052 19.223703992058
vertex -204.891796933452 162.285853579836 19.223703992058
vertex -203.603198077607 160.685853579836 19.223703992058
endloop
endfacet
facet normal -3.36170074779984e-15 4.87260487665901e-15 1.0
outer loop
vertex -203.553198077607 158.001174828104 19.223703992058
vertex -204.891796933452 162.285853579836 19.223703992058
vertex -204.891796933452 158.001174828104 19.223703992058
endloop
endfacet
facet normal -3.36170074779984e-15 4.87260487665901e-15 1.0
outer loop
vertex -204.891796933452 162.285853579836 19.223703992058
vertex -203.553198077607 158.001174828104 19.223703992058
vertex -203.603198077607 160.685853579836 19.223703992058
endloop
endfacet
facet normal -3.36170074779984e-15 4.87260487665901e-15 1.0
outer loop
vertex -203.603198077607 160.685853579836 19.223703992058
vertex -203.553198077607 158.001174828104 19.223703992058
vertex -203.548679399669 160.271743107672 19.223703992058
endloop
endfacet
facet normal -3.36170074779984e-15 4.87260487665901e-15 1.0
outer loop
vertex -203.548679399669 160.271743107672 19.223703992058
vertex -203.553198077607 158.001174828104 19.223703992058
vertex -203.388838723662 159.885853579836 19.223703992058
endloop
endfacet
facet normal -3.36170074779984e-15 4.87260487665901e-15 1.0
outer loop
vertex -203.388838723662 159.885853579836 19.223703992058
vertex -203.553198077607 158.001174828104 19.223703992058
vertex -203.134568927505 159.554482729937 19.223703992058
endloop
endfacet
facet normal -3.36170074779984e-15 4.87260487665901e-15 1.0
outer loop
vertex -203.134568927505 159.554482729937 19.223703992058
vertex -203.553198077607 158.001174828104 19.223703992058
vertex -202.803198077607 159.30021293378 19.223703992058
endloop
endfacet
facet normal -3.36170074779984e-15 4.87260487665901e-15 1.0
outer loop
vertex -202.803198077607 159.30021293378 19.223703992058
vertex -203.553198077607 158.001174828104 19.223703992058
vertex -200.453198077607 158.001174828104 19.223703992058
endloop
endfacet
facet normal -3.36170074779984e-15 4.87260487665901e-15 1.0
outer loop
vertex -202.803198077607 159.30021293378 19.223703992058
vertex -200.453198077607 158.001174828104 19.223703992058
vertex -202.417308549771 159.140372257773 19.223703992058
endloop
endfacet
facet normal -3.36170074779984e-15 4.87260487665901e-15 1.0
outer loop
vertex -202.417308549771 159.140372257773 19.223703992058
vertex -200.453198077607 158.001174828104 19.223703992058
vertex -202.003198077607 159.085853579836 19.223703992058
endloop
endfacet
facet normal -3.36170074779984e-15 4.87260487665901e-15 1.0
outer loop
vertex -202.003198077607 159.085853579836 19.223703992058
vertex -200.453198077607 158.001174828104 19.223703992058
vertex -201.589087605443 159.140372257773 19.223703992058
endloop
endfacet
facet normal -3.36170074779984e-15 4.87260487665901e-15 1.0
outer loop
vertex -201.589087605443 159.140372257773 19.223703992058
vertex -200.453198077607 158.001174828104 19.223703992058
vertex -201.203198077607 159.30021293378 19.2237039920581
endloop
endfacet
facet normal -3.36170074779984e-15 4.87260487665901e-15 1.0
outer loop
vertex -201.203198077607 159.30021293378 19.2237039920581
vertex -200.453198077607 158.001174828104 19.223703992058
vertex -200.871827227708 159.554482729937 19.223703992058
endloop
endfacet
facet normal -3.36170074779984e-15 4.87260487665901e-15 1.0
outer loop
vertex -200.871827227708 159.554482729937 19.223703992058
vertex -200.453198077607 158.001174828104 19.223703992058
vertex -200.617557431552 159.885853579836 19.223703992058
endloop
endfacet
facet normal -3.36170074779984e-15 4.87260487665901e-15 1.0
outer loop
vertex -200.617557431552 159.885853579836 19.223703992058
vertex -200.453198077607 158.001174828104 19.223703992058
vertex -200.457716755544 160.271743107672 19.223703992058
endloop
endfacet
facet normal -3.36170074779984e-15 4.87260487665901e-15 1.0
outer loop
vertex -200.457716755544 160.271743107672 19.223703992058
vertex -200.453198077607 158.001174828104 19.223703992058
vertex -200.403198077607 160.685853579836 19.223703992058
endloop
endfacet
facet normal -3.36170074779984e-15 4.87260487665901e-15 1.0
outer loop
vertex -200.403198077607 160.685853579836 19.223703992058
vertex -200.453198077607 158.001174828104 19.223703992058
vertex -198.903198077607 160.685853579836 19.223703992058
endloop
endfacet
facet normal -3.36170074779984e-15 4.87260487665901e-15 1.0
outer loop
vertex -200.403198077607 160.685853579836 19.223703992058
vertex -198.903198077607 160.685853579836 19.223703992058
vertex -199.82695850831 162.285853579836 19.223703992058
endloop
endfacet
facet normal -3.36170074779984e-15 4.87260487665901e-15 1.0
outer loop
vertex -201.589087605443 162.231334901898 19.223703992058
vertex -199.82695850831 162.285853579836 19.223703992058
vertex -202.003198077607 162.285853579836 19.223703992058
endloop
endfacet
facet normal -3.36170074779984e-15 4.87260487665901e-15 1.0
outer loop
vertex -199.82695850831 162.285853579836 19.223703992058
vertex -201.589087605443 162.231334901898 19.223703992058
vertex -201.203198077607 162.071494225891 19.223703992058
endloop
endfacet
facet normal -3.36170074779984e-15 4.87260487665901e-15 1.0
outer loop
vertex -199.82695850831 162.285853579836 19.223703992058
vertex -201.203198077607 162.071494225891 19.223703992058
vertex -200.871827227708 161.817224429734 19.223703992058
endloop
endfacet
facet normal -3.36170074779984e-15 4.87260487665901e-15 1.0
outer loop
vertex -199.82695850831 162.285853579836 19.223703992058
vertex -200.871827227708 161.817224429734 19.223703992058
vertex -200.617557431552 161.485853579836 19.223703992058
endloop
endfacet
facet normal -3.36170074779984e-15 4.87260487665901e-15 1.0
outer loop
vertex -199.82695850831 162.285853579836 19.223703992058
vertex -200.617557431552 161.485853579836 19.223703992058
vertex -200.457716755544 161.099964052 19.223703992058
endloop
endfacet
facet normal -3.36170074779984e-15 4.87260487665901e-15 1.0
outer loop
vertex -199.82695850831 162.285853579836 19.223703992058
vertex -200.457716755544 161.099964052 19.223703992058
vertex -200.403198077607 160.685853579836 19.223703992058
endloop
endfacet
facet normal 0.258819045102629 -0.965925826289039 -3.04552325398267e-14
outer loop
vertex -202.417308549771 162.231334901898 14.7161603813317
vertex -202.803198077607 162.071494225891 19.223703992058
vertex -202.803198077607 162.071494225891 14.7161603813317
endloop
endfacet
facet normal 0.499999999999919 -0.866025403784485 -2.9937579895839e-14
outer loop
vertex -202.803198077607 162.071494225891 19.223703992058
vertex -202.417308549771 162.231334901898 14.7161603813317
vertex -202.417308549771 162.231334901898 19.223703992058
endloop
endfacet
facet normal -0.707106781186512 -0.707106781186583 -3.98607992616769e-14
outer loop
vertex -200.871827227708 161.817224429734 19.223703992058
vertex -200.617557431552 161.485853579836 14.7161603813318
vertex -200.617557431552 161.485853579836 19.223703992058
endloop
endfacet
facet normal -0.866025403784347 -0.500000000000158 -1.87268123638109e-14
outer loop
vertex -200.617557431552 161.485853579836 14.7161603813318
vertex -200.871827227708 161.817224429734 19.223703992058
vertex -200.871827227708 161.817224429734 14.7161603813318
endloop
endfacet
facet normal 0.980164820018892 5.67291344227453e-15 0.198184069988821
outer loop
vertex -165.803198077605 133.085853579836 14.7161603813318
vertex -166.714599221761 158.001174828105 19.223703992058
vertex -174.412695056289 140.643296095961 57.2964043789491
endloop
endfacet
facet normal 0.980164820018892 5.67291344227453e-15 0.198184069988821
outer loop
vertex -166.714599221761 158.001174828105 19.223703992058
vertex -165.803198077605 133.085853579836 14.7161603813318
vertex -165.803198077606 164.685853579836 14.7161603813317
endloop
endfacet
facet normal 0.980164820018892 5.67291344227453e-15 0.198184069988821
outer loop
vertex -174.412695056289 140.643296095961 57.2964043789491
vertex -166.714599221761 158.001174828105 19.223703992058
vertex -174.451804352482 141.911408767234 57.4898283825305
endloop
endfacet
facet normal 0.980164820018892 5.67291344227453e-15 0.198184069988821
outer loop
vertex -166.714599221761 158.001174828105 19.223703992058
vertex -165.803198077606 164.685853579836 14.7161603813317
vertex -166.714599221761 162.285853579836 19.223703992058
endloop
endfacet
facet normal 0.980164820018892 5.67291344227453e-15 0.198184069988821
outer loop
vertex -168.341708020371 158.001174828105 27.2709441301325
vertex -174.451804352482 141.911408767234 57.4898283825305
vertex -166.714599221761 158.001174828105 19.223703992058
endloop
endfacet
facet normal -0.33985505733872 -0.820482688668259 -0.459681082487631
outer loop
vertex -185.356925833042 141.201557779901 57.3815554955652
vertex -180.833872411638 163.231629444587 14.7161603813315
vertex -176.203198077606 161.313541332498 14.7161603813315
endloop
endfacet
facet normal -0.33985505733872 -0.820482688668259 -0.459681082487631
outer loop
vertex -180.833872411638 163.231629444587 14.7161603813315
vertex -185.356925833042 141.201557779901 57.3815554955652
vertex -185.573591128185 141.284238008037 57.3941666310779
endloop
endfacet
facet normal 0.9659258262891 0.258819045102402 -2.4600655105454e-14
outer loop
vertex -203.548679399669 160.271743107672 14.7161603813318
vertex -203.388838723662 159.885853579836 19.223703992058
vertex -203.388838723662 159.885853579836 14.7161603813317
endloop
endfacet
facet normal 0.866025403784588 0.499999999999741 8.16396888450476e-15
outer loop
vertex -203.388838723662 159.885853579836 19.223703992058
vertex -203.548679399669 160.271743107672 14.7161603813318
vertex -203.548679399669 160.271743107672 19.223703992058
endloop
endfacet
facet normal 0.972727637464198 -0.0678157056582697 -0.221815178424269
outer loop
vertex -204.348973942357 149.655179245804 14.7161603813318
vertex -195.267503585874 140.643296095961 57.296404378949
vertex -195.266734223019 140.147130900335 57.4514711945757
endloop
endfacet
facet normal 0.972727637464198 -0.0678157056582697 -0.221815178424269
outer loop
vertex -195.267503585874 140.643296095961 57.296404378949
vertex -204.348973942357 149.655179245804 14.7161603813318
vertex -195.264035378275 140.676485037083 57.3014666561519
endloop
endfacet
facet normal -0.964124094465545 -0.126929345020575 -0.233138739474247
outer loop
vertex -176.339661932193 140.147130900335 57.4514711945756
vertex -166.603198077605 144.685853579836 14.7161603813317
vertex -176.325639693259 139.897082981644 57.5296188253394
endloop
endfacet
facet normal -0.964124094465545 -0.126929345020575 -0.233138739474247
outer loop
vertex -166.603198077605 144.685853579836 14.7161603813317
vertex -176.339661932193 140.147130900335 57.4514711945756
vertex -167.257422212855 149.655179245804 14.7161603813318
endloop
endfacet
facet normal 0.906649645783485 0.375546579604293 -0.192226913693681
outer loop
vertex -204.348973942357 139.716527913867 14.7161603813317
vertex -200.464422191367 136.265576113607 26.2958829151028
vertex -202.430885830268 135.085853579835 14.7161603813319
endloop
endfacet
facet normal 0.906649645783485 0.375546579604293 -0.192226913693681
outer loop
vertex -200.464422191367 136.265576113607 26.2958829151028
vertex -204.348973942357 139.716527913867 14.7161603813317
vertex -195.137203408669 139.461485723101 57.6657563061087
endloop
endfacet
facet normal 0.906649645783485 0.375546579604293 -0.192226913693681
outer loop
vertex -195.137203408669 139.461485723101 57.6657563061087
vertex -204.348973942357 139.716527913867 14.7161603813317
vertex -195.234666825586 139.664333360108 57.6023602085882
endloop
endfacet
facet normal -4.35538921006043e-15 0.707106781186523 -0.707106781186572
outer loop
vertex -185.803198077606 136.265576113607 26.2958829151027
vertex -200.464422191367 133.94895241338 23.9792592148755
vertex -200.464422191367 136.265576113607 26.2958829151028
endloop
endfacet
facet normal -4.35538921006043e-15 0.707106781186523 -0.707106781186572
outer loop
vertex -200.464422191367 133.94895241338 23.9792592148755
vertex -185.803198077606 136.265576113607 26.2958829151027
vertex -185.803198077606 133.94895241338 23.9792592148755
endloop
endfacet
facet normal 0.866025403784423 -0.500000000000027 1.15458637796562e-14
outer loop
vertex -203.388838723662 161.485853579836 14.7161603813318
vertex -203.548679399669 161.099964052 19.223703992058
vertex -203.548679399669 161.099964052 14.7161603813317
endloop
endfacet
facet normal 0.965925826289065 -0.258819045102533 3.86356383018522e-15
outer loop
vertex -203.548679399669 161.099964052 19.223703992058
vertex -203.388838723662 161.485853579836 14.7161603813318
vertex -203.388838723662 161.485853579836 19.223703992058
endloop
endfacet
facet normal 0.778430183347902 0.597310487940289 -0.193045669854272
outer loop
vertex -200.464422191367 136.265576113607 26.2958829151028
vertex -200.896231854311 133.085853579836 14.7161603813317
vertex -202.430885830268 135.085853579835 14.7161603813319
endloop
endfacet
facet normal 0.70710678118639 -0.707106781186705 -2.46849728134309e-15
outer loop
vertex -203.134568927505 161.817224429734 14.7161603813317
vertex -203.388838723662 161.485853579836 19.223703992058
vertex -203.388838723662 161.485853579836 14.7161603813318
endloop
endfacet
facet normal 0.866025403784425 -0.500000000000024 1.15458637796561e-14
outer loop
vertex -203.388838723662 161.485853579836 19.223703992058
vertex -203.134568927505 161.817224429734 14.7161603813317
vertex -203.134568927505 161.817224429734 19.223703992058
endloop
endfacet
facet normal -0.965925826289054 -0.258819045102574 1.16173472957217e-14
outer loop
vertex -200.457716755544 161.099964052 19.223703992058
vertex -200.403198077607 160.685853579836 14.7161603813318
vertex -200.403198077607 160.685853579836 19.223703992058
endloop
endfacet
facet normal -1.0 1.33800315083138e-13 1.21830547181415e-14
outer loop
vertex -200.403198077607 160.685853579836 14.7161603813318
vertex -200.457716755544 161.099964052 19.223703992058
vertex -200.457716755544 161.099964052 14.7161603813318
endloop
endfacet
facet normal -8.85850187505522e-15 1.0 -9.99491631086118e-15
outer loop
vertex -203.264688134841 158.001174828105 27.2709441301326
vertex -203.553198077607 158.001174828104 19.223703992058
vertex -204.891796933452 158.001174828104 19.223703992058
endloop
endfacet
facet normal -8.85850187505522e-15 1.0 -9.99491631086118e-15
outer loop
vertex -203.553198077607 158.001174828104 19.223703992058
vertex -200.453198077607 158.001174828105 27.2709441301326
vertex -200.453198077607 158.001174828104 19.223703992058
endloop
endfacet
facet normal -8.85850187505522e-15 1.0 -9.99491631086118e-15
outer loop
vertex -200.453198077607 158.001174828105 27.2709441301326
vertex -203.553198077607 158.001174828104 19.223703992058
vertex -203.264688134841 158.001174828105 27.2709441301326
endloop
endfacet
facet normal -0.258819045102531 -0.965925826289065 -2.9059216508616e-14
outer loop
vertex -201.589087605443 162.231334901898 14.7161603813317
vertex -202.003198077607 162.285853579836 19.223703992058
vertex -202.003198077607 162.285853579836 14.7161603813317
endloop
endfacet
facet normal -6.78135463058743e-15 -1.0 -1.81759601706142e-14
outer loop
vertex -202.003198077607 162.285853579836 19.223703992058
vertex -201.589087605443 162.231334901898 14.7161603813317
vertex -201.589087605443 162.231334901898 19.223703992058
endloop
endfacet
facet normal 2.56088594123348e-15 -0.995687175123994 0.092774184413552
outer loop
vertex -200.464422191367 133.94895241338 23.9792592148755
vertex -205.803198077607 133.085853579836 14.7161603813318
vertex -200.896231854311 133.085853579836 14.7161603813317
endloop
endfacet
facet normal 7.88633225764723e-15 1.0 3.3190904161574e-14
outer loop
vertex -202.003198077607 159.085853579836 19.223703992058
vertex -201.589087605443 159.140372257773 14.7161603813317
vertex -202.003198077607 159.085853579836 14.7161603813316
endloop
endfacet
facet normal -0.258819045102392 0.965925826289103 3.89995437898042e-14
outer loop
vertex -201.589087605443 159.140372257773 14.7161603813317
vertex -202.003198077607 159.085853579836 19.223703992058
vertex -201.589087605443 159.140372257773 19.223703992058
endloop
endfacet
facet normal -0.866025403784348 -0.500000000000157 -1.87268123638107e-14
outer loop
vertex -200.617557431552 161.485853579836 19.223703992058
vertex -200.457716755544 161.099964052 14.7161603813318
vertex -200.457716755544 161.099964052 19.223703992058
endloop
endfacet
facet normal -0.965925826289053 -0.258819045102577 1.16173472957213e-14
outer loop
vertex -200.457716755544 161.099964052 14.7161603813318
vertex -200.617557431552 161.485853579836 19.223703992058
vertex -200.617557431552 161.485853579836 14.7161603813318
endloop
endfacet
facet normal -0.866025403784457 0.499999999999969 -3.03600899016018e-15
outer loop
vertex -200.617557431552 159.885853579836 19.223703992058
vertex -200.457716755544 160.271743107672 14.7161603813317
vertex -200.617557431552 159.885853579836 14.7161603813317
endloop
endfacet
facet normal -0.965925826289076 0.258819045102491 -2.89811834589165e-15
outer loop
vertex -200.457716755544 160.271743107672 14.7161603813317
vertex -200.617557431552 159.885853579836 19.223703992058
vertex -200.457716755544 160.271743107672 19.223703992058
endloop
endfacet
facet normal 1.0 1.59517778241995e-13 -1.56736729676526e-14
outer loop
vertex -203.603198077607 160.685853579836 14.7161603813317
vertex -203.548679399669 160.271743107672 19.223703992058
vertex -203.548679399669 160.271743107672 14.7161603813318
endloop
endfacet
facet normal 0.965925826289101 0.258819045102401 -2.46006551054541e-14
outer loop
vertex -203.548679399669 160.271743107672 19.223703992058
vertex -203.603198077607 160.685853579836 14.7161603813317
vertex -203.603198077607 160.685853579836 19.223703992058
endloop
endfacet
facet normal 0.754152059632594 -0.578681228395979 -0.310455643939737
outer loop
vertex -202.430885830268 154.285853579837 14.7161603813316
vertex -195.01802668247 141.067933637285 57.3611739338747
vertex -195.165889913555 140.889810355653 57.3340049613971
endloop
endfacet
facet normal 0.754152059632594 -0.578681228395979 -0.310455643939737
outer loop
vertex -195.01802668247 141.067933637285 57.3611739338747
vertex -202.430885830268 154.285853579837 14.7161603813316
vertex -199.379648276389 158.262303778619 14.7161603813316
endloop
endfacet
facet normal 9.25372416638397e-16 -3.41796215808622e-15 -1.0
outer loop
vertex -205.803198077607 164.685853579836 14.7161603813318
vertex -205.003198077607 144.685853579836 14.7161603813318
vertex -205.803198077607 133.085853579836 14.7161603813318
endloop
endfacet
facet normal 9.25372416638397e-16 -3.41796215808622e-15 -1.0
outer loop
vertex -205.003198077607 144.685853579836 14.7161603813318
vertex -205.803198077607 164.685853579836 14.7161603813318
vertex -203.603198077607 160.685853579836 14.7161603813317
endloop
endfacet
facet normal 9.25372416638397e-16 -3.41796215808622e-15 -1.0
outer loop
vertex -203.603198077607 160.685853579836 14.7161603813317
vertex -205.803198077607 164.685853579836 14.7161603813318
vertex -203.548679399669 161.099964052 14.7161603813317
endloop
endfacet
facet normal 9.25372416638397e-16 -3.41796215808622e-15 -1.0
outer loop
vertex -203.548679399669 161.099964052 14.7161603813317
vertex -205.803198077607 164.685853579836 14.7161603813318
vertex -203.388838723662 161.485853579836 14.7161603813318
endloop
endfacet
facet normal 9.25372416638397e-16 -3.41796215808622e-15 -1.0
outer loop
vertex -203.388838723662 161.485853579836 14.7161603813318
vertex -205.803198077607 164.685853579836 14.7161603813318
vertex -203.134568927505 161.817224429734 14.7161603813317
endloop
endfacet
facet normal 9.25372416638397e-16 -3.41796215808622e-15 -1.0
outer loop
vertex -203.134568927505 161.817224429734 14.7161603813317
vertex -205.803198077607 164.685853579836 14.7161603813318
vertex -202.803198077607 162.071494225891 14.7161603813317
endloop
endfacet
facet normal 9.25372416638397e-16 -3.41796215808622e-15 -1.0
outer loop
vertex -202.803198077607 162.071494225891 14.7161603813317
vertex -205.803198077607 164.685853579836 14.7161603813318
vertex -202.417308549771 162.231334901898 14.7161603813317
endloop
endfacet
facet normal 9.25372416638397e-16 -3.41796215808622e-15 -1.0
outer loop
vertex -202.417308549771 162.231334901898 14.7161603813317
vertex -205.803198077607 164.685853579836 14.7161603813318
vertex -202.003198077607 162.285853579836 14.7161603813317
endloop
endfacet
facet normal 9.25372416638397e-16 -3.41796215808622e-15 -1.0
outer loop
vertex -202.003198077607 162.285853579836 14.7161603813317
vertex -205.803198077607 164.685853579836 14.7161603813318
vertex -185.803198077606 163.885853579837 14.7161603813317
endloop
endfacet
facet normal 9.25372416638397e-16 -3.41796215808622e-15 -1.0
outer loop
vertex -185.803198077606 163.885853579837 14.7161603813317
vertex -205.803198077607 164.685853579836 14.7161603813318
vertex -165.803198077606 164.685853579836 14.7161603813317
endloop
endfacet
facet normal 9.25372416638397e-16 -3.41796215808622e-15 -1.0
outer loop
vertex -205.003198077607 144.685853579836 14.7161603813318
vertex -203.603198077607 160.685853579836 14.7161603813317
vertex -204.348973942357 149.655179245804 14.7161603813318
endloop
endfacet
facet normal 9.25372416638397e-16 -3.41796215808622e-15 -1.0
outer loop
vertex -202.003198077607 162.285853579836 14.7161603813317
vertex -185.803198077606 163.885853579837 14.7161603813317
vertex -201.589087605443 162.231334901898 14.7161603813317
endloop
endfacet
facet normal 9.25372416638397e-16 -3.41796215808622e-15 -1.0
outer loop
vertex -201.589087605443 162.231334901898 14.7161603813317
vertex -185.803198077606 163.885853579837 14.7161603813317
vertex -201.203198077607 162.071494225891 14.7161603813318
endloop
endfacet
facet normal 9.25372416638397e-16 -3.41796215808622e-15 -1.0
outer loop
vertex -201.203198077607 162.071494225891 14.7161603813318
vertex -185.803198077606 163.885853579837 14.7161603813317
vertex -190.772523743575 163.231629444587 14.7161603813315
endloop
endfacet
facet normal 9.25372416638397e-16 -3.41796215808622e-15 -1.0
outer loop
vertex -201.203198077607 162.071494225891 14.7161603813318
vertex -190.772523743575 163.231629444587 14.7161603813315
vertex -200.871827227708 161.817224429734 14.7161603813318
endloop
endfacet
facet normal 9.25372416638397e-16 -3.41796215808622e-15 -1.0
outer loop
vertex -200.871827227708 161.817224429734 14.7161603813318
vertex -190.772523743575 163.231629444587 14.7161603813315
vertex -200.617557431552 161.485853579836 14.7161603813318
endloop
endfacet
facet normal 9.25372416638397e-16 -3.41796215808622e-15 -1.0
outer loop
vertex -200.617557431552 161.485853579836 14.7161603813318
vertex -190.772523743575 163.231629444587 14.7161603813315
vertex -200.457716755544 161.099964052 14.7161603813318
endloop
endfacet
facet normal 9.25372416638397e-16 -3.41796215808622e-15 -1.0
outer loop
vertex -200.457716755544 161.099964052 14.7161603813318
vertex -190.772523743575 163.231629444587 14.7161603813315
vertex -200.403198077607 160.685853579836 14.7161603813318
endloop
endfacet
facet normal 9.25372416638397e-16 -3.41796215808622e-15 -1.0
outer loop
vertex -200.403198077607 160.685853579836 14.7161603813318
vertex -190.772523743575 163.231629444587 14.7161603813315
vertex -195.403198077607 161.313541332498 14.7161603813315
endloop
endfacet
facet normal 9.25372416638397e-16 -3.41796215808622e-15 -1.0
outer loop
vertex -200.403198077607 160.685853579836 14.7161603813318
vertex -195.403198077607 161.313541332498 14.7161603813315
vertex -199.379648276389 158.262303778619 14.7161603813316
endloop
endfacet
facet normal 9.25372416638397e-16 -3.41796215808622e-15 -1.0
outer loop
vertex -185.803198077606 163.885853579837 14.7161603813317
vertex -165.803198077606 164.685853579836 14.7161603813317
vertex -180.833872411638 163.231629444587 14.7161603813315
endloop
endfacet
facet normal 9.25372416638397e-16 -3.41796215808622e-15 -1.0
outer loop
vertex -180.833872411638 163.231629444587 14.7161603813315
vertex -165.803198077606 164.685853579836 14.7161603813317
vertex -176.203198077606 161.313541332498 14.7161603813315
endloop
endfacet
facet normal 9.25372416638397e-16 -3.41796215808622e-15 -1.0
outer loop
vertex -176.203198077606 161.313541332498 14.7161603813315
vertex -165.803198077606 164.685853579836 14.7161603813317
vertex -170.403198077606 162.071494225891 14.7161603813318
endloop
endfacet
facet normal 9.25372416638397e-16 -3.41796215808622e-15 -1.0
outer loop
vertex -176.203198077606 161.313541332498 14.7161603813315
vertex -170.403198077606 162.071494225891 14.7161603813318
vertex -170.734568927504 161.817224429734 14.7161603813318
endloop
endfacet
facet normal 9.25372416638397e-16 -3.41796215808622e-15 -1.0
outer loop
vertex -176.203198077606 161.313541332498 14.7161603813315
vertex -170.734568927504 161.817224429734 14.7161603813318
vertex -170.988838723661 161.485853579836 14.7161603813318
endloop
endfacet
facet normal 9.25372416638397e-16 -3.41796215808622e-15 -1.0
outer loop
vertex -176.203198077606 161.313541332498 14.7161603813315
vertex -170.988838723661 161.485853579836 14.7161603813318
vertex -171.148679399668 161.099964052 14.7161603813318
endloop
endfacet
facet normal 9.25372416638397e-16 -3.41796215808622e-15 -1.0
outer loop
vertex -176.203198077606 161.313541332498 14.7161603813315
vertex -171.148679399668 161.099964052 14.7161603813318
vertex -172.226747878824 158.262303778619 14.7161603813316
endloop
endfacet
facet normal 9.25372416638397e-16 -3.41796215808622e-15 -1.0
outer loop
vertex -172.226747878824 158.262303778619 14.7161603813316
vertex -171.148679399668 161.099964052 14.7161603813318
vertex -171.203198077606 160.685853579836 14.7161603813317
endloop
endfacet
facet normal 9.25372416638397e-16 -3.41796215808622e-15 -1.0
outer loop
vertex -170.403198077606 162.071494225891 14.7161603813318
vertex -165.803198077606 164.685853579836 14.7161603813317
vertex -170.01730854977 162.231334901898 14.7161603813317
endloop
endfacet
facet normal 9.25372416638397e-16 -3.41796215808622e-15 -1.0
outer loop
vertex -170.01730854977 162.231334901898 14.7161603813317
vertex -165.803198077606 164.685853579836 14.7161603813317
vertex -169.603198077606 162.285853579836 14.7161603813317
endloop
endfacet
facet normal 9.25372416638397e-16 -3.41796215808622e-15 -1.0
outer loop
vertex -169.603198077606 162.285853579836 14.7161603813317
vertex -165.803198077606 164.685853579836 14.7161603813317
vertex -169.189087605442 162.231334901898 14.7161603813317
endloop
endfacet
facet normal 9.25372416638397e-16 -3.41796215808622e-15 -1.0
outer loop
vertex -169.189087605442 162.231334901898 14.7161603813317
vertex -165.803198077606 164.685853579836 14.7161603813317
vertex -168.803198077606 162.071494225891 14.7161603813317
endloop
endfacet
facet normal 9.25372416638397e-16 -3.41796215808622e-15 -1.0
outer loop
vertex -168.803198077606 162.071494225891 14.7161603813317
vertex -165.803198077606 164.685853579836 14.7161603813317
vertex -168.471827227707 161.817224429734 14.7161603813317
endloop
endfacet
facet normal 9.25372416638397e-16 -3.41796215808622e-15 -1.0
outer loop
vertex -168.471827227707 161.817224429734 14.7161603813317
vertex -165.803198077606 164.685853579836 14.7161603813317
vertex -168.21755743155 161.485853579836 14.7161603813318
endloop
endfacet
facet normal 9.25372416638397e-16 -3.41796215808622e-15 -1.0
outer loop
vertex -168.21755743155 161.485853579836 14.7161603813318
vertex -165.803198077606 164.685853579836 14.7161603813317
vertex -168.057716755543 161.099964052 14.7161603813317
endloop
endfacet
facet normal 9.25372416638397e-16 -3.41796215808622e-15 -1.0
outer loop
vertex -168.057716755543 161.099964052 14.7161603813317
vertex -165.803198077606 164.685853579836 14.7161603813317
vertex -168.003198077606 160.685853579836 14.7161603813317
endloop
endfacet
facet normal 9.25372416638397e-16 -3.41796215808622e-15 -1.0
outer loop
vertex -168.003198077606 160.685853579836 14.7161603813317
vertex -165.803198077606 164.685853579836 14.7161603813317
vertex -167.257422212855 149.655179245804 14.7161603813318
endloop
endfacet
facet normal 9.25372416638397e-16 -3.41796215808622e-15 -1.0
outer loop
vertex -167.257422212855 149.655179245804 14.7161603813318
vertex -165.803198077606 164.685853579836 14.7161603813317
vertex -166.603198077605 144.685853579836 14.7161603813317
endloop
endfacet
facet normal 9.25372416638397e-16 -3.41796215808622e-15 -1.0
outer loop
vertex -169.175510324944 135.085853579835 14.7161603813318
vertex -165.803198077605 133.085853579836 14.7161603813318
vertex -170.710164300901 133.085853579836 14.7161603813317
endloop
endfacet
facet normal 9.25372416638397e-16 -3.41796215808622e-15 -1.0
outer loop
vertex -165.803198077605 133.085853579836 14.7161603813318
vertex -169.175510324944 135.085853579835 14.7161603813318
vertex -167.257422212855 139.716527913868 14.7161603813317
endloop
endfacet
facet normal 9.25372416638397e-16 -3.41796215808622e-15 -1.0
outer loop
vertex -165.803198077605 133.085853579836 14.7161603813318
vertex -167.257422212855 139.716527913868 14.7161603813317
vertex -166.603198077605 144.685853579836 14.7161603813317
endloop
endfacet
facet normal 9.25372416638397e-16 -3.41796215808622e-15 -1.0
outer loop
vertex -165.803198077605 133.085853579836 14.7161603813318
vertex -166.603198077605 144.685853579836 14.7161603813317
vertex -165.803198077606 164.685853579836 14.7161603813317
endloop
endfacet
facet normal 9.25372416638397e-16 -3.41796215808622e-15 -1.0
outer loop
vertex -172.226747878824 158.262303778619 14.7161603813316
vertex -171.148679399668 160.271743107672 14.7161603813317
vertex -169.175510324944 154.285853579837 14.7161603813315
endloop
endfacet
facet normal 9.25372416638397e-16 -3.41796215808622e-15 -1.0
outer loop
vertex -171.148679399668 160.271743107672 14.7161603813317
vertex -172.226747878824 158.262303778619 14.7161603813316
vertex -171.203198077606 160.685853579836 14.7161603813317
endloop
endfacet
facet normal 9.25372416638397e-16 -3.41796215808622e-15 -1.0
outer loop
vertex -169.175510324944 154.285853579837 14.7161603813315
vertex -171.148679399668 160.271743107672 14.7161603813317
vertex -170.988838723661 159.885853579836 14.7161603813316
endloop
endfacet
facet normal 9.25372416638397e-16 -3.41796215808622e-15 -1.0
outer loop
vertex -169.175510324944 154.285853579837 14.7161603813315
vertex -170.988838723661 159.885853579836 14.7161603813316
vertex -170.734568927504 159.554482729937 14.7161603813318
endloop
endfacet
facet normal 9.25372416638397e-16 -3.41796215808622e-15 -1.0
outer loop
vertex -169.175510324944 154.285853579837 14.7161603813315
vertex -170.734568927504 159.554482729937 14.7161603813318
vertex -170.403198077606 159.300212933781 14.7161603813317
endloop
endfacet
facet normal 9.25372416638397e-16 -3.41796215808622e-15 -1.0
outer loop
vertex -169.175510324944 154.285853579837 14.7161603813315
vertex -170.403198077606 159.300212933781 14.7161603813317
vertex -170.01730854977 159.140372257773 14.7161603813317
endloop
endfacet
facet normal 9.25372416638397e-16 -3.41796215808622e-15 -1.0
outer loop
vertex -169.175510324944 154.285853579837 14.7161603813315
vertex -170.01730854977 159.140372257773 14.7161603813317
vertex -169.603198077606 159.085853579836 14.7161603813316
endloop
endfacet
facet normal 9.25372416638397e-16 -3.41796215808622e-15 -1.0
outer loop
vertex -169.175510324944 154.285853579837 14.7161603813315
vertex -169.603198077606 159.085853579836 14.7161603813316
vertex -169.189087605442 159.140372257773 14.7161603813317
endloop
endfacet
facet normal 9.25372416638397e-16 -3.41796215808622e-15 -1.0
outer loop
vertex -169.175510324944 154.285853579837 14.7161603813315
vertex -169.189087605442 159.140372257773 14.7161603813317
vertex -168.803198077606 159.300212933781 14.7161603813317
endloop
endfacet
facet normal 9.25372416638397e-16 -3.41796215808622e-15 -1.0
outer loop
vertex -169.175510324944 154.285853579837 14.7161603813315
vertex -168.803198077606 159.300212933781 14.7161603813317
vertex -167.257422212855 149.655179245804 14.7161603813318
endloop
endfacet
facet normal 9.25372416638397e-16 -3.41796215808622e-15 -1.0
outer loop
vertex -167.257422212855 149.655179245804 14.7161603813318
vertex -168.803198077606 159.300212933781 14.7161603813317
vertex -168.471827227707 159.554482729937 14.7161603813317
endloop
endfacet
facet normal 9.25372416638397e-16 -3.41796215808622e-15 -1.0
outer loop
vertex -167.257422212855 149.655179245804 14.7161603813318
vertex -168.471827227707 159.554482729937 14.7161603813317
vertex -168.21755743155 159.885853579836 14.7161603813317
endloop
endfacet
facet normal 9.25372416638397e-16 -3.41796215808622e-15 -1.0
outer loop
vertex -167.257422212855 149.655179245804 14.7161603813318
vertex -168.21755743155 159.885853579836 14.7161603813317
vertex -168.057716755543 160.271743107672 14.7161603813317
endloop
endfacet
facet normal 9.25372416638397e-16 -3.41796215808622e-15 -1.0
outer loop
vertex -167.257422212855 149.655179245804 14.7161603813318
vertex -168.057716755543 160.271743107672 14.7161603813317
vertex -168.003198077606 160.685853579836 14.7161603813317
endloop
endfacet
facet normal 9.25372416638397e-16 -3.41796215808622e-15 -1.0
outer loop
vertex -204.348973942357 149.655179245804 14.7161603813318
vertex -203.548679399669 160.271743107672 14.7161603813318
vertex -202.430885830268 154.285853579837 14.7161603813316
endloop
endfacet
facet normal 9.25372416638397e-16 -3.41796215808622e-15 -1.0
outer loop
vertex -203.548679399669 160.271743107672 14.7161603813318
vertex -204.348973942357 149.655179245804 14.7161603813318
vertex -203.603198077607 160.685853579836 14.7161603813317
endloop
endfacet
facet normal 9.25372416638397e-16 -3.41796215808622e-15 -1.0
outer loop
vertex -202.430885830268 154.285853579837 14.7161603813316
vertex -203.548679399669 160.271743107672 14.7161603813318
vertex -203.388838723662 159.885853579836 14.7161603813317
endloop
endfacet
facet normal 9.25372416638397e-16 -3.41796215808622e-15 -1.0
outer loop
vertex -202.430885830268 154.285853579837 14.7161603813316
vertex -203.388838723662 159.885853579836 14.7161603813317
vertex -203.134568927505 159.554482729937 14.7161603813317
endloop
endfacet
facet normal 9.25372416638397e-16 -3.41796215808622e-15 -1.0
outer loop
vertex -202.430885830268 154.285853579837 14.7161603813316
vertex -203.134568927505 159.554482729937 14.7161603813317
vertex -202.803198077607 159.300212933781 14.7161603813317
endloop
endfacet
facet normal 9.25372416638397e-16 -3.41796215808622e-15 -1.0
outer loop
vertex -202.430885830268 154.285853579837 14.7161603813316
vertex -202.803198077607 159.300212933781 14.7161603813317
vertex -202.417308549771 159.140372257773 14.7161603813317
endloop
endfacet
facet normal 9.25372416638397e-16 -3.41796215808622e-15 -1.0
outer loop
vertex -202.430885830268 154.285853579837 14.7161603813316
vertex -202.417308549771 159.140372257773 14.7161603813317
vertex -199.379648276389 158.262303778619 14.7161603813316
endloop
endfacet
facet normal 9.25372416638397e-16 -3.41796215808622e-15 -1.0
outer loop
vertex -199.379648276389 158.262303778619 14.7161603813316
vertex -202.417308549771 159.140372257773 14.7161603813317
vertex -202.003198077607 159.085853579836 14.7161603813316
endloop
endfacet
facet normal 9.25372416638397e-16 -3.41796215808622e-15 -1.0
outer loop
vertex -199.379648276389 158.262303778619 14.7161603813316
vertex -202.003198077607 159.085853579836 14.7161603813316
vertex -201.589087605443 159.140372257773 14.7161603813317
endloop
endfacet
facet normal 9.25372416638397e-16 -3.41796215808622e-15 -1.0
outer loop
vertex -199.379648276389 158.262303778619 14.7161603813316
vertex -201.589087605443 159.140372257773 14.7161603813317
vertex -201.203198077607 159.300212933781 14.7161603813317
endloop
endfacet
facet normal 9.25372416638397e-16 -3.41796215808622e-15 -1.0
outer loop
vertex -199.379648276389 158.262303778619 14.7161603813316
vertex -201.203198077607 159.300212933781 14.7161603813317
vertex -200.871827227708 159.554482729937 14.7161603813318
endloop
endfacet
facet normal 9.25372416638397e-16 -3.41796215808622e-15 -1.0
outer loop
vertex -199.379648276389 158.262303778619 14.7161603813316
vertex -200.871827227708 159.554482729937 14.7161603813318
vertex -200.617557431552 159.885853579836 14.7161603813317
endloop
endfacet
facet normal 9.25372416638397e-16 -3.41796215808622e-15 -1.0
outer loop
vertex -199.379648276389 158.262303778619 14.7161603813316
vertex -200.617557431552 159.885853579836 14.7161603813317
vertex -200.457716755544 160.271743107672 14.7161603813317
endloop
endfacet
facet normal 9.25372416638397e-16 -3.41796215808622e-15 -1.0
outer loop
vertex -199.379648276389 158.262303778619 14.7161603813316
vertex -200.457716755544 160.271743107672 14.7161603813317
vertex -200.403198077607 160.685853579836 14.7161603813318
endloop
endfacet
facet normal 9.25372416638397e-16 -3.41796215808622e-15 -1.0
outer loop
vertex -205.803198077607 133.085853579836 14.7161603813318
vertex -202.430885830268 135.085853579835 14.7161603813319
vertex -200.896231854311 133.085853579836 14.7161603813317
endloop
endfacet
facet normal 9.25372416638397e-16 -3.41796215808622e-15 -1.0
outer loop
vertex -202.430885830268 135.085853579835 14.7161603813319
vertex -205.803198077607 133.085853579836 14.7161603813318
vertex -204.348973942357 139.716527913867 14.7161603813317
endloop
endfacet
facet normal 9.25372416638397e-16 -3.41796215808622e-15 -1.0
outer loop
vertex -204.348973942357 139.716527913867 14.7161603813317
vertex -205.803198077607 133.085853579836 14.7161603813318
vertex -205.003198077607 144.685853579836 14.7161603813318
endloop
endfacet
facet normal -0.970174295122487 0.127725869047957 -0.206028977232646
outer loop
vertex -176.325639693259 139.897082981644 57.5296188253394
vertex -167.257422212855 139.716527913868 14.7161603813317
vertex -176.371729329626 139.664333360108 57.6023602085882
endloop
endfacet
facet normal -0.970174295122487 0.127725869047957 -0.206028977232646
outer loop
vertex -167.257422212855 139.716527913868 14.7161603813317
vertex -176.325639693259 139.897082981644 57.5296188253394
vertex -166.603198077605 144.685853579836 14.7161603813317
endloop
endfacet
facet normal -3.46811211823886e-15 0.707106781186522 -0.707106781186573
outer loop
vertex -185.803198077606 136.265576113607 26.2958829151027
vertex -171.141973963845 133.94895241338 23.9792592148755
vertex -185.803198077606 133.94895241338 23.9792592148755
endloop
endfacet
facet normal -3.46811211823886e-15 0.707106781186522 -0.707106781186573
outer loop
vertex -171.141973963845 133.94895241338 23.9792592148755
vertex -185.803198077606 136.265576113607 26.2958829151027
vertex -171.141973963845 136.265576113607 26.2958829151028
endloop
endfacet
facet normal -0.2588190451024 0.965925826289101 3.89995437898043e-14
outer loop
vertex -201.589087605443 159.140372257773 19.223703992058
vertex -201.203198077607 159.300212933781 14.7161603813317
vertex -201.589087605443 159.140372257773 14.7161603813317
endloop
endfacet
facet normal -0.500000000000143 0.866025403784356 3.39120761118408e-14
outer loop
vertex -201.203198077607 159.300212933781 14.7161603813317
vertex -201.589087605443 159.140372257773 19.223703992058
vertex -201.203198077607 159.30021293378 19.2237039920581
endloop
endfacet
facet normal -0.49999999999986 -0.866025403784519 -4.32514739510768e-14
outer loop
vertex -201.203198077607 162.071494225891 14.7161603813318
vertex -201.589087605443 162.231334901898 19.223703992058
vertex -201.589087605443 162.231334901898 14.7161603813317
endloop
endfacet
facet normal -0.258819045102549 -0.965925826289061 -2.9059216508618e-14
outer loop
vertex -201.589087605443 162.231334901898 19.223703992058
vertex -201.203198077607 162.071494225891 14.7161603813318
vertex -201.203198077607 162.071494225891 19.223703992058
endloop
endfacet
facet normal 0.965925826289068 -0.258819045102522 3.86356383018489e-15
outer loop
vertex -203.548679399669 161.099964052 14.7161603813317
vertex -203.603198077607 160.685853579836 19.223703992058
vertex -203.603198077607 160.685853579836 14.7161603813317
endloop
endfacet
facet normal 1.0 1.59517778241976e-13 -1.56736729676526e-14
outer loop
vertex -203.603198077607 160.685853579836 19.223703992058
vertex -203.548679399669 161.099964052 14.7161603813317
vertex -203.548679399669 161.099964052 19.223703992058
endloop
endfacet
facet normal -6.78135463058743e-15 -1.0 -1.81759601706142e-14
outer loop
vertex -202.003198077607 162.285853579836 19.223703992058
vertex -202.417308549771 162.231334901898 14.7161603813317
vertex -202.003198077607 162.285853579836 14.7161603813317
endloop
endfacet
facet normal 0.258819045102629 -0.965925826289039 -3.04552325398267e-14
outer loop
vertex -202.417308549771 162.231334901898 14.7161603813317
vertex -202.003198077607 162.285853579836 19.223703992058
vertex -202.417308549771 162.231334901898 19.223703992058
endloop
endfacet
facet normal -0.866025403784451 -0.499999999999979 1.98116085838479e-17
outer loop
vertex -199.82695850831 162.285853579836 19.223703992058
vertex -198.903198077607 160.685853579836 19.223703992058
vertex -198.903198077607 160.685853579836 22.2287330658741
endloop
endfacet
facet normal 4.76799298118039e-15 -0.707106781186355 0.70710678118674
outer loop
vertex -197.003838372699 138.62566856251 57.8998075608182
vertex -174.415299339116 138.646366898474 57.9205058967822
vertex -197.191096816096 138.646366898474 57.9205058967823
endloop
endfacet
facet normal 4.76799298118039e-15 -0.707106781186355 0.70710678118674
outer loop
vertex -174.415299339116 138.646366898474 57.9205058967822
vertex -197.003838372699 138.62566856251 57.8998075608182
vertex -174.602557782513 138.62566856251 57.8998075608182
endloop
endfacet
facet normal -0.965925826289081 0.258819045102475 -2.89811834589127e-15
outer loop
vertex -200.457716755544 160.271743107672 19.223703992058
vertex -200.403198077607 160.685853579836 14.7161603813318
vertex -200.457716755544 160.271743107672 14.7161603813317
endloop
endfacet
facet normal -1.0 1.33800315083138e-13 1.21830547181415e-14
outer loop
vertex -200.403198077607 160.685853579836 14.7161603813318
vertex -200.457716755544 160.271743107672 19.223703992058
vertex -200.403198077607 160.685853579836 19.223703992058
endloop
endfacet
facet normal 4.86368360686249e-15 -0.990628955220618 0.136580646793412
outer loop
vertex -171.141973963845 133.94895241338 23.9792592148755
vertex -200.464422191367 133.94895241338 23.9792592148755
vertex -185.803198077606 133.94895241338 23.9792592148755
endloop
endfacet
facet normal 4.86368360686249e-15 -0.990628955220618 0.136580646793412
outer loop
vertex -200.464422191367 133.94895241338 23.9792592148755
vertex -171.141973963845 133.94895241338 23.9792592148755
vertex -174.602557782513 138.62566856251 57.8998075608182
endloop
endfacet
facet normal 4.86368360686249e-15 -0.990628955220618 0.136580646793412
outer loop
vertex -200.464422191367 133.94895241338 23.9792592148755
vertex -174.602557782513 138.62566856251 57.8998075608182
vertex -197.003838372699 138.62566856251 57.8998075608182
endloop
endfacet
facet normal 0.339855057338716 -0.820482688668261 -0.45968108248763
outer loop
vertex -186.032805027028 141.284238008037 57.3941666310779
vertex -195.403198077607 161.313541332498 14.7161603813315
vertex -190.772523743575 163.231629444587 14.7161603813315
endloop
endfacet
facet normal 0.339855057338716 -0.820482688668261 -0.45968108248763
outer loop
vertex -195.403198077607 161.313541332498 14.7161603813315
vertex -186.032805027028 141.284238008037 57.3941666310779
vertex -186.24947032217 141.201557779901 57.3815554955652
endloop
endfacet
facet normal 0.115598444615462 -0.878057361112497 -0.464383753159651
outer loop
vertex -185.803198077606 163.885853579837 14.7161603813317
vertex -186.032805027028 141.284238008037 57.3941666310779
vertex -190.772523743575 163.231629444587 14.7161603813315
endloop
endfacet
facet normal 0.115598444615462 -0.878057361112497 -0.464383753159651
outer loop
vertex -186.032805027028 141.284238008037 57.3941666310779
vertex -185.803198077606 163.885853579837 14.7161603813317
vertex -185.803198077606 141.312209874028 57.3984331528391
endloop
endfacet
facet normal -0.707106781186512 -0.707106781186583 -3.98607992616769e-14
outer loop
vertex -200.871827227708 161.817224429734 19.223703992058
vertex -201.203198077607 162.071494225891 14.7161603813318
vertex -200.871827227708 161.817224429734 14.7161603813318
endloop
endfacet
facet normal -0.49999999999986 -0.866025403784519 -4.32514739510768e-14
outer loop
vertex -201.203198077607 162.071494225891 14.7161603813318
vertex -200.871827227708 161.817224429734 19.223703992058
vertex -201.203198077607 162.071494225891 19.223703992058
endloop
endfacet
facet normal 0.258819045102435 0.965925826289091 3.03020831632946e-14
outer loop
vertex -202.417308549771 159.140372257773 14.7161603813317
vertex -202.003198077607 159.085853579836 19.223703992058
vertex -202.003198077607 159.085853579836 14.7161603813316
endloop
endfacet
facet normal 7.88633225764723e-15 1.0 3.3190904161574e-14
outer loop
vertex -202.003198077607 159.085853579836 19.223703992058
vertex -202.417308549771 159.140372257773 14.7161603813317
vertex -202.417308549771 159.140372257773 19.223703992058
endloop
endfacet
facet normal 0.499999999999919 -0.866025403784485 -2.9937579895839e-14
outer loop
vertex -202.803198077607 162.071494225891 19.223703992058
vertex -203.134568927505 161.817224429734 14.7161603813317
vertex -202.803198077607 162.071494225891 14.7161603813317
endloop
endfacet
facet normal 0.70710678118639 -0.707106781186705 -2.46849728134309e-15
outer loop
vertex -203.134568927505 161.817224429734 14.7161603813317
vertex -202.803198077607 162.071494225891 19.223703992058
vertex -203.134568927505 161.817224429734 19.223703992058
endloop
endfacet
facet normal 0.890173750515179 -0.368722040331898 -0.267646690372254
outer loop
vertex -204.348973942357 149.655179245804 14.7161603813318
vertex -195.165889913555 140.889810355653 57.3340049613971
vertex -195.264035378275 140.676485037083 57.3014666561519
endloop
endfacet
facet normal 0.890173750515179 -0.368722040331898 -0.267646690372254
outer loop
vertex -195.165889913555 140.889810355653 57.3340049613971
vertex -204.348973942357 149.655179245804 14.7161603813318
vertex -202.430885830268 154.285853579837 14.7161603813316
endloop
endfacet
facet normal -0.980476695876629 0.0574906035470777 0.188043291150313
outer loop
vertex -197.193701098923 140.643296095961 57.2964043789491
vertex -205.803198077607 133.085853579836 14.7161603813318
vertex -197.191096816096 138.646366898474 57.9205058967823
endloop
endfacet
facet normal -0.866025403784451 0.499999999999979 -7.38532875921217e-15
outer loop
vertex -200.453198077607 158.001174828105 27.2709441301326
vertex -198.903198077607 160.685853579836 19.223703992058
vertex -200.453198077607 158.001174828104 19.223703992058
endloop
endfacet
facet normal -0.866025403784451 0.499999999999979 -7.38532875921217e-15
outer loop
vertex -198.903198077607 160.685853579836 19.223703992058
vertex -200.453198077607 158.001174828105 27.2709441301326
vertex -198.903198077607 160.685853579836 22.2287330658741
endloop
endfacet
facet normal 0.997367861010807 0.0512706047493742 -0.0512706047493187
outer loop
vertex -200.464422191367 136.265576113607 26.2958829151028
vertex -200.464422191367 133.94895241338 23.9792592148755
vertex -200.896231854311 133.085853579836 14.7161603813317
endloop
endfacet
facet normal 9.35413943481505e-15 -0.904539566114914 -0.426389696560134
outer loop
vertex -194.831090092892 141.201557779901 57.3815554955652
vertex -195.403198077607 161.313541332498 14.7161603813315
vertex -186.24947032217 141.201557779901 57.3815554955652
endloop
endfacet
facet normal -3.48939062951811e-15 0.994850456795012 -0.101353680815034
outer loop
vertex -200.464422191367 136.265576113607 26.2958829151028
vertex -185.803198077606 139.461485723101 57.6657563061087
vertex -185.803198077606 136.265576113607 26.2958829151027
endloop
endfacet
facet normal -3.48939062951811e-15 0.994850456795012 -0.101353680815034
outer loop
vertex -185.803198077606 139.461485723101 57.6657563061087
vertex -200.464422191367 136.265576113607 26.2958829151028
vertex -195.137203408669 139.461485723101 57.6657563061087
endloop
endfacet
facet normal -0.906649645783493 0.375546579604273 -0.19222691369368
outer loop
vertex -171.141973963845 136.265576113607 26.2958829151028
vertex -167.257422212855 139.716527913868 14.7161603813317
vertex -169.175510324944 135.085853579835 14.7161603813318
endloop
endfacet
facet normal -0.906649645783493 0.375546579604273 -0.19222691369368
outer loop
vertex -167.257422212855 139.716527913868 14.7161603813317
vertex -171.141973963845 136.265576113607 26.2958829151028
vertex -176.469192746544 139.461485723101 57.6657563061087
endloop
endfacet
facet normal -0.906649645783493 0.375546579604273 -0.19222691369368
outer loop
vertex -167.257422212855 139.716527913868 14.7161603813317
vertex -176.469192746544 139.461485723101 57.6657563061087
vertex -176.371729329626 139.664333360108 57.6023602085882
endloop
endfacet
facet normal 1.0 1.60061355945614e-13 9.85426723898923e-15
outer loop
vertex -171.203198077606 160.685853579836 14.7161603813317
vertex -171.148679399668 161.099964052 19.223703992058
vertex -171.203198077606 160.685853579836 19.223703992058
endloop
endfacet
facet normal 0.965925826289055 -0.258819045102571 1.21008721990168e-14
outer loop
vertex -171.148679399668 161.099964052 19.223703992058
vertex -171.203198077606 160.685853579836 14.7161603813317
vertex -171.148679399668 161.099964052 14.7161603813318
endloop
endfacet
facet normal -0.707106781186409 -0.707106781186686 2.09963080376168e-15
outer loop
vertex -168.471827227707 161.817224429734 14.7161603813317
vertex -168.803198077606 162.071494225891 19.223703992058
vertex -168.803198077606 162.071494225891 14.7161603813317
endloop
endfacet
facet normal -0.499999999999939 -0.866025403784474 -9.18238538178641e-15
outer loop
vertex -168.803198077606 162.071494225891 19.223703992058
vertex -168.471827227707 161.817224429734 14.7161603813317
vertex -168.471827227707 161.817224429734 19.223703992058
endloop
endfacet
facet normal 0.258819045102371 0.965925826289108 4.70597250816568e-14
outer loop
vertex -170.01730854977 159.140372257773 14.7161603813317
vertex -169.603198077606 159.085853579836 19.223703992058
vertex -169.603198077606 159.085853579836 14.7161603813316
endloop
endfacet
facet normal -2.53877520926973e-14 1.0 3.94450640333441e-14
outer loop
vertex -169.603198077606 159.085853579836 19.223703992058
vertex -170.01730854977 159.140372257773 14.7161603813317
vertex -170.01730854977 159.140372257773 19.223703992058
endloop
endfacet
endsolid Carriage
