solid Carriage
facet normal 4.34909841993476e-15 -0.995687175123994 0.0927741844135543
outer loop
vertex -165.803198077605 133.085853579836 14.7161603813317
vertex -171.049243665302 133.763603591029 21.9900264718851
vertex -170.710164300901 133.085853579836 14.7161603813316
endloop
endfacet
facet normal 4.34909841993476e-15 -0.995687175123994 0.0927741844135543
outer loop
vertex -171.049243665302 133.763603591029 21.9900264718851
vertex -165.803198077605 133.085853579836 14.7161603813317
vertex -171.141973963845 133.94895241338 23.9792592148755
endloop
endfacet
facet normal -0.0116177295400312 -0.994979323624388 0.0994040940821358
outer loop
vertex -197.191096816096 137.152399698958 56.426538697266
vertex -205.803198077607 133.085853579836 14.7161603813317
vertex -200.464422191367 133.94895241338 23.9792592148755
endloop
endfacet
facet normal 0.499999999999948 -0.866025403784469 -1.75529135194514e-14
outer loop
vertex -170.403198077605 162.071494225891 19.223703992058
vertex -170.734568927504 161.817224429734 14.7161603813318
vertex -170.403198077606 162.071494225891 14.7161603813318
endloop
endfacet
facet normal 0.707106781186505 -0.70710678118659 -1.29617208285586e-14
outer loop
vertex -170.734568927504 161.817224429734 14.7161603813318
vertex -170.403198077605 162.071494225891 19.223703992058
vertex -170.734568927504 161.817224429734 19.223703992058
endloop
endfacet
facet normal 0.866025403784327 -0.500000000000193 -4.43721976528392e-15
outer loop
vertex -170.988838723661 161.485853579836 14.7161603813318
vertex -171.148679399668 161.099964052 19.223703992058
vertex -171.148679399668 161.099964052 14.7161603813318
endloop
endfacet
facet normal 0.965925826289053 -0.258819045102576 1.2121868507054e-14
outer loop
vertex -171.148679399668 161.099964052 19.223703992058
vertex -170.988838723661 161.485853579836 14.7161603813318
vertex -170.98883872366 161.485853579836 19.2237039920581
endloop
endfacet
facet normal -0.499999999999943 -0.866025403784471 -9.09840014963577e-15
outer loop
vertex -168.803198077606 162.071494225891 14.7161603813316
vertex -169.189087605442 162.231334901898 19.2237039920579
vertex -169.189087605442 162.231334901898 14.7161603813316
endloop
endfacet
facet normal -0.25881904510255 -0.965925826289061 -1.07501097152624e-14
outer loop
vertex -169.189087605442 162.231334901898 19.2237039920579
vertex -168.803198077606 162.071494225891 14.7161603813316
vertex -168.803198077606 162.071494225891 19.2237039920579
endloop
endfacet
facet normal 0.500000000000108 0.866025403784376 3.98649901941003e-14
outer loop
vertex -170.403198077606 159.300212933781 14.7161603813317
vertex -170.01730854977 159.140372257773 19.223703992058
vertex -170.01730854977 159.140372257773 14.7161603813316
endloop
endfacet
facet normal 0.258819045102386 0.965925826289104 4.65838087661378e-14
outer loop
vertex -170.01730854977 159.140372257773 19.223703992058
vertex -170.403198077606 159.300212933781 14.7161603813317
vertex -170.403198077606 159.300212933781 19.2237039920581
endloop
endfacet
facet normal 1.67579897800808e-15 6.49480469405717e-15 1.0
outer loop
vertex -171.779437646903 162.285853579836 19.223703992058
vertex -170.01730854977 162.231334901898 19.2237039920579
vertex -169.603198077605 162.285853579836 19.2237039920579
endloop
endfacet
facet normal 1.67579897800808e-15 6.49480469405717e-15 1.0
outer loop
vertex -170.01730854977 162.231334901898 19.2237039920579
vertex -171.779437646903 162.285853579836 19.223703992058
vertex -170.403198077605 162.071494225891 19.223703992058
endloop
endfacet
facet normal 1.67579897800808e-15 6.49480469405717e-15 1.0
outer loop
vertex -170.403198077605 162.071494225891 19.223703992058
vertex -171.779437646903 162.285853579836 19.223703992058
vertex -170.734568927504 161.817224429734 19.223703992058
endloop
endfacet
facet normal 1.67579897800808e-15 6.49480469405717e-15 1.0
outer loop
vertex -170.734568927504 161.817224429734 19.223703992058
vertex -171.779437646903 162.285853579836 19.223703992058
vertex -170.98883872366 161.485853579836 19.2237039920581
endloop
endfacet
facet normal 1.67579897800808e-15 6.49480469405717e-15 1.0
outer loop
vertex -170.98883872366 161.485853579836 19.2237039920581
vertex -171.779437646903 162.285853579836 19.223703992058
vertex -171.148679399668 161.099964052 19.223703992058
endloop
endfacet
facet normal 1.67579897800808e-15 6.49480469405717e-15 1.0
outer loop
vertex -171.148679399668 161.099964052 19.223703992058
vertex -171.779437646903 162.285853579836 19.223703992058
vertex -171.203198077605 160.685853579836 19.223703992058
endloop
endfacet
facet normal 1.67579897800808e-15 6.49480469405717e-15 1.0
outer loop
vertex -171.153198077606 158.001174828105 19.2237039920581
vertex -171.779437646903 162.285853579836 19.223703992058
vertex -172.703198077606 160.685853579837 19.223703992058
endloop
endfacet
facet normal 1.67579897800808e-15 6.49480469405717e-15 1.0
outer loop
vertex -171.779437646903 162.285853579836 19.223703992058
vertex -171.153198077606 158.001174828105 19.2237039920581
vertex -171.203198077605 160.685853579836 19.223703992058
endloop
endfacet
facet normal 1.67579897800808e-15 6.49480469405717e-15 1.0
outer loop
vertex -171.203198077605 160.685853579836 19.223703992058
vertex -171.153198077606 158.001174828105 19.2237039920581
vertex -171.148679399668 160.271743107672 19.223703992058
endloop
endfacet
facet normal 1.67579897800808e-15 6.49480469405717e-15 1.0
outer loop
vertex -171.148679399668 160.271743107672 19.223703992058
vertex -171.153198077606 158.001174828105 19.2237039920581
vertex -170.988838723661 159.885853579836 19.223703992058
endloop
endfacet
facet normal 1.67579897800808e-15 6.49480469405717e-15 1.0
outer loop
vertex -170.988838723661 159.885853579836 19.223703992058
vertex -171.153198077606 158.001174828105 19.2237039920581
vertex -170.734568927504 159.554482729938 19.223703992058
endloop
endfacet
facet normal 1.67579897800808e-15 6.49480469405717e-15 1.0
outer loop
vertex -170.734568927504 159.554482729938 19.223703992058
vertex -171.153198077606 158.001174828105 19.2237039920581
vertex -170.403198077606 159.300212933781 19.2237039920581
endloop
endfacet
facet normal 1.67579897800808e-15 6.49480469405717e-15 1.0
outer loop
vertex -170.403198077606 159.300212933781 19.2237039920581
vertex -171.153198077606 158.001174828105 19.2237039920581
vertex -168.053198077606 158.001174828105 19.223703992058
endloop
endfacet
facet normal 1.67579897800808e-15 6.49480469405717e-15 1.0
outer loop
vertex -170.403198077606 159.300212933781 19.2237039920581
vertex -168.053198077606 158.001174828105 19.223703992058
vertex -170.01730854977 159.140372257773 19.223703992058
endloop
endfacet
facet normal 1.67579897800808e-15 6.49480469405717e-15 1.0
outer loop
vertex -170.01730854977 159.140372257773 19.223703992058
vertex -168.053198077606 158.001174828105 19.223703992058
vertex -169.603198077606 159.085853579836 19.223703992058
endloop
endfacet
facet normal 1.67579897800808e-15 6.49480469405717e-15 1.0
outer loop
vertex -169.603198077606 159.085853579836 19.223703992058
vertex -168.053198077606 158.001174828105 19.223703992058
vertex -169.189087605441 159.140372257773 19.2237039920579
endloop
endfacet
facet normal 1.67579897800808e-15 6.49480469405717e-15 1.0
outer loop
vertex -169.189087605441 159.140372257773 19.2237039920579
vertex -168.053198077606 158.001174828105 19.223703992058
vertex -168.803198077606 159.300212933781 19.2237039920579
endloop
endfacet
facet normal 1.67579897800808e-15 6.49480469405717e-15 1.0
outer loop
vertex -168.803198077606 159.300212933781 19.2237039920579
vertex -168.053198077606 158.001174828105 19.223703992058
vertex -168.471827227707 159.554482729937 19.2237039920579
endloop
endfacet
facet normal 1.67579897800808e-15 6.49480469405717e-15 1.0
outer loop
vertex -168.471827227707 159.554482729937 19.2237039920579
vertex -168.053198077606 158.001174828105 19.223703992058
vertex -168.21755743155 159.885853579836 19.223703992058
endloop
endfacet
facet normal 1.67579897800808e-15 6.49480469405717e-15 1.0
outer loop
vertex -168.21755743155 159.885853579836 19.223703992058
vertex -168.053198077606 158.001174828105 19.223703992058
vertex -168.057716755543 160.271743107672 19.223703992058
endloop
endfacet
facet normal 1.67579897800808e-15 6.49480469405717e-15 1.0
outer loop
vertex -168.057716755543 160.271743107672 19.223703992058
vertex -168.053198077606 158.001174828105 19.223703992058
vertex -168.003198077606 160.685853579836 19.223703992058
endloop
endfacet
facet normal 1.67579897800808e-15 6.49480469405717e-15 1.0
outer loop
vertex -168.003198077606 160.685853579836 19.223703992058
vertex -168.053198077606 158.001174828105 19.223703992058
vertex -166.714599221761 158.001174828105 19.223703992058
endloop
endfacet
facet normal 1.67579897800808e-15 6.49480469405717e-15 1.0
outer loop
vertex -168.003198077606 160.685853579836 19.223703992058
vertex -166.714599221761 158.001174828105 19.223703992058
vertex -166.714599221761 162.285853579836 19.223703992058
endloop
endfacet
facet normal 1.67579897800808e-15 6.49480469405717e-15 1.0
outer loop
vertex -169.189087605442 162.231334901898 19.2237039920579
vertex -166.714599221761 162.285853579836 19.223703992058
vertex -169.603198077605 162.285853579836 19.2237039920579
endloop
endfacet
facet normal 1.67579897800808e-15 6.49480469405717e-15 1.0
outer loop
vertex -166.714599221761 162.285853579836 19.223703992058
vertex -169.189087605442 162.231334901898 19.2237039920579
vertex -168.803198077606 162.071494225891 19.2237039920579
endloop
endfacet
facet normal 1.67579897800808e-15 6.49480469405717e-15 1.0
outer loop
vertex -166.714599221761 162.285853579836 19.223703992058
vertex -168.803198077606 162.071494225891 19.2237039920579
vertex -168.471827227707 161.817224429734 19.223703992058
endloop
endfacet
facet normal 1.67579897800808e-15 6.49480469405717e-15 1.0
outer loop
vertex -166.714599221761 162.285853579836 19.223703992058
vertex -168.471827227707 161.817224429734 19.223703992058
vertex -168.21755743155 161.485853579836 19.223703992058
endloop
endfacet
facet normal 1.67579897800808e-15 6.49480469405717e-15 1.0
outer loop
vertex -166.714599221761 162.285853579836 19.223703992058
vertex -168.21755743155 161.485853579836 19.223703992058
vertex -168.057716755543 161.099964052 19.223703992058
endloop
endfacet
facet normal 1.67579897800808e-15 6.49480469405717e-15 1.0
outer loop
vertex -166.714599221761 162.285853579836 19.223703992058
vertex -168.057716755543 161.099964052 19.223703992058
vertex -168.003198077606 160.685853579836 19.223703992058
endloop
endfacet
facet normal -0.866025403784597 0.499999999999726 1.22618438939708e-14
outer loop
vertex -168.21755743155 159.885853579836 19.223703992058
vertex -168.471827227707 159.554482729937 14.7161603813316
vertex -168.471827227707 159.554482729937 19.2237039920579
endloop
endfacet
facet normal -0.707106781186513 0.707106781186582 3.41259993304813e-14
outer loop
vertex -168.471827227707 159.554482729937 14.7161603813316
vertex -168.21755743155 159.885853579836 19.223703992058
vertex -168.21755743155 159.885853579836 14.7161603813316
endloop
endfacet
facet normal -0.866025403784423 -0.500000000000027 9.50432877169689e-15
outer loop
vertex -168.21755743155 161.485853579836 19.223703992058
vertex -168.471827227707 161.817224429734 14.7161603813316
vertex -168.21755743155 161.485853579836 14.7161603813318
endloop
endfacet
facet normal -0.707106781186405 -0.70710678118669 2.0156455716109e-15
outer loop
vertex -168.471827227707 161.817224429734 14.7161603813316
vertex -168.21755743155 161.485853579836 19.223703992058
vertex -168.471827227707 161.817224429734 19.223703992058
endloop
endfacet
facet normal -2.65105519395485e-14 1.0 3.89131575630576e-14
outer loop
vertex -169.603198077606 159.085853579836 14.7161603813316
vertex -169.189087605441 159.140372257773 19.2237039920579
vertex -169.189087605442 159.140372257773 14.7161603813316
endloop
endfacet
facet normal -0.258819045102455 0.965925826289086 3.13824817468993e-14
outer loop
vertex -169.189087605441 159.140372257773 19.2237039920579
vertex -169.603198077606 159.085853579836 14.7161603813316
vertex -169.603198077606 159.085853579836 19.223703992058
endloop
endfacet
facet normal 0.707106781186703 0.707106781186392 1.36615977631457e-14
outer loop
vertex -170.734568927504 159.554482729937 14.7161603813318
vertex -170.403198077606 159.300212933781 19.2237039920581
vertex -170.403198077606 159.300212933781 14.7161603813317
endloop
endfacet
facet normal 0.50000000000013 0.866025403784364 3.98649901940984e-14
outer loop
vertex -170.403198077606 159.300212933781 19.2237039920581
vertex -170.734568927504 159.554482729937 14.7161603813318
vertex -170.734568927504 159.554482729938 19.223703992058
endloop
endfacet
facet normal -1.0 1.57601889614414e-13 -2.05133929527566e-14
outer loop
vertex -168.003198077606 160.685853579836 19.223703992058
vertex -168.057716755543 161.099964052 14.7161603813317
vertex -168.003198077606 160.685853579836 14.7161603813317
endloop
endfacet
facet normal -0.965925826289084 -0.258819045102461 2.72952004489029e-15
outer loop
vertex -168.057716755543 161.099964052 14.7161603813317
vertex -168.003198077606 160.685853579836 19.223703992058
vertex -168.057716755543 161.099964052 19.223703992058
endloop
endfacet
facet normal -0.258819045102457 0.965925826289085 3.13824817468992e-14
outer loop
vertex -169.189087605442 159.140372257773 14.7161603813316
vertex -168.803198077606 159.300212933781 19.2237039920579
vertex -168.803198077606 159.300212933781 14.7161603813316
endloop
endfacet
facet normal -0.499999999999987 0.866025403784446 2.91988657109855e-14
outer loop
vertex -168.803198077606 159.300212933781 19.2237039920579
vertex -169.189087605442 159.140372257773 14.7161603813316
vertex -169.189087605441 159.140372257773 19.2237039920579
endloop
endfacet
facet normal -0.899102489307526 0.397592679827031 -0.18312502469343
outer loop
vertex -167.257422212855 139.716527913868 14.7161603813316
vertex -171.141973963845 136.265576113607 26.2958829151028
vertex -176.371729329626 138.170366160592 56.1083930090719
endloop
endfacet
facet normal -0.965925826289107 0.258819045102376 -2.49646102567305e-14
outer loop
vertex -168.057716755543 160.271743107672 19.223703992058
vertex -168.003198077606 160.685853579836 14.7161603813317
vertex -168.057716755543 160.271743107672 14.7161603813317
endloop
endfacet
facet normal -1.0 1.55329556591033e-13 -2.05133929527563e-14
outer loop
vertex -168.003198077606 160.685853579836 14.7161603813317
vertex -168.057716755543 160.271743107672 19.223703992058
vertex -168.003198077606 160.685853579836 19.223703992058
endloop
endfacet
facet normal 0.866025403784434 0.500000000000009 -2.1094237467878e-15
outer loop
vertex -172.703198077606 160.685853579837 19.223703992058
vertex -171.153198077606 158.001174828105 27.2709441301326
vertex -171.153198077606 158.001174828105 19.2237039920581
endloop
endfacet
facet normal 0.866025403784434 0.500000000000009 -2.1094237467878e-15
outer loop
vertex -171.153198077606 158.001174828105 27.2709441301326
vertex -172.703198077606 160.685853579837 19.223703992058
vertex -172.703198077606 160.685853579836 22.2287330658741
endloop
endfacet
facet normal 0.978708730994417 -0.00112281347364032 0.205250966295414
outer loop
vertex -174.451804352482 140.417441567717 55.9958611830143
vertex -174.412695056289 139.149328896445 55.8024371794328
vertex -165.803198077605 133.085853579836 14.7161603813317
endloop
endfacet
facet normal 3.7758697232462e-15 -0.995687175123994 0.0927741844135543
outer loop
vertex -171.141973963845 133.94895241338 23.9792592148755
vertex -200.55715248991 133.763603591028 21.9900264718852
vertex -171.049243665302 133.763603591029 21.9900264718851
endloop
endfacet
facet normal 3.7758697232462e-15 -0.995687175123994 0.0927741844135543
outer loop
vertex -200.55715248991 133.763603591028 21.9900264718852
vertex -171.141973963845 133.94895241338 23.9792592148755
vertex -200.464422191367 133.94895241338 23.9792592148755
endloop
endfacet
facet normal 0.978718954180431 0.0600399997401808 0.19622539886356
outer loop
vertex -174.412695056289 139.149328896445 55.8024371794328
vertex -174.415299339116 137.152399698958 56.426538697266
vertex -165.803198077605 133.085853579836 14.7161603813317
endloop
endfacet
facet normal 0.965925826289078 0.258819045102483 -6.64183210923453e-15
outer loop
vertex -171.148679399668 160.271743107672 14.7161603813317
vertex -170.988838723661 159.885853579836 19.223703992058
vertex -170.988838723661 159.885853579836 14.7161603813316
endloop
endfacet
facet normal 0.86602540378447 0.499999999999947 -5.38905239632292e-15
outer loop
vertex -170.988838723661 159.885853579836 19.223703992058
vertex -171.148679399668 160.271743107672 14.7161603813317
vertex -171.148679399668 160.271743107672 19.223703992058
endloop
endfacet
facet normal 0.866025403784327 -0.500000000000193 -4.43721976528392e-15
outer loop
vertex -170.988838723661 161.485853579836 14.7161603813318
vertex -170.734568927504 161.817224429734 19.223703992058
vertex -170.98883872366 161.485853579836 19.2237039920581
endloop
endfacet
facet normal 0.707106781186504 -0.707106781186591 -1.29617208285586e-14
outer loop
vertex -170.734568927504 161.817224429734 19.223703992058
vertex -170.988838723661 161.485853579836 14.7161603813318
vertex -170.734568927504 161.817224429734 14.7161603813318
endloop
endfacet
facet normal -0.77843018334791 0.59731048794028 -0.19304566985427
outer loop
vertex -171.049243665302 135.582736786136 23.8091596669922
vertex -169.175510324944 135.085853579835 14.7161603813318
vertex -170.710164300901 133.085853579836 14.7161603813316
endloop
endfacet
facet normal -0.77843018334791 0.59731048794028 -0.19304566985427
outer loop
vertex -169.175510324944 135.085853579835 14.7161603813318
vertex -171.049243665302 135.582736786136 23.8091596669922
vertex -171.141973963845 136.265576113607 26.2958829151028
endloop
endfacet
facet normal 1.0 1.58528645043565e-13 9.84726846964353e-15
outer loop
vertex -171.203198077606 160.685853579836 14.7161603813317
vertex -171.148679399668 160.271743107672 19.223703992058
vertex -171.148679399668 160.271743107672 14.7161603813317
endloop
endfacet
facet normal 0.965925826289083 0.258819045102466 -6.64183210923427e-15
outer loop
vertex -171.148679399668 160.271743107672 19.223703992058
vertex -171.203198077606 160.685853579836 14.7161603813317
vertex -171.203198077605 160.685853579836 19.223703992058
endloop
endfacet
facet normal 0.258819045102524 -0.965925826289067 -1.18419177332192e-14
outer loop
vertex -170.01730854977 162.231334901898 19.2237039920579
vertex -170.403198077606 162.071494225891 14.7161603813318
vertex -170.01730854977 162.231334901898 14.7161603813316
endloop
endfacet
facet normal 0.499999999999918 -0.866025403784486 -1.75529135194515e-14
outer loop
vertex -170.403198077606 162.071494225891 14.7161603813318
vertex -170.01730854977 162.231334901898 19.2237039920579
vertex -170.403198077605 162.071494225891 19.223703992058
endloop
endfacet
facet normal 0.0116177295400482 -0.994979323624388 0.0994040940821388
outer loop
vertex -174.415299339116 137.152399698958 56.426538697266
vertex -171.141973963845 133.94895241338 23.9792592148755
vertex -165.803198077605 133.085853579836 14.7161603813317
endloop
endfacet
facet normal 0.563220671376628 -0.728430225735258 -0.390092144972622
outer loop
vertex -194.831090092892 139.707590580385 55.887588296049
vertex -195.01802668247 139.573966437769 55.8672067343585
vertex -195.403198077607 161.313541332498 14.7161603813315
endloop
endfacet
facet normal 0.866025403784445 -0.499999999999989 1.01862962509358e-14
outer loop
vertex -171.779437646903 162.285853579836 19.223703992058
vertex -172.703198077606 160.685853579836 22.2287330658741
vertex -172.703198077606 160.685853579837 19.223703992058
endloop
endfacet
facet normal -0.969963839692529 -0.071190143638562 -0.232598609492076
outer loop
vertex -167.257422212855 149.655179245804 14.7161603813317
vertex -176.339661932193 138.653163700819 55.9575039950594
vertex -176.338892569339 139.149328896445 55.8024371794327
endloop
endfacet
facet normal 0.334794922846808 -0.801846092521416 -0.494929493508052
outer loop
vertex -186.032805027028 139.79027080852 55.9001994315617
vertex -186.24947032217 139.707590580385 55.8875882960489
vertex -190.772523743575 163.231629444587 14.7161603813314
endloop
endfacet
facet normal 0.970598471124228 -0.0661245943301964 -0.231443612735321
outer loop
vertex -204.348973942357 149.655179245804 14.7161603813317
vertex -195.264035378275 139.182517837567 55.8074994566357
vertex -195.267503585874 139.149328896445 55.8024371794328
endloop
endfacet
facet normal -0.160433655357651 0.849939457050146 0.5018605001172
outer loop
vertex -174.451804352482 140.417441567717 55.9958611830143
vertex -171.153198077606 158.001174828105 27.2709441301326
vertex -172.703198077606 160.685853579836 22.2287330658741
endloop
endfacet
facet normal 0.748720527107809 -0.569878112209686 -0.33860967132043
outer loop
vertex -202.430885830268 154.285853579837 14.7161603813315
vertex -195.01802668247 139.573966437769 55.8672067343585
vertex -195.165889913555 139.395843156137 55.8400377618809
endloop
endfacet
facet normal -3.87277182573225e-15 -0.8854779862894 -0.464681327144603
outer loop
vertex -185.356925833042 139.707590580385 55.8875882960489
vertex -176.203198077606 161.313541332498 14.7161603813314
vertex -176.77530606232 139.707590580385 55.8875882960489
endloop
endfacet
facet normal -0.746325054516724 -0.572675356135536 -0.339178197229194
outer loop
vertex -172.226747878824 158.262303778619 14.7161603813315
vertex -169.175510324944 154.285853579837 14.7161603813315
vertex -176.588369472742 139.573966437769 55.8672067343584
endloop
endfacet
facet normal -0.885789356412178 -0.363525745193526 -0.288489598856511
outer loop
vertex -167.257422212855 149.655179245804 14.7161603813317
vertex -176.342360776937 139.182517837567 55.8074994566356
vertex -176.440506241657 139.395843156137 55.8400377618809
endloop
endfacet
facet normal -2.85219318055256e-16 0.298301544550609 0.954471680312581
outer loop
vertex -197.191096816096 137.152399698958 56.426538697266
vertex -195.234666825586 138.170366160592 56.108393009072
vertex -195.280756461953 138.403115782127 56.0356516258232
endloop
endfacet
facet normal -2.85219318055256e-16 0.298301544550609 0.954471680312581
outer loop
vertex -195.234666825586 138.170366160592 56.108393009072
vertex -197.191096816096 137.152399698958 56.426538697266
vertex -195.137203408668 137.967518523584 56.1717891065925
endloop
endfacet
facet normal -2.85219318055256e-16 0.298301544550609 0.954471680312581
outer loop
vertex -195.137203408668 137.967518523584 56.1717891065925
vertex -197.191096816096 137.152399698958 56.426538697266
vertex -174.415299339116 137.152399698958 56.426538697266
endloop
endfacet
facet normal -2.85219318055256e-16 0.298301544550609 0.954471680312581
outer loop
vertex -195.137203408668 137.967518523584 56.1717891065925
vertex -174.415299339116 137.152399698958 56.426538697266
vertex -176.469192746544 137.967518523585 56.1717891065925
endloop
endfacet
facet normal -2.85219318055256e-16 0.298301544550609 0.954471680312581
outer loop
vertex -176.469192746544 137.967518523585 56.1717891065925
vertex -174.415299339116 137.152399698958 56.426538697266
vertex -176.371729329626 138.170366160592 56.1083930090719
endloop
endfacet
facet normal -2.85219318055256e-16 0.298301544550609 0.954471680312581
outer loop
vertex -176.371729329626 138.170366160592 56.1083930090719
vertex -174.415299339116 137.152399698958 56.426538697266
vertex -176.325639693259 138.403115782127 56.035651625823
endloop
endfacet
facet normal -2.85219318055256e-16 0.298301544550609 0.954471680312581
outer loop
vertex -176.325639693259 138.403115782127 56.035651625823
vertex -176.338892569339 139.149328896445 55.8024371794327
vertex -176.339661932193 138.653163700819 55.9575039950594
endloop
endfacet
facet normal -2.85219318055256e-16 0.298301544550609 0.954471680312581
outer loop
vertex -176.338892569339 139.149328896445 55.8024371794327
vertex -176.325639693259 138.403115782127 56.035651625823
vertex -174.412695056289 139.149328896445 55.8024371794328
endloop
endfacet
facet normal -2.85219318055256e-16 0.298301544550609 0.954471680312581
outer loop
vertex -174.412695056289 139.149328896445 55.8024371794328
vertex -176.325639693259 138.403115782127 56.035651625823
vertex -174.415299339116 137.152399698958 56.426538697266
endloop
endfacet
facet normal -2.85219318055256e-16 0.298301544550609 0.954471680312581
outer loop
vertex -197.191096816096 137.152399698958 56.426538697266
vertex -195.267503585874 139.149328896445 55.8024371794328
vertex -197.193701098923 139.149328896445 55.8024371794328
endloop
endfacet
facet normal -2.85219318055256e-16 0.298301544550609 0.954471680312581
outer loop
vertex -195.267503585874 139.149328896445 55.8024371794328
vertex -197.191096816096 137.152399698958 56.426538697266
vertex -195.280756461953 138.403115782127 56.0356516258232
endloop
endfacet
facet normal -2.85219318055256e-16 0.298301544550609 0.954471680312581
outer loop
vertex -195.267503585874 139.149328896445 55.8024371794328
vertex -195.280756461953 138.403115782127 56.0356516258232
vertex -195.266734223019 138.653163700819 55.9575039950595
endloop
endfacet
facet normal 0.112943661509175 -0.857877990832475 -0.501287424707759
outer loop
vertex -185.803198077606 163.885853579837 14.7161603813317
vertex -186.032805027028 139.79027080852 55.9001994315617
vertex -190.772523743575 163.231629444587 14.7161603813314
endloop
endfacet
facet normal 0.112943661509175 -0.857877990832475 -0.501287424707759
outer loop
vertex -186.032805027028 139.79027080852 55.9001994315617
vertex -185.803198077606 163.885853579837 14.7161603813317
vertex -185.803198077606 139.818242674511 55.9044659533228
endloop
endfacet
facet normal -2.87679254507565e-14 0.852890315997514 0.522090134821241
outer loop
vertex -197.154591802731 140.417441567717 55.9958611830142
vertex -200.453198077607 158.001174828105 27.2709441301326
vertex -203.264688134841 158.001174828105 27.2709441301325
endloop
endfacet
facet normal -0.332478612441387 -0.802674375355049 -0.495148280232731
outer loop
vertex -185.356925833042 139.707590580385 55.8875882960489
vertex -180.833872411638 163.231629444587 14.7161603813314
vertex -176.203198077606 161.313541332498 14.7161603813314
endloop
endfacet
facet normal 0.746325054516731 -0.572675356135527 -0.339178197229193
outer loop
vertex -199.379648276389 158.262303778619 14.7161603813316
vertex -195.01802668247 139.573966437769 55.8672067343585
vertex -202.430885830268 154.285853579837 14.7161603813315
endloop
endfacet
facet normal -0.978708730994424 -0.00112281347362228 0.205250966295381
outer loop
vertex -197.154591802731 140.417441567717 55.9958611830142
vertex -205.803198077607 133.085853579836 14.7161603813317
vertex -197.193701098923 139.149328896445 55.8024371794328
endloop
endfacet
facet normal -0.563220671376612 -0.728430225735269 -0.390092144972624
outer loop
vertex -176.77530606232 139.707590580385 55.8875882960489
vertex -176.203198077606 161.313541332498 14.7161603813314
vertex -176.588369472742 139.573966437769 55.8672067343584
endloop
endfacet
facet normal -0.978600200538761 -0.00396314902825776 0.205732692966567
outer loop
vertex -203.264688134841 158.001174828105 27.2709441301325
vertex -205.803198077607 133.085853579836 14.7161603813317
vertex -197.154591802731 140.417441567717 55.9958611830142
endloop
endfacet
facet normal -2.30458141799171e-16 1.0 -6.99440505513848e-15
outer loop
vertex -168.053198077606 158.001174828105 19.223703992058
vertex -168.341708020371 158.001174828105 27.2709441301326
vertex -166.714599221761 158.001174828105 19.223703992058
endloop
endfacet
facet normal -2.30458141799171e-16 1.0 -6.99440505513848e-15
outer loop
vertex -168.341708020371 158.001174828105 27.2709441301326
vertex -168.053198077606 158.001174828105 19.223703992058
vertex -171.153198077606 158.001174828105 19.2237039920581
endloop
endfacet
facet normal -2.30458141799171e-16 1.0 -6.99440505513848e-15
outer loop
vertex -168.341708020371 158.001174828105 27.2709441301326
vertex -171.153198077606 158.001174828105 19.2237039920581
vertex -171.153198077606 158.001174828105 27.2709441301326
endloop
endfacet
facet normal 0.978600200538762 -0.00396314902824858 0.205732692966566
outer loop
vertex -168.341708020371 158.001174828105 27.2709441301326
vertex -174.451804352482 140.417441567717 55.9958611830143
vertex -165.803198077605 133.085853579836 14.7161603813317
endloop
endfacet
facet normal 0.969605704739271 0.127649135696636 -0.208735419833251
outer loop
vertex -204.348973942357 139.716527913867 14.7161603813316
vertex -195.280756461953 138.403115782127 56.0356516258232
vertex -195.234666825586 138.170366160592 56.108393009072
endloop
endfacet
facet normal 0.969605704739271 0.127649135696636 -0.208735419833251
outer loop
vertex -195.280756461953 138.403115782127 56.0356516258232
vertex -204.348973942357 139.716527913867 14.7161603813316
vertex -205.003198077607 144.685853579836 14.7161603813317
endloop
endfacet
facet normal -0.748720527108248 -0.569878112209264 -0.338609671320169
outer loop
vertex -169.175510324944 154.285853579837 14.7161603813315
vertex -176.440506241657 139.395843156137 55.8400377618809
vertex -176.588369472742 139.573966437769 55.8672067343584
endloop
endfacet
facet normal 0.884482929934592 -0.366364825266392 -0.288906146459099
outer loop
vertex -202.430885830268 154.285853579837 14.7161603813315
vertex -195.165889913555 139.395843156137 55.8400377618809
vertex -204.348973942357 149.655179245804 14.7161603813317
endloop
endfacet
facet normal 0.160433655357664 0.849939457050145 0.501860500117197
outer loop
vertex -197.154591802731 140.417441567717 55.9958611830142
vertex -198.903198077607 160.685853579836 22.228733065874
vertex -200.453198077607 158.001174828105 27.2709441301326
endloop
endfacet
facet normal 0.961124299077275 -0.12653441446544 -0.245416225378651
outer loop
vertex -204.348973942357 149.655179245804 14.7161603813317
vertex -195.266734223019 138.653163700819 55.9575039950595
vertex -205.003198077607 144.685853579836 14.7161603813317
endloop
endfacet
facet normal 1.29775901292127e-14 0.852890315997514 0.522090134821239
outer loop
vertex -174.451804352482 140.417441567717 55.9958611830143
vertex -168.341708020371 158.001174828105 27.2709441301326
vertex -171.153198077606 158.001174828105 27.2709441301326
endloop
endfacet
facet normal 0.969963839692519 -0.071190143638484 -0.232598609492142
outer loop
vertex -204.348973942357 149.655179245804 14.7161603813317
vertex -195.267503585874 139.149328896445 55.8024371794328
vertex -195.266734223019 138.653163700819 55.9575039950595
endloop
endfacet
facet normal 0.885789356412181 -0.363525745193518 -0.288489598856512
outer loop
vertex -204.348973942357 149.655179245804 14.7161603813317
vertex -195.165889913555 139.395843156137 55.8400377618809
vertex -195.264035378275 139.182517837567 55.8074994566357
endloop
endfacet
facet normal 0.907221095971071 0.378599920559282 -0.183335711680934
outer loop
vertex -195.234666825586 138.170366160592 56.108393009072
vertex -195.137203408668 137.967518523584 56.1717891065925
vertex -200.464422191367 136.265576113607 26.2958829151028
endloop
endfacet
facet normal 0.560298977497022 -0.730195843851164 -0.390997551703689
outer loop
vertex -195.01802668247 139.573966437769 55.8672067343585
vertex -199.379648276389 158.262303778619 14.7161603813316
vertex -195.403198077607 161.313541332498 14.7161603813315
endloop
endfacet
facet normal 0.980164820018891 6.43929354282591e-15 0.198184069988824
outer loop
vertex -165.803198077606 164.685853579836 14.7161603813317
vertex -166.714599221761 158.001174828105 19.223703992058
vertex -165.803198077605 133.085853579836 14.7161603813317
endloop
endfacet
facet normal 0.980164820018891 6.43929354282591e-15 0.198184069988824
outer loop
vertex -166.714599221761 158.001174828105 19.223703992058
vertex -165.803198077606 164.685853579836 14.7161603813317
vertex -166.714599221761 162.285853579836 19.223703992058
endloop
endfacet
facet normal 0.980164820018891 6.43929354282591e-15 0.198184069988824
outer loop
vertex -168.341708020371 158.001174828105 27.2709441301326
vertex -165.803198077605 133.085853579836 14.7161603813317
vertex -166.714599221761 158.001174828105 19.223703992058
endloop
endfacet
facet normal -0.334794922847379 -0.801846092521214 -0.494929493507993
outer loop
vertex -185.573591128185 139.79027080852 55.9001994315617
vertex -180.833872411638 163.231629444587 14.7161603813314
vertex -185.356925833042 139.707590580385 55.8875882960489
endloop
endfacet
facet normal 0.960451277374037 -0.130701306965259 -0.245866858580317
outer loop
vertex -205.003198077607 144.685853579836 14.7161603813317
vertex -195.266734223019 138.653163700819 55.9575039950595
vertex -195.280756461953 138.403115782127 56.0356516258232
endloop
endfacet
facet normal -0.112943661509162 -0.857877990832477 -0.501287424707758
outer loop
vertex -185.573591128185 139.79027080852 55.9001994315617
vertex -185.803198077606 163.885853579837 14.7161603813317
vertex -180.833872411638 163.231629444587 14.7161603813314
endloop
endfacet
facet normal -0.112943661509162 -0.857877990832477 -0.501287424707758
outer loop
vertex -185.803198077606 163.885853579837 14.7161603813317
vertex -185.573591128185 139.79027080852 55.9001994315617
vertex -185.803198077606 139.818242674511 55.9044659533228
endloop
endfacet
facet normal -0.98016482001889 -4.14945855453652e-15 0.198184069988828
outer loop
vertex -205.803198077607 133.085853579836 14.7161603813317
vertex -204.891796933452 158.001174828105 19.223703992058
vertex -205.803198077607 164.685853579836 14.7161603813317
endloop
endfacet
facet normal -0.98016482001889 -4.14945855453652e-15 0.198184069988828
outer loop
vertex -204.891796933452 158.001174828105 19.223703992058
vertex -205.803198077607 133.085853579836 14.7161603813317
vertex -203.264688134841 158.001174828105 27.2709441301325
endloop
endfacet
facet normal -0.98016482001889 -4.14945855453652e-15 0.198184069988828
outer loop
vertex -205.803198077607 164.685853579836 14.7161603813317
vertex -204.891796933452 158.001174828105 19.223703992058
vertex -204.891796933452 162.285853579836 19.2237039920579
endloop
endfacet
facet normal -0.907221095970931 0.378599920559611 -0.183335711680946
outer loop
vertex -176.371729329626 138.170366160592 56.1083930090719
vertex -171.141973963845 136.265576113607 26.2958829151028
vertex -176.469192746544 137.967518523585 56.1717891065925
endloop
endfacet
facet normal -0.97059847112621 -0.0661245943139241 -0.231443612731658
outer loop
vertex -167.257422212855 149.655179245804 14.7161603813317
vertex -176.338892569339 139.149328896445 55.8024371794327
vertex -176.342360776937 139.182517837567 55.8074994566356
endloop
endfacet
facet normal -0.560298977497016 -0.730195843851169 -0.390997551703688
outer loop
vertex -176.588369472742 139.573966437769 55.8672067343584
vertex -176.203198077606 161.313541332498 14.7161603813314
vertex -172.226747878824 158.262303778619 14.7161603813315
endloop
endfacet
facet normal -0.906649645783494 0.375546579604268 -0.192226913693687
outer loop
vertex -167.257422212855 139.716527913868 14.7161603813316
vertex -169.175510324944 135.085853579835 14.7161603813318
vertex -171.141973963845 136.265576113607 26.2958829151028
endloop
endfacet
facet normal 0.332478612441393 -0.802674375355047 -0.495148280232731
outer loop
vertex -186.24947032217 139.707590580385 55.8875882960489
vertex -195.403198077607 161.313541332498 14.7161603813315
vertex -190.772523743575 163.231629444587 14.7161603813314
endloop
endfacet
facet normal -0.907221095970915 0.378599920559586 -0.183335711681077
outer loop
vertex -176.371729329626 138.170366160592 56.1083930090719
vertex -171.141973963845 136.265576113607 26.2958829151028
vertex -176.469192746544 137.967518523585 56.1717891065925
endloop
endfacet
facet normal -0.99736786101081 0.051270604749318 -0.0512706047493199
outer loop
vertex -171.049243665302 135.582736786136 23.8091596669922
vertex -170.710164300901 133.085853579836 14.7161603813316
vertex -171.049243665302 133.763603591029 21.9900264718851
endloop
endfacet
facet normal -0.499999999999987 0.866025403784446 2.91988657109855e-14
outer loop
vertex -168.803198077606 159.300212933781 19.2237039920579
vertex -168.471827227707 159.554482729937 14.7161603813316
vertex -168.803198077606 159.300212933781 14.7161603813316
endloop
endfacet
facet normal -0.707106781186513 0.707106781186582 3.41259993304813e-14
outer loop
vertex -168.471827227707 159.554482729937 14.7161603813316
vertex -168.803198077606 159.300212933781 19.2237039920579
vertex -168.471827227707 159.554482729937 19.2237039920579
endloop
endfacet
facet normal -0.969605704739271 0.127649135696636 -0.208735419833249
outer loop
vertex -176.325639693259 138.403115782127 56.035651625823
vertex -167.257422212855 139.716527913868 14.7161603813316
vertex -176.371729329626 138.170366160592 56.1083930090719
endloop
endfacet
facet normal -0.969605704739271 0.127649135696636 -0.208735419833249
outer loop
vertex -167.257422212855 139.716527913868 14.7161603813316
vertex -176.325639693259 138.403115782127 56.035651625823
vertex -166.603198077605 144.685853579836 14.7161603813317
endloop
endfacet
facet normal -0.961124299077272 -0.126534414465459 -0.245416225378652
outer loop
vertex -167.257422212855 149.655179245804 14.7161603813317
vertex -166.603198077605 144.685853579836 14.7161603813317
vertex -176.339661932193 138.653163700819 55.9575039950594
endloop
endfacet
facet normal -0.88448292993459 -0.366364825266396 -0.288906146459099
outer loop
vertex -169.175510324944 154.285853579837 14.7161603813315
vertex -167.257422212855 149.655179245804 14.7161603813317
vertex -176.440506241657 139.395843156137 55.8400377618809
endloop
endfacet
facet normal 0.86602540378447 0.499999999999946 -5.38905239632292e-15
outer loop
vertex -170.988838723661 159.885853579836 14.7161603813316
vertex -170.734568927504 159.554482729938 19.223703992058
vertex -170.734568927504 159.554482729937 14.7161603813318
endloop
endfacet
facet normal 0.707106781186696 0.707106781186399 1.36615977631468e-14
outer loop
vertex -170.734568927504 159.554482729938 19.223703992058
vertex -170.988838723661 159.885853579836 14.7161603813316
vertex -170.988838723661 159.885853579836 19.223703992058
endloop
endfacet
facet normal -0.25881904510255 -0.965925826289061 -1.07501097152624e-14
outer loop
vertex -169.189087605442 162.231334901898 19.2237039920579
vertex -169.603198077605 162.285853579836 14.7161603813316
vertex -169.189087605442 162.231334901898 14.7161603813316
endloop
endfacet
facet normal -1.039926524822e-14 -1.0 -7.13874473279139e-15
outer loop
vertex -169.603198077605 162.285853579836 14.7161603813316
vertex -169.189087605442 162.231334901898 19.2237039920579
vertex -169.603198077605 162.285853579836 19.2237039920579
endloop
endfacet
facet normal -0.96592582628908 -0.258819045102475 2.72952004489108e-15
outer loop
vertex -168.057716755543 161.099964052 19.223703992058
vertex -168.21755743155 161.485853579836 14.7161603813318
vertex -168.057716755543 161.099964052 14.7161603813317
endloop
endfacet
facet normal -0.866025403784418 -0.500000000000036 9.50432877169686e-15
outer loop
vertex -168.21755743155 161.485853579836 14.7161603813318
vertex -168.057716755543 161.099964052 19.223703992058
vertex -168.21755743155 161.485853579836 19.223703992058
endloop
endfacet
facet normal -5.58726590457101e-15 -1.0 -7.13874473279134e-15
outer loop
vertex -169.603198077605 162.285853579836 19.2237039920579
vertex -170.01730854977 162.231334901898 14.7161603813316
vertex -169.603198077605 162.285853579836 14.7161603813316
endloop
endfacet
facet normal 0.258819045102494 -0.965925826289075 -1.18419177332178e-14
outer loop
vertex -170.01730854977 162.231334901898 14.7161603813316
vertex -169.603198077605 162.285853579836 19.2237039920579
vertex -170.01730854977 162.231334901898 19.2237039920579
endloop
endfacet
facet normal -0.965925826289107 0.258819045102376 -2.49646102567305e-14
outer loop
vertex -168.057716755543 160.271743107672 19.223703992058
vertex -168.21755743155 159.885853579836 14.7161603813316
vertex -168.21755743155 159.885853579836 19.223703992058
endloop
endfacet
facet normal -0.866025403784587 0.499999999999743 1.22618438939747e-14
outer loop
vertex -168.21755743155 159.885853579836 14.7161603813316
vertex -168.057716755543 160.271743107672 19.223703992058
vertex -168.057716755543 160.271743107672 14.7161603813317
endloop
endfacet
facet normal -0.500000000000161 0.866025403784345 3.36780780923453e-14
outer loop
vertex -201.203198077607 159.300212933781 19.2237039920581
vertex -200.871827227708 159.554482729937 14.7161603813318
vertex -201.203198077607 159.300212933781 14.7161603813317
endloop
endfacet
facet normal -0.70710678118671 0.707106781186385 1.24298143582719e-14
outer loop
vertex -200.871827227708 159.554482729937 14.7161603813318
vertex -201.203198077607 159.300212933781 19.2237039920581
vertex -200.871827227708 159.554482729937 19.2237039920581
endloop
endfacet
facet normal 0.70710678118649 0.707106781186605 3.32301568542094e-14
outer loop
vertex -203.134568927505 159.554482729937 14.7161603813317
vertex -203.388838723662 159.885853579836 19.223703992058
vertex -203.134568927505 159.554482729937 19.223703992058
endloop
endfacet
facet normal 0.866025403784583 0.49999999999975 8.04858474775655e-15
outer loop
vertex -203.388838723662 159.885853579836 19.223703992058
vertex -203.134568927505 159.554482729937 14.7161603813317
vertex -203.388838723662 159.885853579836 14.7161603813317
endloop
endfacet
facet normal 2.32386105823823e-15 -0.15078510530036 0.98856656428364
outer loop
vertex -195.267503585874 139.149328896445 55.8024371794328
vertex -197.154591802731 140.417441567717 55.9958611830142
vertex -197.193701098923 139.149328896445 55.8024371794328
endloop
endfacet
facet normal 2.32386105823823e-15 -0.15078510530036 0.98856656428364
outer loop
vertex -197.154591802731 140.417441567717 55.9958611830142
vertex -195.267503585874 139.149328896445 55.8024371794328
vertex -195.264035378275 139.182517837567 55.8074994566357
endloop
endfacet
facet normal 2.32386105823823e-15 -0.15078510530036 0.98856656428364
outer loop
vertex -197.154591802731 140.417441567717 55.9958611830142
vertex -195.264035378275 139.182517837567 55.8074994566357
vertex -195.165889913555 139.395843156137 55.8400377618809
endloop
endfacet
facet normal 2.32386105823823e-15 -0.15078510530036 0.98856656428364
outer loop
vertex -197.154591802731 140.417441567717 55.9958611830142
vertex -195.165889913555 139.395843156137 55.8400377618809
vertex -195.01802668247 139.573966437769 55.8672067343585
endloop
endfacet
facet normal 2.32386105823823e-15 -0.15078510530036 0.98856656428364
outer loop
vertex -197.154591802731 140.417441567717 55.9958611830142
vertex -195.01802668247 139.573966437769 55.8672067343585
vertex -194.831090092892 139.707590580385 55.887588296049
endloop
endfacet
facet normal 2.32386105823823e-15 -0.15078510530036 0.98856656428364
outer loop
vertex -197.154591802731 140.417441567717 55.9958611830142
vertex -194.831090092892 139.707590580385 55.887588296049
vertex -174.451804352482 140.417441567717 55.9958611830143
endloop
endfacet
facet normal 2.32386105823823e-15 -0.15078510530036 0.98856656428364
outer loop
vertex -174.451804352482 140.417441567717 55.9958611830143
vertex -194.831090092892 139.707590580385 55.887588296049
vertex -185.803198077606 139.818242674511 55.9044659533228
endloop
endfacet
facet normal 2.32386105823823e-15 -0.15078510530036 0.98856656428364
outer loop
vertex -185.803198077606 139.818242674511 55.9044659533228
vertex -194.831090092892 139.707590580385 55.887588296049
vertex -186.032805027028 139.79027080852 55.9001994315617
endloop
endfacet
facet normal 2.32386105823823e-15 -0.15078510530036 0.98856656428364
outer loop
vertex -186.032805027028 139.79027080852 55.9001994315617
vertex -194.831090092892 139.707590580385 55.887588296049
vertex -186.24947032217 139.707590580385 55.8875882960489
endloop
endfacet
facet normal 2.32386105823823e-15 -0.15078510530036 0.98856656428364
outer loop
vertex -174.451804352482 140.417441567717 55.9958611830143
vertex -185.803198077606 139.818242674511 55.9044659533228
vertex -185.573591128185 139.79027080852 55.9001994315617
endloop
endfacet
facet normal 2.32386105823823e-15 -0.15078510530036 0.98856656428364
outer loop
vertex -174.451804352482 140.417441567717 55.9958611830143
vertex -185.573591128185 139.79027080852 55.9001994315617
vertex -185.356925833042 139.707590580385 55.8875882960489
endloop
endfacet
facet normal 2.32386105823823e-15 -0.15078510530036 0.98856656428364
outer loop
vertex -174.451804352482 140.417441567717 55.9958611830143
vertex -185.356925833042 139.707590580385 55.8875882960489
vertex -176.77530606232 139.707590580385 55.8875882960489
endloop
endfacet
facet normal 2.32386105823823e-15 -0.15078510530036 0.98856656428364
outer loop
vertex -174.451804352482 140.417441567717 55.9958611830143
vertex -176.77530606232 139.707590580385 55.8875882960489
vertex -176.588369472742 139.573966437769 55.8672067343584
endloop
endfacet
facet normal 2.32386105823823e-15 -0.15078510530036 0.98856656428364
outer loop
vertex -174.451804352482 140.417441567717 55.9958611830143
vertex -176.588369472742 139.573966437769 55.8672067343584
vertex -176.440506241657 139.395843156137 55.8400377618809
endloop
endfacet
facet normal 2.32386105823823e-15 -0.15078510530036 0.98856656428364
outer loop
vertex -174.451804352482 140.417441567717 55.9958611830143
vertex -176.440506241657 139.395843156137 55.8400377618809
vertex -176.342360776937 139.182517837567 55.8074994566356
endloop
endfacet
facet normal 2.32386105823823e-15 -0.15078510530036 0.98856656428364
outer loop
vertex -174.451804352482 140.417441567717 55.9958611830143
vertex -176.342360776937 139.182517837567 55.8074994566356
vertex -176.338892569339 139.149328896445 55.8024371794327
endloop
endfacet
facet normal 2.32386105823823e-15 -0.15078510530036 0.98856656428364
outer loop
vertex -174.451804352482 140.417441567717 55.9958611830143
vertex -176.338892569339 139.149328896445 55.8024371794327
vertex -174.412695056289 139.149328896445 55.8024371794328
endloop
endfacet
facet normal 0.500000000000001 0.866025403784438 3.11585211278302e-14
outer loop
vertex -202.803198077607 159.30021293378 19.223703992058
vertex -202.417308549771 159.140372257773 14.7161603813317
vertex -202.803198077607 159.300212933781 14.7161603813317
endloop
endfacet
facet normal 0.258819045102439 0.96592582628909 3.02066884967926e-14
outer loop
vertex -202.417308549771 159.140372257773 14.7161603813317
vertex -202.803198077607 159.30021293378 19.223703992058
vertex -202.417308549771 159.140372257773 19.2237039920581
endloop
endfacet
facet normal 0.70710678118649 0.707106781186605 3.32301568542094e-14
outer loop
vertex -203.134568927505 159.554482729937 14.7161603813317
vertex -202.803198077607 159.30021293378 19.223703992058
vertex -202.803198077607 159.300212933781 14.7161603813317
endloop
endfacet
facet normal 0.500000000000001 0.866025403784438 3.11585211278302e-14
outer loop
vertex -202.803198077607 159.30021293378 19.223703992058
vertex -203.134568927505 159.554482729937 14.7161603813317
vertex -203.134568927505 159.554482729937 19.223703992058
endloop
endfacet
facet normal -0.707106781186706 0.707106781186389 1.24298143582726e-14
outer loop
vertex -200.871827227708 159.554482729937 19.2237039920581
vertex -200.617557431552 159.885853579836 14.7161603813316
vertex -200.871827227708 159.554482729937 14.7161603813318
endloop
endfacet
facet normal -0.86602540378446 0.499999999999963 -3.19143882171863e-15
outer loop
vertex -200.617557431552 159.885853579836 14.7161603813316
vertex -200.871827227708 159.554482729937 19.2237039920581
vertex -200.617557431552 159.885853579836 19.223703992058
endloop
endfacet
facet normal -0.99736786101081 0.051270604749318 -0.0512706047493199
outer loop
vertex -171.049243665302 135.582736786136 23.8091596669922
vertex -170.710164300901 133.085853579836 14.7161603813316
vertex -171.049243665302 133.763603591029 21.9900264718851
endloop
endfacet
facet normal -3.36170074779984e-15 5.16253706450698e-15 1.0
outer loop
vertex -204.891796933452 162.285853579836 19.2237039920579
vertex -202.417308549771 162.231334901898 19.223703992058
vertex -202.003198077607 162.285853579836 19.2237039920581
endloop
endfacet
facet normal -3.36170074779984e-15 5.16253706450698e-15 1.0
outer loop
vertex -202.417308549771 162.231334901898 19.223703992058
vertex -204.891796933452 162.285853579836 19.2237039920579
vertex -202.803198077607 162.071494225891 19.223703992058
endloop
endfacet
facet normal -3.36170074779984e-15 5.16253706450698e-15 1.0
outer loop
vertex -202.803198077607 162.071494225891 19.223703992058
vertex -204.891796933452 162.285853579836 19.2237039920579
vertex -203.134568927505 161.817224429734 19.223703992058
endloop
endfacet
facet normal -3.36170074779984e-15 5.16253706450698e-15 1.0
outer loop
vertex -203.134568927505 161.817224429734 19.223703992058
vertex -204.891796933452 162.285853579836 19.2237039920579
vertex -203.388838723662 161.485853579836 19.223703992058
endloop
endfacet
facet normal -3.36170074779984e-15 5.16253706450698e-15 1.0
outer loop
vertex -203.388838723662 161.485853579836 19.223703992058
vertex -204.891796933452 162.285853579836 19.2237039920579
vertex -203.548679399669 161.099964052 19.223703992058
endloop
endfacet
facet normal -3.36170074779984e-15 5.16253706450698e-15 1.0
outer loop
vertex -203.548679399669 161.099964052 19.223703992058
vertex -204.891796933452 162.285853579836 19.2237039920579
vertex -203.603198077607 160.685853579836 19.223703992058
endloop
endfacet
facet normal -3.36170074779984e-15 5.16253706450698e-15 1.0
outer loop
vertex -203.553198077607 158.001174828105 19.2237039920581
vertex -204.891796933452 162.285853579836 19.2237039920579
vertex -204.891796933452 158.001174828105 19.223703992058
endloop
endfacet
facet normal -3.36170074779984e-15 5.16253706450698e-15 1.0
outer loop
vertex -204.891796933452 162.285853579836 19.2237039920579
vertex -203.553198077607 158.001174828105 19.2237039920581
vertex -203.603198077607 160.685853579836 19.223703992058
endloop
endfacet
facet normal -3.36170074779984e-15 5.16253706450698e-15 1.0
outer loop
vertex -203.603198077607 160.685853579836 19.223703992058
vertex -203.553198077607 158.001174828105 19.2237039920581
vertex -203.548679399669 160.271743107672 19.223703992058
endloop
endfacet
facet normal -3.36170074779984e-15 5.16253706450698e-15 1.0
outer loop
vertex -203.548679399669 160.271743107672 19.223703992058
vertex -203.553198077607 158.001174828105 19.2237039920581
vertex -203.388838723662 159.885853579836 19.223703992058
endloop
endfacet
facet normal -3.36170074779984e-15 5.16253706450698e-15 1.0
outer loop
vertex -203.388838723662 159.885853579836 19.223703992058
vertex -203.553198077607 158.001174828105 19.2237039920581
vertex -203.134568927505 159.554482729937 19.223703992058
endloop
endfacet
facet normal -3.36170074779984e-15 5.16253706450698e-15 1.0
outer loop
vertex -203.134568927505 159.554482729937 19.223703992058
vertex -203.553198077607 158.001174828105 19.2237039920581
vertex -202.803198077607 159.30021293378 19.223703992058
endloop
endfacet
facet normal -3.36170074779984e-15 5.16253706450698e-15 1.0
outer loop
vertex -202.803198077607 159.30021293378 19.223703992058
vertex -203.553198077607 158.001174828105 19.2237039920581
vertex -200.453198077607 158.001174828105 19.2237039920581
endloop
endfacet
facet normal -3.36170074779984e-15 5.16253706450698e-15 1.0
outer loop
vertex -202.803198077607 159.30021293378 19.223703992058
vertex -200.453198077607 158.001174828105 19.2237039920581
vertex -202.417308549771 159.140372257773 19.2237039920581
endloop
endfacet
facet normal -3.36170074779984e-15 5.16253706450698e-15 1.0
outer loop
vertex -202.417308549771 159.140372257773 19.2237039920581
vertex -200.453198077607 158.001174828105 19.2237039920581
vertex -202.003198077607 159.085853579836 19.223703992058
endloop
endfacet
facet normal -3.36170074779984e-15 5.16253706450698e-15 1.0
outer loop
vertex -202.003198077607 159.085853579836 19.223703992058
vertex -200.453198077607 158.001174828105 19.2237039920581
vertex -201.589087605443 159.140372257773 19.223703992058
endloop
endfacet
facet normal -3.36170074779984e-15 5.16253706450698e-15 1.0
outer loop
vertex -201.589087605443 159.140372257773 19.223703992058
vertex -200.453198077607 158.001174828105 19.2237039920581
vertex -201.203198077607 159.300212933781 19.2237039920581
endloop
endfacet
facet normal -3.36170074779984e-15 5.16253706450698e-15 1.0
outer loop
vertex -201.203198077607 159.300212933781 19.2237039920581
vertex -200.453198077607 158.001174828105 19.2237039920581
vertex -200.871827227708 159.554482729937 19.2237039920581
endloop
endfacet
facet normal -3.36170074779984e-15 5.16253706450698e-15 1.0
outer loop
vertex -200.871827227708 159.554482729937 19.2237039920581
vertex -200.453198077607 158.001174828105 19.2237039920581
vertex -200.617557431552 159.885853579836 19.223703992058
endloop
endfacet
facet normal -3.36170074779984e-15 5.16253706450698e-15 1.0
outer loop
vertex -200.617557431552 159.885853579836 19.223703992058
vertex -200.453198077607 158.001174828105 19.2237039920581
vertex -200.457716755544 160.271743107672 19.223703992058
endloop
endfacet
facet normal -3.36170074779984e-15 5.16253706450698e-15 1.0
outer loop
vertex -200.457716755544 160.271743107672 19.223703992058
vertex -200.453198077607 158.001174828105 19.2237039920581
vertex -200.403198077607 160.685853579836 19.223703992058
endloop
endfacet
facet normal -3.36170074779984e-15 5.16253706450698e-15 1.0
outer loop
vertex -200.403198077607 160.685853579836 19.223703992058
vertex -200.453198077607 158.001174828105 19.2237039920581
vertex -198.903198077607 160.685853579836 19.223703992058
endloop
endfacet
facet normal -3.36170074779984e-15 5.16253706450698e-15 1.0
outer loop
vertex -200.403198077607 160.685853579836 19.223703992058
vertex -198.903198077607 160.685853579836 19.223703992058
vertex -199.82695850831 162.285853579836 19.223703992058
endloop
endfacet
facet normal -3.36170074779984e-15 5.16253706450698e-15 1.0
outer loop
vertex -201.589087605443 162.231334901898 19.223703992058
vertex -199.82695850831 162.285853579836 19.223703992058
vertex -202.003198077607 162.285853579836 19.2237039920581
endloop
endfacet
facet normal -3.36170074779984e-15 5.16253706450698e-15 1.0
outer loop
vertex -199.82695850831 162.285853579836 19.223703992058
vertex -201.589087605443 162.231334901898 19.223703992058
vertex -201.203198077607 162.071494225891 19.223703992058
endloop
endfacet
facet normal -3.36170074779984e-15 5.16253706450698e-15 1.0
outer loop
vertex -199.82695850831 162.285853579836 19.223703992058
vertex -201.203198077607 162.071494225891 19.223703992058
vertex -200.871827227708 161.817224429734 19.223703992058
endloop
endfacet
facet normal -3.36170074779984e-15 5.16253706450698e-15 1.0
outer loop
vertex -199.82695850831 162.285853579836 19.223703992058
vertex -200.871827227708 161.817224429734 19.223703992058
vertex -200.617557431552 161.485853579836 19.223703992058
endloop
endfacet
facet normal -3.36170074779984e-15 5.16253706450698e-15 1.0
outer loop
vertex -199.82695850831 162.285853579836 19.223703992058
vertex -200.617557431552 161.485853579836 19.223703992058
vertex -200.457716755544 161.099964052 19.223703992058
endloop
endfacet
facet normal -3.36170074779984e-15 5.16253706450698e-15 1.0
outer loop
vertex -199.82695850831 162.285853579836 19.223703992058
vertex -200.457716755544 161.099964052 19.223703992058
vertex -200.403198077607 160.685853579836 19.223703992058
endloop
endfacet
facet normal 0.258819045102625 -0.96592582628904 -3.03466638837092e-14
outer loop
vertex -202.417308549771 162.231334901898 14.7161603813317
vertex -202.803198077607 162.071494225891 19.223703992058
vertex -202.803198077607 162.071494225891 14.7161603813317
endloop
endfacet
facet normal 0.49999999999992 -0.866025403784485 -2.9646786949121e-14
outer loop
vertex -202.803198077607 162.071494225891 19.223703992058
vertex -202.417308549771 162.231334901898 14.7161603813317
vertex -202.417308549771 162.231334901898 19.223703992058
endloop
endfacet
facet normal -0.707106781186513 -0.707106781186582 -3.98369951167154e-14
outer loop
vertex -200.871827227708 161.817224429734 19.223703992058
vertex -200.617557431552 161.485853579836 14.7161603813318
vertex -200.617557431552 161.485853579836 19.223703992058
endloop
endfacet
facet normal -0.86602540378435 -0.500000000000154 -1.87287067695577e-14
outer loop
vertex -200.617557431552 161.485853579836 14.7161603813318
vertex -200.871827227708 161.817224429734 19.223703992058
vertex -200.871827227708 161.817224429734 14.7161603813318
endloop
endfacet
facet normal 0.906649645783486 0.375546579604288 -0.192226913693687
outer loop
vertex -204.348973942357 139.716527913867 14.7161603813316
vertex -200.464422191367 136.265576113607 26.2958829151028
vertex -202.430885830268 135.085853579835 14.7161603813318
endloop
endfacet
facet normal -4.12882946223796e-15 0.964305414772992 -0.264792498080078
outer loop
vertex -200.55715248991 135.582736786136 23.8091596669922
vertex -171.141973963845 136.265576113607 26.2958829151028
vertex -171.049243665302 135.582736786136 23.8091596669922
endloop
endfacet
facet normal -4.12882946223796e-15 0.964305414772992 -0.264792498080078
outer loop
vertex -171.141973963845 136.265576113607 26.2958829151028
vertex -200.55715248991 135.582736786136 23.8091596669922
vertex -200.464422191367 136.265576113607 26.2958829151028
endloop
endfacet
facet normal 0.9659258262891 0.258819045102401 -2.46566644055121e-14
outer loop
vertex -203.548679399669 160.271743107672 14.7161603813318
vertex -203.388838723662 159.885853579836 19.223703992058
vertex -203.388838723662 159.885853579836 14.7161603813317
endloop
endfacet
facet normal 0.866025403784583 0.49999999999975 8.04858474775655e-15
outer loop
vertex -203.388838723662 159.885853579836 19.223703992058
vertex -203.548679399669 160.271743107672 14.7161603813318
vertex -203.548679399669 160.271743107672 19.223703992058
endloop
endfacet
facet normal 0.866025403784425 -0.500000000000023 1.17859275784517e-14
outer loop
vertex -203.388838723662 161.485853579836 14.7161603813318
vertex -203.548679399669 161.099964052 19.223703992058
vertex -203.54867939967 161.099964052 14.7161603813318
endloop
endfacet
facet normal 0.965925826289064 -0.258819045102536 3.89831452565184e-15
outer loop
vertex -203.548679399669 161.099964052 19.223703992058
vertex -203.388838723662 161.485853579836 14.7161603813318
vertex -203.388838723662 161.485853579836 19.223703992058
endloop
endfacet
facet normal 0.778430183347902 0.59731048794029 -0.193045669854272
outer loop
vertex -202.430885830268 135.085853579835 14.7161603813318
vertex -200.55715248991 135.582736786136 23.8091596669922
vertex -200.896231854311 133.085853579836 14.7161603813316
endloop
endfacet
facet normal 0.778430183347902 0.59731048794029 -0.193045669854272
outer loop
vertex -200.55715248991 135.582736786136 23.8091596669922
vertex -202.430885830268 135.085853579835 14.7161603813318
vertex -200.464422191367 136.265576113607 26.2958829151028
endloop
endfacet
facet normal 0.70710678118639 -0.707106781186706 -2.04364064899681e-15
outer loop
vertex -203.134568927505 161.817224429734 14.7161603813317
vertex -203.388838723662 161.485853579836 19.223703992058
vertex -203.388838723662 161.485853579836 14.7161603813318
endloop
endfacet
facet normal 0.866025403784423 -0.500000000000027 1.17859275784518e-14
outer loop
vertex -203.388838723662 161.485853579836 19.223703992058
vertex -203.134568927505 161.817224429734 14.7161603813317
vertex -203.134568927505 161.817224429734 19.223703992058
endloop
endfacet
facet normal -0.965925826289054 -0.258819045102575 1.16949435769563e-14
outer loop
vertex -200.457716755544 161.099964052 19.223703992058
vertex -200.403198077607 160.685853579836 14.7161603813318
vertex -200.403198077607 160.685853579836 19.223703992058
endloop
endfacet
facet normal -1.0 1.30333893333718e-13 1.21918562005112e-14
outer loop
vertex -200.403198077607 160.685853579836 14.7161603813318
vertex -200.457716755544 161.099964052 19.223703992058
vertex -200.457716755544 161.099964052 14.7161603813318
endloop
endfacet
facet normal -8.85850187505523e-15 1.0 -1.02695629777827e-14
outer loop
vertex -203.264688134841 158.001174828105 27.2709441301325
vertex -203.553198077607 158.001174828105 19.2237039920581
vertex -204.891796933452 158.001174828105 19.223703992058
endloop
endfacet
facet normal -8.85850187505523e-15 1.0 -1.02695629777827e-14
outer loop
vertex -203.553198077607 158.001174828105 19.2237039920581
vertex -203.264688134841 158.001174828105 27.2709441301325
vertex -200.453198077607 158.001174828105 19.2237039920581
endloop
endfacet
facet normal -8.85850187505523e-15 1.0 -1.02695629777827e-14
outer loop
vertex -200.453198077607 158.001174828105 19.2237039920581
vertex -203.264688134841 158.001174828105 27.2709441301325
vertex -200.453198077607 158.001174828105 27.2709441301326
endloop
endfacet
facet normal -0.258819045102526 -0.965925826289067 -2.86669592406971e-14
outer loop
vertex -201.589087605443 162.231334901898 14.7161603813317
vertex -202.003198077607 162.285853579836 19.2237039920581
vertex -202.003198077607 162.285853579836 14.7161603813316
endloop
endfacet
facet normal -8.19822110399622e-16 -1.0 -1.79168495254375e-14
outer loop
vertex -202.003198077607 162.285853579836 19.2237039920581
vertex -201.589087605443 162.231334901898 14.7161603813317
vertex -201.589087605443 162.231334901898 19.223703992058
endloop
endfacet
facet normal 2.56088594123349e-15 -0.995687175123995 0.0927741844135525
outer loop
vertex -200.55715248991 133.763603591028 21.9900264718852
vertex -205.803198077607 133.085853579836 14.7161603813317
vertex -200.896231854311 133.085853579836 14.7161603813316
endloop
endfacet
facet normal 2.56088594123349e-15 -0.995687175123995 0.0927741844135525
outer loop
vertex -205.803198077607 133.085853579836 14.7161603813317
vertex -200.55715248991 133.763603591028 21.9900264718852
vertex -200.464422191367 133.94895241338 23.9792592148755
endloop
endfacet
facet normal 5.61399923425717e-15 1.0 3.30901814672906e-14
outer loop
vertex -202.003198077607 159.085853579836 14.7161603813317
vertex -201.589087605443 159.140372257773 19.223703992058
vertex -201.589087605443 159.140372257773 14.7161603813317
endloop
endfacet
facet normal -0.258819045102402 0.9659258262891 3.88291723309094e-14
outer loop
vertex -201.589087605443 159.140372257773 19.223703992058
vertex -202.003198077607 159.085853579836 14.7161603813317
vertex -202.003198077607 159.085853579836 19.223703992058
endloop
endfacet
facet normal -0.86602540378435 -0.500000000000154 -1.87287067695576e-14
outer loop
vertex -200.617557431552 161.485853579836 19.223703992058
vertex -200.457716755544 161.099964052 14.7161603813318
vertex -200.457716755544 161.099964052 19.223703992058
endloop
endfacet
facet normal -0.965925826289052 -0.258819045102583 1.16949435769555e-14
outer loop
vertex -200.457716755544 161.099964052 14.7161603813318
vertex -200.617557431552 161.485853579836 19.223703992058
vertex -200.617557431552 161.485853579836 14.7161603813318
endloop
endfacet
facet normal -0.866025403784451 0.499999999999978 -3.19143882171826e-15
outer loop
vertex -200.617557431552 159.885853579836 19.223703992058
vertex -200.457716755544 160.271743107672 14.7161603813317
vertex -200.617557431552 159.885853579836 14.7161603813316
endloop
endfacet
facet normal -0.965925826289075 0.258819045102498 -2.94648189461336e-15
outer loop
vertex -200.457716755544 160.271743107672 14.7161603813317
vertex -200.617557431552 159.885853579836 19.223703992058
vertex -200.457716755544 160.271743107672 19.223703992058
endloop
endfacet
facet normal 1.0 1.60043533725845e-13 -1.5677243334758e-14
outer loop
vertex -203.603198077607 160.685853579836 14.7161603813317
vertex -203.548679399669 160.271743107672 19.223703992058
vertex -203.548679399669 160.271743107672 14.7161603813318
endloop
endfacet
facet normal 0.9659258262891 0.258819045102402 -2.46566644055121e-14
outer loop
vertex -203.548679399669 160.271743107672 19.223703992058
vertex -203.603198077607 160.685853579836 14.7161603813317
vertex -203.603198077607 160.685853579836 19.223703992058
endloop
endfacet
facet normal -3.60159677600516e-15 0.882679861224987 0.469974746755438
outer loop
vertex -198.903198077607 160.685853579836 22.228733065874
vertex -171.779437646903 162.285853579836 19.223703992058
vertex -199.82695850831 162.285853579836 19.223703992058
endloop
endfacet
facet normal -3.60159677600516e-15 0.882679861224987 0.469974746755438
outer loop
vertex -171.779437646903 162.285853579836 19.223703992058
vertex -198.903198077607 160.685853579836 22.228733065874
vertex -172.703198077606 160.685853579836 22.2287330658741
endloop
endfacet
facet normal 0.997367861010812 0.0512706047492938 -0.0512706047492957
outer loop
vertex -200.55715248991 135.582736786136 23.8091596669922
vertex -200.55715248991 133.763603591028 21.9900264718852
vertex -200.896231854311 133.085853579836 14.7161603813316
endloop
endfacet
facet normal -3.85364479915866e-15 0.707106781186535 -0.70710678118656
outer loop
vertex -171.049243665302 135.582736786136 23.8091596669922
vertex -200.55715248991 133.763603591028 21.9900264718852
vertex -200.55715248991 135.582736786136 23.8091596669922
endloop
endfacet
facet normal -3.85364479915866e-15 0.707106781186535 -0.70710678118656
outer loop
vertex -200.55715248991 133.763603591028 21.9900264718852
vertex -171.049243665302 135.582736786136 23.8091596669922
vertex -171.049243665302 133.763603591029 21.9900264718851
endloop
endfacet
facet normal 4.59502494158381e-15 -0.99516175531591 0.0982500929086416
outer loop
vertex -171.141973963845 133.94895241338 23.9792592148755
vertex -197.191096816096 137.152399698958 56.426538697266
vertex -200.464422191367 133.94895241338 23.9792592148755
endloop
endfacet
facet normal 4.59502494158381e-15 -0.99516175531591 0.0982500929086416
outer loop
vertex -197.191096816096 137.152399698958 56.426538697266
vertex -171.141973963845 133.94895241338 23.9792592148755
vertex -174.415299339116 137.152399698958 56.426538697266
endloop
endfacet
facet normal 9.25372416638392e-16 -3.44169137633798e-15 -1.0
outer loop
vertex -205.803198077607 164.685853579836 14.7161603813317
vertex -203.603198077607 160.685853579836 14.7161603813317
vertex -205.003198077607 144.685853579836 14.7161603813317
endloop
endfacet
facet normal 9.25372416638392e-16 -3.44169137633798e-15 -1.0
outer loop
vertex -203.603198077607 160.685853579836 14.7161603813317
vertex -205.803198077607 164.685853579836 14.7161603813317
vertex -203.54867939967 161.099964052 14.7161603813318
endloop
endfacet
facet normal 9.25372416638392e-16 -3.44169137633798e-15 -1.0
outer loop
vertex -203.54867939967 161.099964052 14.7161603813318
vertex -205.803198077607 164.685853579836 14.7161603813317
vertex -203.388838723662 161.485853579836 14.7161603813318
endloop
endfacet
facet normal 9.25372416638392e-16 -3.44169137633798e-15 -1.0
outer loop
vertex -203.388838723662 161.485853579836 14.7161603813318
vertex -205.803198077607 164.685853579836 14.7161603813317
vertex -203.134568927505 161.817224429734 14.7161603813317
endloop
endfacet
facet normal 9.25372416638392e-16 -3.44169137633798e-15 -1.0
outer loop
vertex -203.134568927505 161.817224429734 14.7161603813317
vertex -205.803198077607 164.685853579836 14.7161603813317
vertex -202.803198077607 162.071494225891 14.7161603813317
endloop
endfacet
facet normal 9.25372416638392e-16 -3.44169137633798e-15 -1.0
outer loop
vertex -202.803198077607 162.071494225891 14.7161603813317
vertex -205.803198077607 164.685853579836 14.7161603813317
vertex -202.417308549771 162.231334901898 14.7161603813317
endloop
endfacet
facet normal 9.25372416638392e-16 -3.44169137633798e-15 -1.0
outer loop
vertex -202.417308549771 162.231334901898 14.7161603813317
vertex -205.803198077607 164.685853579836 14.7161603813317
vertex -202.003198077607 162.285853579836 14.7161603813316
endloop
endfacet
facet normal 9.25372416638392e-16 -3.44169137633798e-15 -1.0
outer loop
vertex -202.003198077607 162.285853579836 14.7161603813316
vertex -205.803198077607 164.685853579836 14.7161603813317
vertex -185.803198077606 163.885853579837 14.7161603813317
endloop
endfacet
facet normal 9.25372416638392e-16 -3.44169137633798e-15 -1.0
outer loop
vertex -185.803198077606 163.885853579837 14.7161603813317
vertex -205.803198077607 164.685853579836 14.7161603813317
vertex -165.803198077606 164.685853579836 14.7161603813317
endloop
endfacet
facet normal 9.25372416638392e-16 -3.44169137633798e-15 -1.0
outer loop
vertex -205.003198077607 144.685853579836 14.7161603813317
vertex -203.603198077607 160.685853579836 14.7161603813317
vertex -204.348973942357 149.655179245804 14.7161603813317
endloop
endfacet
facet normal 9.25372416638392e-16 -3.44169137633798e-15 -1.0
outer loop
vertex -202.003198077607 162.285853579836 14.7161603813316
vertex -185.803198077606 163.885853579837 14.7161603813317
vertex -201.589087605443 162.231334901898 14.7161603813317
endloop
endfacet
facet normal 9.25372416638392e-16 -3.44169137633798e-15 -1.0
outer loop
vertex -201.589087605443 162.231334901898 14.7161603813317
vertex -185.803198077606 163.885853579837 14.7161603813317
vertex -201.203198077607 162.071494225891 14.7161603813318
endloop
endfacet
facet normal 9.25372416638392e-16 -3.44169137633798e-15 -1.0
outer loop
vertex -201.203198077607 162.071494225891 14.7161603813318
vertex -185.803198077606 163.885853579837 14.7161603813317
vertex -190.772523743575 163.231629444587 14.7161603813314
endloop
endfacet
facet normal 9.25372416638392e-16 -3.44169137633798e-15 -1.0
outer loop
vertex -201.203198077607 162.071494225891 14.7161603813318
vertex -190.772523743575 163.231629444587 14.7161603813314
vertex -200.871827227708 161.817224429734 14.7161603813318
endloop
endfacet
facet normal 9.25372416638392e-16 -3.44169137633798e-15 -1.0
outer loop
vertex -200.871827227708 161.817224429734 14.7161603813318
vertex -190.772523743575 163.231629444587 14.7161603813314
vertex -200.617557431552 161.485853579836 14.7161603813318
endloop
endfacet
facet normal 9.25372416638392e-16 -3.44169137633798e-15 -1.0
outer loop
vertex -200.617557431552 161.485853579836 14.7161603813318
vertex -190.772523743575 163.231629444587 14.7161603813314
vertex -200.457716755544 161.099964052 14.7161603813318
endloop
endfacet
facet normal 9.25372416638392e-16 -3.44169137633798e-15 -1.0
outer loop
vertex -200.457716755544 161.099964052 14.7161603813318
vertex -190.772523743575 163.231629444587 14.7161603813314
vertex -200.403198077607 160.685853579836 14.7161603813318
endloop
endfacet
facet normal 9.25372416638392e-16 -3.44169137633798e-15 -1.0
outer loop
vertex -200.403198077607 160.685853579836 14.7161603813318
vertex -190.772523743575 163.231629444587 14.7161603813314
vertex -195.403198077607 161.313541332498 14.7161603813315
endloop
endfacet
facet normal 9.25372416638392e-16 -3.44169137633798e-15 -1.0
outer loop
vertex -200.403198077607 160.685853579836 14.7161603813318
vertex -195.403198077607 161.313541332498 14.7161603813315
vertex -199.379648276389 158.262303778619 14.7161603813316
endloop
endfacet
facet normal 9.25372416638392e-16 -3.44169137633798e-15 -1.0
outer loop
vertex -185.803198077606 163.885853579837 14.7161603813317
vertex -165.803198077606 164.685853579836 14.7161603813317
vertex -180.833872411638 163.231629444587 14.7161603813314
endloop
endfacet
facet normal 9.25372416638392e-16 -3.44169137633798e-15 -1.0
outer loop
vertex -180.833872411638 163.231629444587 14.7161603813314
vertex -165.803198077606 164.685853579836 14.7161603813317
vertex -176.203198077606 161.313541332498 14.7161603813314
endloop
endfacet
facet normal 9.25372416638392e-16 -3.44169137633798e-15 -1.0
outer loop
vertex -176.203198077606 161.313541332498 14.7161603813314
vertex -165.803198077606 164.685853579836 14.7161603813317
vertex -170.403198077606 162.071494225891 14.7161603813318
endloop
endfacet
facet normal 9.25372416638392e-16 -3.44169137633798e-15 -1.0
outer loop
vertex -176.203198077606 161.313541332498 14.7161603813314
vertex -170.403198077606 162.071494225891 14.7161603813318
vertex -170.734568927504 161.817224429734 14.7161603813318
endloop
endfacet
facet normal 9.25372416638392e-16 -3.44169137633798e-15 -1.0
outer loop
vertex -176.203198077606 161.313541332498 14.7161603813314
vertex -170.734568927504 161.817224429734 14.7161603813318
vertex -170.988838723661 161.485853579836 14.7161603813318
endloop
endfacet
facet normal 9.25372416638392e-16 -3.44169137633798e-15 -1.0
outer loop
vertex -176.203198077606 161.313541332498 14.7161603813314
vertex -170.988838723661 161.485853579836 14.7161603813318
vertex -171.148679399668 161.099964052 14.7161603813318
endloop
endfacet
facet normal 9.25372416638392e-16 -3.44169137633798e-15 -1.0
outer loop
vertex -176.203198077606 161.313541332498 14.7161603813314
vertex -171.148679399668 161.099964052 14.7161603813318
vertex -172.226747878824 158.262303778619 14.7161603813315
endloop
endfacet
facet normal 9.25372416638392e-16 -3.44169137633798e-15 -1.0
outer loop
vertex -172.226747878824 158.262303778619 14.7161603813315
vertex -171.148679399668 161.099964052 14.7161603813318
vertex -171.203198077606 160.685853579836 14.7161603813317
endloop
endfacet
facet normal 9.25372416638392e-16 -3.44169137633798e-15 -1.0
outer loop
vertex -170.403198077606 162.071494225891 14.7161603813318
vertex -165.803198077606 164.685853579836 14.7161603813317
vertex -170.01730854977 162.231334901898 14.7161603813316
endloop
endfacet
facet normal 9.25372416638392e-16 -3.44169137633798e-15 -1.0
outer loop
vertex -170.01730854977 162.231334901898 14.7161603813316
vertex -165.803198077606 164.685853579836 14.7161603813317
vertex -169.603198077605 162.285853579836 14.7161603813316
endloop
endfacet
facet normal 9.25372416638392e-16 -3.44169137633798e-15 -1.0
outer loop
vertex -169.603198077605 162.285853579836 14.7161603813316
vertex -165.803198077606 164.685853579836 14.7161603813317
vertex -169.189087605442 162.231334901898 14.7161603813316
endloop
endfacet
facet normal 9.25372416638392e-16 -3.44169137633798e-15 -1.0
outer loop
vertex -169.189087605442 162.231334901898 14.7161603813316
vertex -165.803198077606 164.685853579836 14.7161603813317
vertex -168.803198077606 162.071494225891 14.7161603813316
endloop
endfacet
facet normal 9.25372416638392e-16 -3.44169137633798e-15 -1.0
outer loop
vertex -168.803198077606 162.071494225891 14.7161603813316
vertex -165.803198077606 164.685853579836 14.7161603813317
vertex -168.471827227707 161.817224429734 14.7161603813316
endloop
endfacet
facet normal 9.25372416638392e-16 -3.44169137633798e-15 -1.0
outer loop
vertex -168.471827227707 161.817224429734 14.7161603813316
vertex -165.803198077606 164.685853579836 14.7161603813317
vertex -168.21755743155 161.485853579836 14.7161603813318
endloop
endfacet
facet normal 9.25372416638392e-16 -3.44169137633798e-15 -1.0
outer loop
vertex -168.21755743155 161.485853579836 14.7161603813318
vertex -165.803198077606 164.685853579836 14.7161603813317
vertex -168.057716755543 161.099964052 14.7161603813317
endloop
endfacet
facet normal 9.25372416638392e-16 -3.44169137633798e-15 -1.0
outer loop
vertex -168.057716755543 161.099964052 14.7161603813317
vertex -165.803198077606 164.685853579836 14.7161603813317
vertex -168.003198077606 160.685853579836 14.7161603813317
endloop
endfacet
facet normal 9.25372416638392e-16 -3.44169137633798e-15 -1.0
outer loop
vertex -168.003198077606 160.685853579836 14.7161603813317
vertex -165.803198077606 164.685853579836 14.7161603813317
vertex -167.257422212855 149.655179245804 14.7161603813317
endloop
endfacet
facet normal 9.25372416638392e-16 -3.44169137633798e-15 -1.0
outer loop
vertex -167.257422212855 149.655179245804 14.7161603813317
vertex -165.803198077606 164.685853579836 14.7161603813317
vertex -166.603198077605 144.685853579836 14.7161603813317
endloop
endfacet
facet normal 9.25372416638392e-16 -3.44169137633798e-15 -1.0
outer loop
vertex -169.175510324944 135.085853579835 14.7161603813318
vertex -165.803198077605 133.085853579836 14.7161603813317
vertex -170.710164300901 133.085853579836 14.7161603813316
endloop
endfacet
facet normal 9.25372416638392e-16 -3.44169137633798e-15 -1.0
outer loop
vertex -165.803198077605 133.085853579836 14.7161603813317
vertex -169.175510324944 135.085853579835 14.7161603813318
vertex -167.257422212855 139.716527913868 14.7161603813316
endloop
endfacet
facet normal 9.25372416638392e-16 -3.44169137633798e-15 -1.0
outer loop
vertex -165.803198077605 133.085853579836 14.7161603813317
vertex -167.257422212855 139.716527913868 14.7161603813316
vertex -166.603198077605 144.685853579836 14.7161603813317
endloop
endfacet
facet normal 9.25372416638392e-16 -3.44169137633798e-15 -1.0
outer loop
vertex -165.803198077605 133.085853579836 14.7161603813317
vertex -166.603198077605 144.685853579836 14.7161603813317
vertex -165.803198077606 164.685853579836 14.7161603813317
endloop
endfacet
facet normal 9.25372416638392e-16 -3.44169137633798e-15 -1.0
outer loop
vertex -172.226747878824 158.262303778619 14.7161603813315
vertex -171.148679399668 160.271743107672 14.7161603813317
vertex -169.175510324944 154.285853579837 14.7161603813315
endloop
endfacet
facet normal 9.25372416638392e-16 -3.44169137633798e-15 -1.0
outer loop
vertex -171.148679399668 160.271743107672 14.7161603813317
vertex -172.226747878824 158.262303778619 14.7161603813315
vertex -171.203198077606 160.685853579836 14.7161603813317
endloop
endfacet
facet normal 9.25372416638392e-16 -3.44169137633798e-15 -1.0
outer loop
vertex -169.175510324944 154.285853579837 14.7161603813315
vertex -171.148679399668 160.271743107672 14.7161603813317
vertex -170.988838723661 159.885853579836 14.7161603813316
endloop
endfacet
facet normal 9.25372416638392e-16 -3.44169137633798e-15 -1.0
outer loop
vertex -169.175510324944 154.285853579837 14.7161603813315
vertex -170.988838723661 159.885853579836 14.7161603813316
vertex -170.734568927504 159.554482729937 14.7161603813318
endloop
endfacet
facet normal 9.25372416638392e-16 -3.44169137633798e-15 -1.0
outer loop
vertex -169.175510324944 154.285853579837 14.7161603813315
vertex -170.734568927504 159.554482729937 14.7161603813318
vertex -170.403198077606 159.300212933781 14.7161603813317
endloop
endfacet
facet normal 9.25372416638392e-16 -3.44169137633798e-15 -1.0
outer loop
vertex -169.175510324944 154.285853579837 14.7161603813315
vertex -170.403198077606 159.300212933781 14.7161603813317
vertex -170.01730854977 159.140372257773 14.7161603813316
endloop
endfacet
facet normal 9.25372416638392e-16 -3.44169137633798e-15 -1.0
outer loop
vertex -169.175510324944 154.285853579837 14.7161603813315
vertex -170.01730854977 159.140372257773 14.7161603813316
vertex -169.603198077606 159.085853579836 14.7161603813316
endloop
endfacet
facet normal 9.25372416638392e-16 -3.44169137633798e-15 -1.0
outer loop
vertex -169.175510324944 154.285853579837 14.7161603813315
vertex -169.603198077606 159.085853579836 14.7161603813316
vertex -169.189087605442 159.140372257773 14.7161603813316
endloop
endfacet
facet normal 9.25372416638392e-16 -3.44169137633798e-15 -1.0
outer loop
vertex -169.175510324944 154.285853579837 14.7161603813315
vertex -169.189087605442 159.140372257773 14.7161603813316
vertex -168.803198077606 159.300212933781 14.7161603813316
endloop
endfacet
facet normal 9.25372416638392e-16 -3.44169137633798e-15 -1.0
outer loop
vertex -169.175510324944 154.285853579837 14.7161603813315
vertex -168.803198077606 159.300212933781 14.7161603813316
vertex -167.257422212855 149.655179245804 14.7161603813317
endloop
endfacet
facet normal 9.25372416638392e-16 -3.44169137633798e-15 -1.0
outer loop
vertex -167.257422212855 149.655179245804 14.7161603813317
vertex -168.803198077606 159.300212933781 14.7161603813316
vertex -168.471827227707 159.554482729937 14.7161603813316
endloop
endfacet
facet normal 9.25372416638392e-16 -3.44169137633798e-15 -1.0
outer loop
vertex -167.257422212855 149.655179245804 14.7161603813317
vertex -168.471827227707 159.554482729937 14.7161603813316
vertex -168.21755743155 159.885853579836 14.7161603813316
endloop
endfacet
facet normal 9.25372416638392e-16 -3.44169137633798e-15 -1.0
outer loop
vertex -167.257422212855 149.655179245804 14.7161603813317
vertex -168.21755743155 159.885853579836 14.7161603813316
vertex -168.057716755543 160.271743107672 14.7161603813317
endloop
endfacet
facet normal 9.25372416638392e-16 -3.44169137633798e-15 -1.0
outer loop
vertex -167.257422212855 149.655179245804 14.7161603813317
vertex -168.057716755543 160.271743107672 14.7161603813317
vertex -168.003198077606 160.685853579836 14.7161603813317
endloop
endfacet
facet normal 9.25372416638392e-16 -3.44169137633798e-15 -1.0
outer loop
vertex -204.348973942357 149.655179245804 14.7161603813317
vertex -203.548679399669 160.271743107672 14.7161603813318
vertex -202.430885830268 154.285853579837 14.7161603813315
endloop
endfacet
facet normal 9.25372416638392e-16 -3.44169137633798e-15 -1.0
outer loop
vertex -203.548679399669 160.271743107672 14.7161603813318
vertex -204.348973942357 149.655179245804 14.7161603813317
vertex -203.603198077607 160.685853579836 14.7161603813317
endloop
endfacet
facet normal 9.25372416638392e-16 -3.44169137633798e-15 -1.0
outer loop
vertex -202.430885830268 154.285853579837 14.7161603813315
vertex -203.548679399669 160.271743107672 14.7161603813318
vertex -203.388838723662 159.885853579836 14.7161603813317
endloop
endfacet
facet normal 9.25372416638392e-16 -3.44169137633798e-15 -1.0
outer loop
vertex -202.430885830268 154.285853579837 14.7161603813315
vertex -203.388838723662 159.885853579836 14.7161603813317
vertex -203.134568927505 159.554482729937 14.7161603813317
endloop
endfacet
facet normal 9.25372416638392e-16 -3.44169137633798e-15 -1.0
outer loop
vertex -202.430885830268 154.285853579837 14.7161603813315
vertex -203.134568927505 159.554482729937 14.7161603813317
vertex -202.803198077607 159.300212933781 14.7161603813317
endloop
endfacet
facet normal 9.25372416638392e-16 -3.44169137633798e-15 -1.0
outer loop
vertex -202.430885830268 154.285853579837 14.7161603813315
vertex -202.803198077607 159.300212933781 14.7161603813317
vertex -202.417308549771 159.140372257773 14.7161603813317
endloop
endfacet
facet normal 9.25372416638392e-16 -3.44169137633798e-15 -1.0
outer loop
vertex -202.430885830268 154.285853579837 14.7161603813315
vertex -202.417308549771 159.140372257773 14.7161603813317
vertex -199.379648276389 158.262303778619 14.7161603813316
endloop
endfacet
facet normal 9.25372416638392e-16 -3.44169137633798e-15 -1.0
outer loop
vertex -199.379648276389 158.262303778619 14.7161603813316
vertex -202.417308549771 159.140372257773 14.7161603813317
vertex -202.003198077607 159.085853579836 14.7161603813317
endloop
endfacet
facet normal 9.25372416638392e-16 -3.44169137633798e-15 -1.0
outer loop
vertex -199.379648276389 158.262303778619 14.7161603813316
vertex -202.003198077607 159.085853579836 14.7161603813317
vertex -201.589087605443 159.140372257773 14.7161603813317
endloop
endfacet
facet normal 9.25372416638392e-16 -3.44169137633798e-15 -1.0
outer loop
vertex -199.379648276389 158.262303778619 14.7161603813316
vertex -201.589087605443 159.140372257773 14.7161603813317
vertex -201.203198077607 159.300212933781 14.7161603813317
endloop
endfacet
facet normal 9.25372416638392e-16 -3.44169137633798e-15 -1.0
outer loop
vertex -199.379648276389 158.262303778619 14.7161603813316
vertex -201.203198077607 159.300212933781 14.7161603813317
vertex -200.871827227708 159.554482729937 14.7161603813318
endloop
endfacet
facet normal 9.25372416638392e-16 -3.44169137633798e-15 -1.0
outer loop
vertex -199.379648276389 158.262303778619 14.7161603813316
vertex -200.871827227708 159.554482729937 14.7161603813318
vertex -200.617557431552 159.885853579836 14.7161603813316
endloop
endfacet
facet normal 9.25372416638392e-16 -3.44169137633798e-15 -1.0
outer loop
vertex -199.379648276389 158.262303778619 14.7161603813316
vertex -200.617557431552 159.885853579836 14.7161603813316
vertex -200.457716755544 160.271743107672 14.7161603813317
endloop
endfacet
facet normal 9.25372416638392e-16 -3.44169137633798e-15 -1.0
outer loop
vertex -199.379648276389 158.262303778619 14.7161603813316
vertex -200.457716755544 160.271743107672 14.7161603813317
vertex -200.403198077607 160.685853579836 14.7161603813318
endloop
endfacet
facet normal 9.25372416638392e-16 -3.44169137633798e-15 -1.0
outer loop
vertex -205.803198077607 133.085853579836 14.7161603813317
vertex -202.430885830268 135.085853579835 14.7161603813318
vertex -200.896231854311 133.085853579836 14.7161603813316
endloop
endfacet
facet normal 9.25372416638392e-16 -3.44169137633798e-15 -1.0
outer loop
vertex -202.430885830268 135.085853579835 14.7161603813318
vertex -205.803198077607 133.085853579836 14.7161603813317
vertex -204.348973942357 139.716527913867 14.7161603813316
endloop
endfacet
facet normal 9.25372416638392e-16 -3.44169137633798e-15 -1.0
outer loop
vertex -204.348973942357 139.716527913867 14.7161603813316
vertex -205.803198077607 133.085853579836 14.7161603813317
vertex -205.003198077607 144.685853579836 14.7161603813317
endloop
endfacet
facet normal 9.25372416638392e-16 -3.44169137633798e-15 -1.0
outer loop
vertex -205.003198077607 144.685853579836 14.7161603813317
vertex -205.803198077607 133.085853579836 14.7161603813317
vertex -205.803198077607 164.685853579836 14.7161603813317
endloop
endfacet
facet normal -0.258819045102402 0.9659258262891 3.88291723309094e-14
outer loop
vertex -201.589087605443 159.140372257773 19.223703992058
vertex -201.203198077607 159.300212933781 14.7161603813317
vertex -201.589087605443 159.140372257773 14.7161603813317
endloop
endfacet
facet normal -0.500000000000138 0.866025403784359 3.3678078092347e-14
outer loop
vertex -201.203198077607 159.300212933781 14.7161603813317
vertex -201.589087605443 159.140372257773 19.223703992058
vertex -201.203198077607 159.300212933781 19.2237039920581
endloop
endfacet
facet normal -0.49999999999986 -0.866025403784519 -4.30004388610486e-14
outer loop
vertex -201.203198077607 162.071494225891 14.7161603813318
vertex -201.589087605443 162.231334901898 19.223703992058
vertex -201.589087605443 162.231334901898 14.7161603813317
endloop
endfacet
facet normal -0.258819045102541 -0.965925826289063 -2.86669592406987e-14
outer loop
vertex -201.589087605443 162.231334901898 19.223703992058
vertex -201.203198077607 162.071494225891 14.7161603813318
vertex -201.203198077607 162.071494225891 19.223703992058
endloop
endfacet
facet normal -3.5996592387409e-15 0.882679861224989 0.469974746755434
outer loop
vertex -202.003198077607 162.285853579836 19.2237039920581
vertex -199.82695850831 162.285853579836 19.223703992058
vertex -204.891796933452 162.285853579836 19.2237039920579
endloop
endfacet
facet normal -3.5996592387409e-15 0.882679861224989 0.469974746755434
outer loop
vertex -204.891796933452 162.285853579836 19.2237039920579
vertex -165.803198077606 164.685853579836 14.7161603813317
vertex -205.803198077607 164.685853579836 14.7161603813317
endloop
endfacet
facet normal -3.5996592387409e-15 0.882679861224989 0.469974746755434
outer loop
vertex -165.803198077606 164.685853579836 14.7161603813317
vertex -204.891796933452 162.285853579836 19.2237039920579
vertex -169.603198077605 162.285853579836 19.2237039920579
endloop
endfacet
facet normal -3.5996592387409e-15 0.882679861224989 0.469974746755434
outer loop
vertex -169.603198077605 162.285853579836 19.2237039920579
vertex -204.891796933452 162.285853579836 19.2237039920579
vertex -171.779437646903 162.285853579836 19.223703992058
endloop
endfacet
facet normal -3.5996592387409e-15 0.882679861224989 0.469974746755434
outer loop
vertex -171.779437646903 162.285853579836 19.223703992058
vertex -204.891796933452 162.285853579836 19.2237039920579
vertex -199.82695850831 162.285853579836 19.223703992058
endloop
endfacet
facet normal -3.5996592387409e-15 0.882679861224989 0.469974746755434
outer loop
vertex -166.714599221761 162.285853579836 19.223703992058
vertex -165.803198077606 164.685853579836 14.7161603813317
vertex -169.603198077605 162.285853579836 19.2237039920579
endloop
endfacet
facet normal 0.965925826289068 -0.25881904510252 3.89831452565137e-15
outer loop
vertex -203.54867939967 161.099964052 14.7161603813318
vertex -203.603198077607 160.685853579836 19.223703992058
vertex -203.603198077607 160.685853579836 14.7161603813317
endloop
endfacet
facet normal 1.0 1.52691868061913e-13 -1.56772433347571e-14
outer loop
vertex -203.603198077607 160.685853579836 19.223703992058
vertex -203.54867939967 161.099964052 14.7161603813318
vertex -203.548679399669 161.099964052 19.223703992058
endloop
endfacet
facet normal -8.19822110399622e-16 -1.0 -1.79168495254375e-14
outer loop
vertex -202.003198077607 162.285853579836 19.2237039920581
vertex -202.417308549771 162.231334901898 14.7161603813317
vertex -202.003198077607 162.285853579836 14.7161603813316
endloop
endfacet
facet normal 0.258819045102625 -0.96592582628904 -3.03466638837092e-14
outer loop
vertex -202.417308549771 162.231334901898 14.7161603813317
vertex -202.003198077607 162.285853579836 19.2237039920581
vertex -202.417308549771 162.231334901898 19.223703992058
endloop
endfacet
facet normal -0.866025403784451 -0.499999999999979 1.66533453693773e-16
outer loop
vertex -199.82695850831 162.285853579836 19.223703992058
vertex -198.903198077607 160.685853579836 19.223703992058
vertex -198.903198077607 160.685853579836 22.228733065874
endloop
endfacet
facet normal -0.965925826289081 0.258819045102475 -2.94648189461284e-15
outer loop
vertex -200.457716755544 160.271743107672 19.223703992058
vertex -200.403198077607 160.685853579836 14.7161603813318
vertex -200.457716755544 160.271743107672 14.7161603813317
endloop
endfacet
facet normal -1.0 1.30333893333718e-13 1.21918562005112e-14
outer loop
vertex -200.403198077607 160.685853579836 14.7161603813318
vertex -200.457716755544 160.271743107672 19.223703992058
vertex -200.403198077607 160.685853579836 19.223703992058
endloop
endfacet
facet normal -0.707106781186513 -0.707106781186582 -3.98369951167154e-14
outer loop
vertex -200.871827227708 161.817224429734 19.223703992058
vertex -201.203198077607 162.071494225891 14.7161603813318
vertex -200.871827227708 161.817224429734 14.7161603813318
endloop
endfacet
facet normal -0.49999999999986 -0.866025403784519 -4.30004388610486e-14
outer loop
vertex -201.203198077607 162.071494225891 14.7161603813318
vertex -200.871827227708 161.817224429734 19.223703992058
vertex -201.203198077607 162.071494225891 19.223703992058
endloop
endfacet
facet normal 0.258819045102437 0.965925826289091 3.02066884967926e-14
outer loop
vertex -202.417308549771 159.140372257773 19.2237039920581
vertex -202.003198077607 159.085853579836 14.7161603813317
vertex -202.417308549771 159.140372257773 14.7161603813317
endloop
endfacet
facet normal 5.61399923425717e-15 1.0 3.30901814672906e-14
outer loop
vertex -202.003198077607 159.085853579836 14.7161603813317
vertex -202.417308549771 159.140372257773 19.2237039920581
vertex -202.003198077607 159.085853579836 19.223703992058
endloop
endfacet
facet normal 0.49999999999992 -0.866025403784485 -2.9646786949121e-14
outer loop
vertex -202.803198077607 162.071494225891 19.223703992058
vertex -203.134568927505 161.817224429734 14.7161603813317
vertex -202.803198077607 162.071494225891 14.7161603813317
endloop
endfacet
facet normal 0.70710678118639 -0.707106781186706 -2.04364064899681e-15
outer loop
vertex -203.134568927505 161.817224429734 14.7161603813317
vertex -202.803198077607 162.071494225891 19.223703992058
vertex -203.134568927505 161.817224429734 19.223703992058
endloop
endfacet
facet normal -0.978718954180432 0.0600399997401671 0.19622539886356
outer loop
vertex -197.193701098923 139.149328896445 55.8024371794328
vertex -205.803198077607 133.085853579836 14.7161603813317
vertex -197.191096816096 137.152399698958 56.426538697266
endloop
endfacet
facet normal -0.866025403784451 0.499999999999979 -7.46624984060418e-15
outer loop
vertex -200.453198077607 158.001174828105 27.2709441301326
vertex -198.903198077607 160.685853579836 19.223703992058
vertex -200.453198077607 158.001174828105 19.2237039920581
endloop
endfacet
facet normal -0.866025403784451 0.499999999999979 -7.46624984060418e-15
outer loop
vertex -198.903198077607 160.685853579836 19.223703992058
vertex -200.453198077607 158.001174828105 27.2709441301326
vertex -198.903198077607 160.685853579836 22.228733065874
endloop
endfacet
facet normal 7.75594136216667e-15 -0.8854779862894 -0.464681327144602
outer loop
vertex -194.831090092892 139.707590580385 55.887588296049
vertex -195.403198077607 161.313541332498 14.7161603813315
vertex -186.24947032217 139.707590580385 55.8875882960489
endloop
endfacet
facet normal 0.899102489307519 0.39759267982705 -0.183125024693428
outer loop
vertex -204.348973942357 139.716527913867 14.7161603813316
vertex -195.234666825586 138.170366160592 56.108393009072
vertex -200.464422191367 136.265576113607 26.2958829151028
endloop
endfacet
facet normal -4.45230490604036e-15 0.857401780927149 0.514647632912999
outer loop
vertex -197.154591802731 140.417441567717 55.9958611830142
vertex -172.703198077606 160.685853579836 22.2287330658741
vertex -198.903198077607 160.685853579836 22.228733065874
endloop
endfacet
facet normal -4.45230490604036e-15 0.857401780927149 0.514647632912999
outer loop
vertex -172.703198077606 160.685853579836 22.2287330658741
vertex -197.154591802731 140.417441567717 55.9958611830142
vertex -174.451804352482 140.417441567717 55.9958611830143
endloop
endfacet
facet normal 1.0 1.58528645043565e-13 9.84726846964353e-15
outer loop
vertex -171.203198077606 160.685853579836 14.7161603813317
vertex -171.148679399668 161.099964052 19.223703992058
vertex -171.203198077605 160.685853579836 19.223703992058
endloop
endfacet
facet normal 0.965925826289053 -0.258819045102576 1.2121868507054e-14
outer loop
vertex -171.148679399668 161.099964052 19.223703992058
vertex -171.203198077606 160.685853579836 14.7161603813317
vertex -171.148679399668 161.099964052 14.7161603813318
endloop
endfacet
facet normal -0.70710678118642 -0.707106781186675 2.01564557161207e-15
outer loop
vertex -168.471827227707 161.817224429734 19.223703992058
vertex -168.803198077606 162.071494225891 14.7161603813316
vertex -168.471827227707 161.817224429734 14.7161603813316
endloop
endfacet
facet normal -0.499999999999943 -0.866025403784471 -9.09840014963577e-15
outer loop
vertex -168.803198077606 162.071494225891 14.7161603813316
vertex -168.471827227707 161.817224429734 19.223703992058
vertex -168.803198077606 162.071494225891 19.2237039920579
endloop
endfacet
facet normal 0.258819045102386 0.965925826289104 4.65838087661378e-14
outer loop
vertex -170.01730854977 159.140372257773 19.223703992058
vertex -169.603198077606 159.085853579836 14.7161603813316
vertex -170.01730854977 159.140372257773 14.7161603813316
endloop
endfacet
facet normal -2.65105519395485e-14 1.0 3.89131575630576e-14
outer loop
vertex -169.603198077606 159.085853579836 14.7161603813316
vertex -170.01730854977 159.140372257773 19.223703992058
vertex -169.603198077606 159.085853579836 19.223703992058
endloop
endfacet
facet normal -4.73753192269408e-15 0.998381315992901 -0.0568748439671103
outer loop
vertex -200.464422191367 136.265576113607 26.2958829151028
vertex -176.469192746544 137.967518523585 56.1717891065925
vertex -171.141973963845 136.265576113607 26.2958829151028
endloop
endfacet
facet normal -4.73753192269408e-15 0.998381315992901 -0.0568748439671103
outer loop
vertex -176.469192746544 137.967518523585 56.1717891065925
vertex -200.464422191367 136.265576113607 26.2958829151028
vertex -195.137203408668 137.967518523584 56.1717891065925
endloop
endfacet
facet normal -0.960451277374238 -0.130701306963894 -0.245866858580258
outer loop
vertex -166.603198077605 144.685853579836 14.7161603813317
vertex -176.325639693259 138.403115782127 56.035651625823
vertex -176.339661932193 138.653163700819 55.9575039950594
endloop
endfacet
endsolid Carriage
