solid Carriage
facet normal 4.34909841993476e-15 -0.995687175123994 0.0927741844135544
outer loop
vertex -171.141973963845 133.94895241338 23.9792592148756
vertex -170.710164300901 133.085853579836 14.7161603813318
vertex -165.803198077605 133.085853579836 14.7161603813318
endloop
endfacet
facet normal 0.778430183347902 0.59731048794029 -0.193045669854273
outer loop
vertex -200.464422191367 136.265576113607 26.2958829151029
vertex -200.896231854311 133.085853579836 14.7161603813318
vertex -202.430885830268 135.085853579835 14.7161603813318
endloop
endfacet
facet normal 0.548995406372507 -0.835825366797327 -1.02544765398626e-15
outer loop
vertex -170.403198077606 162.071494225891 19.6263015488389
vertex -170.734568927504 161.817224429734 14.7161603813318
vertex -170.403198077606 162.071494225891 14.7161603813318
endloop
endfacet
facet normal 0.707106781186532 -0.707106781186563 -2.23960619067967e-16
outer loop
vertex -170.734568927504 161.817224429734 14.7161603813318
vertex -170.403198077606 162.071494225891 19.6263015488389
vertex -170.734568927504 161.817224429734 20.1038566301165
endloop
endfacet
facet normal 0.965925826289077 -0.258819045102487 1.04981540188108e-16
outer loop
vertex -171.148679399668 161.099964052 14.7161603813318
vertex -170.988838723661 161.485853579836 20.7262185289667
vertex -171.148679399668 161.099964052 21.4509743104847
endloop
endfacet
facet normal 0.904485740120354 -0.426503863896841 5.30790993515662e-16
outer loop
vertex -170.988838723661 161.485853579836 20.7262185289667
vertex -171.148679399668 161.099964052 14.7161603813318
vertex -170.988838723661 161.485853579836 14.7161603813318
endloop
endfacet
facet normal -0.548995406372511 -0.835825366797324 -2.90526703337886e-15
outer loop
vertex -168.803198077606 162.071494225891 19.6263015488388
vertex -169.189087605442 162.231334901898 14.7161603813319
vertex -168.803198077606 162.071494225891 14.7161603813318
endloop
endfacet
facet normal -0.258819045102481 -0.965925826289079 5.87896625053404e-16
outer loop
vertex -169.189087605442 162.231334901898 14.7161603813319
vertex -168.803198077606 162.071494225891 19.6263015488388
vertex -169.189087605442 162.231334901898 19.3260978747257
endloop
endfacet
facet normal -0.754152059632572 -0.578681228396006 -0.310455643939742
outer loop
vertex -176.588369472742 141.067933637285 57.3611739338748
vertex -169.175510324944 154.285853579837 14.7161603813317
vertex -176.440506241657 140.889810355653 57.3340049613971
endloop
endfacet
facet normal -0.754152059632572 -0.578681228396006 -0.310455643939742
outer loop
vertex -169.175510324944 154.285853579837 14.7161603813317
vertex -176.588369472742 141.067933637285 57.3611739338748
vertex -172.226747878824 158.262303778619 14.7161603813317
endloop
endfacet
facet normal 0.50000000000003 0.866025403784421 -2.15562095852917e-15
outer loop
vertex -170.403198077606 159.300212933781 14.7161603813318
vertex -170.01730854977 159.140372257773 25.1313682570251
vertex -170.01730854977 159.140372257773 14.7161603813318
endloop
endfacet
facet normal 0.218826140513729 0.975763864993917 -9.39852014569606e-16
outer loop
vertex -170.01730854977 159.140372257773 25.1313682570251
vertex -170.403198077606 159.300212933781 14.7161603813318
vertex -170.403198077606 159.300212933781 24.831164582912
endloop
endfacet
facet normal 0.866025403784432 0.500000000000012 -2.19761357460438e-15
outer loop
vertex -203.388838723662 159.885853579836 14.7161603813318
vertex -203.134568927505 159.554482729937 24.3536095016344
vertex -203.134568927505 159.554482729937 14.7161603813318
endloop
endfacet
facet normal 0.648454371398034 0.761253524270844 -3.7973719627255e-15
outer loop
vertex -203.134568927505 159.554482729937 24.3536095016344
vertex -203.388838723662 159.885853579836 14.7161603813318
vertex -203.388838723662 159.885853579836 23.731247602784
endloop
endfacet
facet normal -0.0928204576485419 -0.985027256449516 0.145277894717174
outer loop
vertex -200.464422191367 133.94895241338 23.9792592148756
vertex -197.191096816096 138.646366898474 57.9205058967823
vertex -205.803198077606 133.085853579836 14.7161603813318
endloop
endfacet
facet normal -0.0928204576485419 -0.985027256449516 0.145277894717174
outer loop
vertex -197.191096816096 138.646366898474 57.9205058967823
vertex -200.464422191367 133.94895241338 23.9792592148756
vertex -197.003838372698 138.62566856251 57.8998075608183
endloop
endfacet
facet normal -0.568654969251149 -0.741085584320372 -0.356964539777423
outer loop
vertex -172.226747878824 158.262303778619 14.7161603813317
vertex -176.77530606232 141.201557779901 57.3815554955652
vertex -176.203198077606 161.313541332498 14.7161603813316
endloop
endfacet
facet normal -0.568654969251149 -0.741085584320372 -0.356964539777423
outer loop
vertex -176.77530606232 141.201557779901 57.3815554955652
vertex -172.226747878824 158.262303778619 14.7161603813317
vertex -176.588369472742 141.067933637285 57.3611739338748
endloop
endfacet
facet normal 1.22759598352559e-15 -0.150785105300411 0.988566564283632
outer loop
vertex -195.267503585873 140.643296095961 57.2964043789491
vertex -197.15459180273 141.911408767234 57.4898283825306
vertex -197.193701098923 140.643296095961 57.2964043789491
endloop
endfacet
facet normal 1.22759598352559e-15 -0.150785105300411 0.988566564283632
outer loop
vertex -197.15459180273 141.911408767234 57.4898283825306
vertex -195.267503585873 140.643296095961 57.2964043789491
vertex -195.264035378275 140.676485037083 57.301466656152
endloop
endfacet
facet normal 1.22759598352559e-15 -0.150785105300411 0.988566564283632
outer loop
vertex -197.15459180273 141.911408767234 57.4898283825306
vertex -195.264035378275 140.676485037083 57.301466656152
vertex -195.165889913555 140.889810355653 57.3340049613971
endloop
endfacet
facet normal 1.22759598352559e-15 -0.150785105300411 0.988566564283632
outer loop
vertex -197.15459180273 141.911408767234 57.4898283825306
vertex -195.165889913555 140.889810355653 57.3340049613971
vertex -195.01802668247 141.067933637285 57.3611739338748
endloop
endfacet
facet normal 1.22759598352559e-15 -0.150785105300411 0.988566564283632
outer loop
vertex -197.15459180273 141.911408767234 57.4898283825306
vertex -195.01802668247 141.067933637285 57.3611739338748
vertex -194.831090092891 141.201557779901 57.3815554955652
endloop
endfacet
facet normal 1.22759598352559e-15 -0.150785105300411 0.988566564283632
outer loop
vertex -197.15459180273 141.911408767234 57.4898283825306
vertex -194.831090092891 141.201557779901 57.3815554955652
vertex -174.451804352482 141.911408767234 57.4898283825306
endloop
endfacet
facet normal 1.22759598352559e-15 -0.150785105300411 0.988566564283632
outer loop
vertex -174.451804352482 141.911408767234 57.4898283825306
vertex -194.831090092891 141.201557779901 57.3815554955652
vertex -185.803198077606 141.312209874028 57.3984331528392
endloop
endfacet
facet normal 1.22759598352559e-15 -0.150785105300411 0.988566564283632
outer loop
vertex -185.803198077606 141.312209874028 57.3984331528392
vertex -194.831090092891 141.201557779901 57.3815554955652
vertex -186.032805027027 141.284238008037 57.394166631078
endloop
endfacet
facet normal 1.22759598352559e-15 -0.150785105300411 0.988566564283632
outer loop
vertex -186.032805027027 141.284238008037 57.394166631078
vertex -194.831090092891 141.201557779901 57.3815554955652
vertex -186.24947032217 141.201557779901 57.3815554955652
endloop
endfacet
facet normal 1.22759598352559e-15 -0.150785105300411 0.988566564283632
outer loop
vertex -174.451804352482 141.911408767234 57.4898283825306
vertex -185.803198077606 141.312209874028 57.3984331528392
vertex -185.573591128185 141.284238008037 57.394166631078
endloop
endfacet
facet normal 1.22759598352559e-15 -0.150785105300411 0.988566564283632
outer loop
vertex -174.451804352482 141.911408767234 57.4898283825306
vertex -185.573591128185 141.284238008037 57.394166631078
vertex -185.356925833042 141.201557779901 57.3815554955652
endloop
endfacet
facet normal 1.22759598352559e-15 -0.150785105300411 0.988566564283632
outer loop
vertex -174.451804352482 141.911408767234 57.4898283825306
vertex -185.356925833042 141.201557779901 57.3815554955652
vertex -176.77530606232 141.201557779901 57.3815554955652
endloop
endfacet
facet normal 1.22759598352559e-15 -0.150785105300411 0.988566564283632
outer loop
vertex -174.451804352482 141.911408767234 57.4898283825306
vertex -176.77530606232 141.201557779901 57.3815554955652
vertex -176.588369472742 141.067933637285 57.3611739338748
endloop
endfacet
facet normal 1.22759598352559e-15 -0.150785105300411 0.988566564283632
outer loop
vertex -174.451804352482 141.911408767234 57.4898283825306
vertex -176.588369472742 141.067933637285 57.3611739338748
vertex -176.440506241657 140.889810355653 57.3340049613971
endloop
endfacet
facet normal 1.22759598352559e-15 -0.150785105300411 0.988566564283632
outer loop
vertex -174.451804352482 141.911408767234 57.4898283825306
vertex -176.440506241657 140.889810355653 57.3340049613971
vertex -176.342360776937 140.676485037083 57.301466656152
endloop
endfacet
facet normal 1.22759598352559e-15 -0.150785105300411 0.988566564283632
outer loop
vertex -174.451804352482 141.911408767234 57.4898283825306
vertex -176.342360776937 140.676485037083 57.301466656152
vertex -176.338892569339 140.643296095961 57.2964043789491
endloop
endfacet
facet normal 1.22759598352559e-15 -0.150785105300411 0.988566564283632
outer loop
vertex -174.451804352482 141.911408767234 57.4898283825306
vertex -176.338892569339 140.643296095961 57.2964043789491
vertex -174.412695056289 140.643296095961 57.2964043789491
endloop
endfacet
facet normal -0.995943550826128 0.089980239874343 9.26364243287181e-16
outer loop
vertex -200.403198077607 160.685853579836 22.2287330658754
vertex -200.457716755544 161.099964052 14.7161603813319
vertex -200.403198077607 160.685853579836 14.7161603813318
endloop
endfacet
facet normal -0.965925826289074 -0.258819045102501 3.98929852714809e-16
outer loop
vertex -200.457716755544 161.099964052 14.7161603813319
vertex -200.403198077607 160.685853579836 22.2287330658754
vertex -200.457716755544 161.099964052 21.4509743104847
endloop
endfacet
facet normal 0.258819045102497 -0.965925826289075 9.23837553655323e-16
outer loop
vertex -202.417308549771 162.231334901898 14.7161603813318
vertex -202.803198077606 162.071494225891 19.6263015488388
vertex -202.803198077607 162.071494225891 14.7161603813318
endloop
endfacet
facet normal 0.548995406372519 -0.835825366797319 -1.96197367058879e-15
outer loop
vertex -202.803198077606 162.071494225891 19.6263015488388
vertex -202.417308549771 162.231334901898 14.7161603813318
vertex -202.417308549771 162.231334901898 19.3260978747257
endloop
endfacet
facet normal -0.648454371398039 0.761253524270839 -2.938305001059e-15
outer loop
vertex -168.471827227707 159.554482729937 24.3536095016343
vertex -168.21755743155 159.885853579836 14.7161603813318
vertex -168.471827227707 159.554482729937 14.7161603813318
endloop
endfacet
facet normal -0.866025403784432 0.500000000000011 -1.39975386917477e-15
outer loop
vertex -168.21755743155 159.885853579836 14.7161603813318
vertex -168.471827227707 159.554482729937 24.3536095016343
vertex -168.21755743155 159.885853579836 23.731247602784
endloop
endfacet
facet normal -0.904485740120347 -0.426503863896857 -3.83165813400823e-16
outer loop
vertex -168.21755743155 161.485853579836 20.7262185289667
vertex -168.471827227707 161.817224429734 14.7161603813318
vertex -168.21755743155 161.485853579836 14.7161603813318
endloop
endfacet
facet normal -0.707106781186521 -0.707106781186574 -2.57554711928162e-15
outer loop
vertex -168.471827227707 161.817224429734 14.7161603813318
vertex -168.21755743155 161.485853579836 20.7262185289667
vertex -168.471827227707 161.817224429734 20.1038566301164
endloop
endfacet
facet normal -0.890173750515179 -0.368722040331899 -0.267646690372253
outer loop
vertex -176.440506241657 140.889810355653 57.3340049613971
vertex -167.257422212855 149.655179245804 14.7161603813319
vertex -176.342360776937 140.676485037083 57.301466656152
endloop
endfacet
facet normal -0.890173750515179 -0.368722040331899 -0.267646690372253
outer loop
vertex -167.257422212855 149.655179245804 14.7161603813319
vertex -176.440506241657 140.889810355653 57.3340049613971
vertex -169.175510324944 154.285853579837 14.7161603813317
endloop
endfacet
facet normal 2.61140552749536e-14 1.0 4.75916315519443e-16
outer loop
vertex -169.603198077606 159.085853579836 25.2337621396927
vertex -169.189087605442 159.140372257773 14.7161603813318
vertex -169.603198077606 159.085853579836 14.7161603813318
endloop
endfacet
facet normal -0.258819045102485 0.965925826289078 2.79950773835479e-17
outer loop
vertex -169.189087605442 159.140372257773 14.7161603813318
vertex -169.603198077606 159.085853579836 25.2337621396927
vertex -169.189087605442 159.140372257773 25.1313682570251
endloop
endfacet
facet normal 0.707106781186545 0.70710678118655 -1.37175879179127e-15
outer loop
vertex -170.734568927504 159.554482729937 14.7161603813318
vertex -170.403198077606 159.300212933781 24.831164582912
vertex -170.403198077606 159.300212933781 14.7161603813318
endloop
endfacet
facet normal 0.441266468870331 0.897376121506868 -2.39138221795543e-15
outer loop
vertex -170.403198077606 159.300212933781 24.831164582912
vertex -170.734568927504 159.554482729937 14.7161603813318
vertex -170.734568927504 159.554482729937 24.3536095016343
endloop
endfacet
facet normal -0.984938323419482 -0.172906041131071 2.86829356421536e-16
outer loop
vertex -168.057716755543 161.099964052 21.4509743104847
vertex -168.003198077606 160.685853579836 14.7161603813318
vertex -168.003198077606 160.685853579836 22.2287330658754
endloop
endfacet
facet normal -1.0 -1.30725982169143e-14 5.59901547669919e-16
outer loop
vertex -168.003198077606 160.685853579836 14.7161603813318
vertex -168.057716755543 161.099964052 21.4509743104847
vertex -168.057716755543 161.099964052 14.7161603813318
endloop
endfacet
facet normal -0.218826140513691 0.975763864993925 3.3442832203803e-16
outer loop
vertex -169.189087605442 159.140372257773 25.1313682570251
vertex -168.803198077606 159.300212933781 14.7161603813318
vertex -169.189087605442 159.140372257773 14.7161603813318
endloop
endfacet
facet normal -0.500000000000037 0.866025403784418 -2.01564557161168e-15
outer loop
vertex -168.803198077606 159.300212933781 14.7161603813318
vertex -169.189087605442 159.140372257773 25.1313682570251
vertex -168.803198077606 159.300212933781 24.8311645829121
endloop
endfacet
facet normal -0.938855008317679 0.344312755146845 -2.11499223623423e-16
outer loop
vertex -168.057716755543 160.271743107672 23.0064918212661
vertex -168.003198077606 160.685853579836 14.7161603813318
vertex -168.057716755543 160.271743107672 14.7161603813318
endloop
endfacet
facet normal -1.0 -1.30725982169143e-14 5.59901547669919e-16
outer loop
vertex -168.003198077606 160.685853579836 14.7161603813318
vertex -168.057716755543 160.271743107672 23.0064918212661
vertex -168.003198077606 160.685853579836 22.2287330658754
endloop
endfacet
facet normal 0.997367861010813 0.0512706047492924 -0.0512706047492923
outer loop
vertex -200.464422191367 136.265576113607 26.2958829151029
vertex -200.464422191367 133.94895241338 23.9792592148756
vertex -200.896231854311 133.085853579836 14.7161603813318
endloop
endfacet
facet normal 0.115598444615459 -0.878057361112498 -0.464383753159651
outer loop
vertex -185.803198077606 163.885853579837 14.7161603813317
vertex -186.032805027027 141.284238008037 57.394166631078
vertex -190.772523743575 163.231629444587 14.7161603813317
endloop
endfacet
facet normal 0.115598444615459 -0.878057361112498 -0.464383753159651
outer loop
vertex -186.032805027027 141.284238008037 57.394166631078
vertex -185.803198077606 163.885853579837 14.7161603813317
vertex -185.803198077606 141.312209874028 57.3984331528392
endloop
endfacet
facet normal 0.339855057338725 -0.820482688668257 -0.459681082487632
outer loop
vertex -190.772523743575 163.231629444587 14.7161603813317
vertex -186.24947032217 141.201557779901 57.3815554955652
vertex -195.403198077606 161.313541332498 14.7161603813317
endloop
endfacet
facet normal 0.339855057338725 -0.820482688668257 -0.459681082487632
outer loop
vertex -186.24947032217 141.201557779901 57.3815554955652
vertex -190.772523743575 163.231629444587 14.7161603813317
vertex -186.032805027027 141.284238008037 57.394166631078
endloop
endfacet
facet normal 0.890173750515182 -0.368722040331892 -0.267646690372252
outer loop
vertex -204.348973942357 149.655179245804 14.7161603813318
vertex -195.165889913555 140.889810355653 57.3340049613971
vertex -195.264035378275 140.676485037083 57.301466656152
endloop
endfacet
facet normal 0.890173750515182 -0.368722040331892 -0.267646690372252
outer loop
vertex -195.165889913555 140.889810355653 57.3340049613971
vertex -204.348973942357 149.655179245804 14.7161603813318
vertex -202.430885830268 154.285853579837 14.7161603813317
endloop
endfacet
facet normal 0.980476695876627 0.0574906035471135 0.188043291150311
outer loop
vertex -174.412695056289 140.643296095961 57.2964043789491
vertex -174.415299339116 138.646366898474 57.9205058967823
vertex -165.803198077605 133.085853579836 14.7161603813318
endloop
endfacet
facet normal 0.965925826289077 0.258819045102487 -2.93948312526703e-16
outer loop
vertex -171.148679399668 160.271743107672 14.7161603813318
vertex -170.988838723661 159.885853579836 23.731247602784
vertex -170.988838723661 159.885853579836 14.7161603813318
endloop
endfacet
facet normal 0.819509497331151 0.573065601640898 -9.07998099869168e-16
outer loop
vertex -170.988838723661 159.885853579836 23.731247602784
vertex -171.148679399668 160.271743107672 14.7161603813318
vertex -171.148679399668 160.271743107672 23.0064918212661
endloop
endfacet
facet normal 0.707106781186532 -0.707106781186563 -2.23960619067967e-16
outer loop
vertex -170.734568927504 161.817224429734 14.7161603813318
vertex -170.988838723661 161.485853579836 20.7262185289667
vertex -170.988838723661 161.485853579836 14.7161603813318
endloop
endfacet
facet normal 0.904485740120354 -0.426503863896841 5.30790993515662e-16
outer loop
vertex -170.988838723661 161.485853579836 20.7262185289667
vertex -170.734568927504 161.817224429734 14.7161603813318
vertex -170.734568927504 161.817224429734 20.1038566301165
endloop
endfacet
facet normal -0.115598444615437 -0.878057361112501 -0.464383753159651
outer loop
vertex -185.573591128185 141.284238008037 57.394166631078
vertex -185.803198077606 163.885853579837 14.7161603813317
vertex -180.833872411638 163.231629444587 14.7161603813317
endloop
endfacet
facet normal -0.115598444615437 -0.878057361112501 -0.464383753159651
outer loop
vertex -185.803198077606 163.885853579837 14.7161603813317
vertex -185.573591128185 141.284238008037 57.394166631078
vertex -185.803198077606 141.312209874028 57.3984331528392
endloop
endfacet
facet normal -0.778430183347911 0.597310487940279 -0.19304566985427
outer loop
vertex -171.141973963845 136.265576113607 26.2958829151029
vertex -169.175510324944 135.085853579835 14.7161603813318
vertex -170.710164300901 133.085853579836 14.7161603813318
endloop
endfacet
facet normal 1.0 -3.65355505721519e-16 -3.4293969794782e-16
outer loop
vertex -171.203198077606 160.685853579836 14.7161603813318
vertex -171.148679399668 160.271743107672 23.0064918212661
vertex -171.148679399668 160.271743107672 14.7161603813318
endloop
endfacet
facet normal 0.938855008317681 0.344312755146838 -2.07040811234843e-16
outer loop
vertex -171.148679399668 160.271743107672 23.0064918212661
vertex -171.203198077606 160.685853579836 14.7161603813318
vertex -171.203198077606 160.685853579836 22.2287330658753
endloop
endfacet
facet normal 0.25881904510247 -0.965925826289082 -2.79950773834947e-17
outer loop
vertex -170.01730854977 162.231334901898 14.7161603813319
vertex -170.403198077606 162.071494225891 19.6263015488389
vertex -170.403198077606 162.071494225891 14.7161603813318
endloop
endfacet
facet normal 0.548995406372507 -0.835825366797327 -1.02544765398626e-15
outer loop
vertex -170.403198077606 162.071494225891 19.6263015488389
vertex -170.01730854977 162.231334901898 14.7161603813319
vertex -170.01730854977 162.231334901898 19.3260978747257
endloop
endfacet
facet normal -3.84734198086005e-15 0.882679861224993 0.469974746755427
outer loop
vertex -202.003198077607 162.285853579836 19.2237039920582
vertex -170.01730854977 162.231334901898 19.3260978747257
vertex -169.603198077606 162.285853579836 19.2237039920582
endloop
endfacet
facet normal -3.84734198086005e-15 0.882679861224993 0.469974746755427
outer loop
vertex -170.01730854977 162.231334901898 19.3260978747257
vertex -202.003198077607 162.285853579836 19.2237039920582
vertex -201.589087605442 162.231334901898 19.3260978747258
endloop
endfacet
facet normal -3.84734198086005e-15 0.882679861224993 0.469974746755427
outer loop
vertex -170.01730854977 162.231334901898 19.3260978747257
vertex -201.589087605442 162.231334901898 19.3260978747258
vertex -170.403198077606 162.071494225891 19.6263015488389
endloop
endfacet
facet normal -3.84734198086005e-15 0.882679861224993 0.469974746755427
outer loop
vertex -170.403198077606 162.071494225891 19.6263015488389
vertex -201.589087605442 162.231334901898 19.3260978747258
vertex -201.203198077607 162.071494225891 19.6263015488389
endloop
endfacet
facet normal -3.84734198086005e-15 0.882679861224993 0.469974746755427
outer loop
vertex -170.403198077606 162.071494225891 19.6263015488389
vertex -201.203198077607 162.071494225891 19.6263015488389
vertex -170.734568927504 161.817224429734 20.1038566301165
endloop
endfacet
facet normal -3.84734198086005e-15 0.882679861224993 0.469974746755427
outer loop
vertex -170.734568927504 161.817224429734 20.1038566301165
vertex -201.203198077607 162.071494225891 19.6263015488389
vertex -200.871827227708 161.817224429734 20.1038566301165
endloop
endfacet
facet normal -3.84734198086005e-15 0.882679861224993 0.469974746755427
outer loop
vertex -170.734568927504 161.817224429734 20.1038566301165
vertex -200.871827227708 161.817224429734 20.1038566301165
vertex -200.617557431551 161.485853579836 20.7262185289667
endloop
endfacet
facet normal -3.84734198086005e-15 0.882679861224993 0.469974746755427
outer loop
vertex -170.734568927504 161.817224429734 20.1038566301165
vertex -200.617557431551 161.485853579836 20.7262185289667
vertex -170.988838723661 161.485853579836 20.7262185289667
endloop
endfacet
facet normal -3.84734198086005e-15 0.882679861224993 0.469974746755427
outer loop
vertex -170.988838723661 161.485853579836 20.7262185289667
vertex -200.617557431551 161.485853579836 20.7262185289667
vertex -200.457716755544 161.099964052 21.4509743104847
endloop
endfacet
facet normal -3.84734198086005e-15 0.882679861224993 0.469974746755427
outer loop
vertex -170.988838723661 161.485853579836 20.7262185289667
vertex -200.457716755544 161.099964052 21.4509743104847
vertex -171.148679399668 161.099964052 21.4509743104847
endloop
endfacet
facet normal -3.84734198086005e-15 0.882679861224993 0.469974746755427
outer loop
vertex -171.148679399668 161.099964052 21.4509743104847
vertex -200.457716755544 161.099964052 21.4509743104847
vertex -200.403198077607 160.685853579836 22.2287330658754
endloop
endfacet
facet normal -3.84734198086005e-15 0.882679861224993 0.469974746755427
outer loop
vertex -171.148679399668 161.099964052 21.4509743104847
vertex -200.403198077607 160.685853579836 22.2287330658754
vertex -171.203198077606 160.685853579836 22.2287330658753
endloop
endfacet
facet normal -3.84734198086005e-15 0.882679861224993 0.469974746755427
outer loop
vertex -171.203198077606 160.685853579836 22.2287330658753
vertex -200.403198077607 160.685853579836 22.2287330658754
vertex -171.148679399668 160.271743107672 23.0064918212661
endloop
endfacet
facet normal -3.84734198086005e-15 0.882679861224993 0.469974746755427
outer loop
vertex -171.148679399668 160.271743107672 23.0064918212661
vertex -200.403198077607 160.685853579836 22.2287330658754
vertex -200.457716755544 160.271743107672 23.0064918212661
endloop
endfacet
facet normal -3.84734198086005e-15 0.882679861224993 0.469974746755427
outer loop
vertex -171.148679399668 160.271743107672 23.0064918212661
vertex -200.457716755544 160.271743107672 23.0064918212661
vertex -200.617557431551 159.885853579836 23.731247602784
endloop
endfacet
facet normal -3.84734198086005e-15 0.882679861224993 0.469974746755427
outer loop
vertex -171.148679399668 160.271743107672 23.0064918212661
vertex -200.617557431551 159.885853579836 23.731247602784
vertex -170.988838723661 159.885853579836 23.731247602784
endloop
endfacet
facet normal -3.84734198086005e-15 0.882679861224993 0.469974746755427
outer loop
vertex -170.988838723661 159.885853579836 23.731247602784
vertex -200.617557431551 159.885853579836 23.731247602784
vertex -200.871827227708 159.554482729937 24.3536095016343
endloop
endfacet
facet normal -3.84734198086005e-15 0.882679861224993 0.469974746755427
outer loop
vertex -170.988838723661 159.885853579836 23.731247602784
vertex -200.871827227708 159.554482729937 24.3536095016343
vertex -170.734568927504 159.554482729937 24.3536095016343
endloop
endfacet
facet normal -3.84734198086005e-15 0.882679861224993 0.469974746755427
outer loop
vertex -170.734568927504 159.554482729937 24.3536095016343
vertex -200.871827227708 159.554482729937 24.3536095016343
vertex -201.203198077606 159.300212933781 24.831164582912
endloop
endfacet
facet normal -3.84734198086005e-15 0.882679861224993 0.469974746755427
outer loop
vertex -170.734568927504 159.554482729937 24.3536095016343
vertex -201.203198077606 159.300212933781 24.831164582912
vertex -170.403198077606 159.300212933781 24.831164582912
endloop
endfacet
facet normal -3.84734198086005e-15 0.882679861224993 0.469974746755427
outer loop
vertex -170.403198077606 159.300212933781 24.831164582912
vertex -201.203198077606 159.300212933781 24.831164582912
vertex -170.01730854977 159.140372257773 25.1313682570251
endloop
endfacet
facet normal -3.84734198086005e-15 0.882679861224993 0.469974746755427
outer loop
vertex -170.01730854977 159.140372257773 25.1313682570251
vertex -201.203198077606 159.300212933781 24.831164582912
vertex -201.589087605442 159.140372257773 25.1313682570251
endloop
endfacet
facet normal -3.84734198086005e-15 0.882679861224993 0.469974746755427
outer loop
vertex -170.01730854977 159.140372257773 25.1313682570251
vertex -201.589087605442 159.140372257773 25.1313682570251
vertex -169.603198077606 159.085853579836 25.2337621396927
endloop
endfacet
facet normal -3.84734198086005e-15 0.882679861224993 0.469974746755427
outer loop
vertex -169.603198077606 159.085853579836 25.2337621396927
vertex -201.589087605442 159.140372257773 25.1313682570251
vertex -202.003198077606 159.085853579836 25.2337621396927
endloop
endfacet
facet normal -3.84734198086005e-15 0.882679861224993 0.469974746755427
outer loop
vertex -205.803198077607 164.685853579836 14.7161603813318
vertex -202.003198077607 162.285853579836 19.2237039920582
vertex -165.803198077606 164.685853579836 14.7161603813318
endloop
endfacet
facet normal -3.84734198086005e-15 0.882679861224993 0.469974746755427
outer loop
vertex -202.003198077607 162.285853579836 19.2237039920582
vertex -205.803198077607 164.685853579836 14.7161603813318
vertex -202.417308549771 162.231334901898 19.3260978747257
endloop
endfacet
facet normal -3.84734198086005e-15 0.882679861224993 0.469974746755427
outer loop
vertex -202.417308549771 162.231334901898 19.3260978747257
vertex -205.803198077607 164.685853579836 14.7161603813318
vertex -202.803198077606 162.071494225891 19.6263015488388
endloop
endfacet
facet normal -3.84734198086005e-15 0.882679861224993 0.469974746755427
outer loop
vertex -202.803198077606 162.071494225891 19.6263015488388
vertex -205.803198077607 164.685853579836 14.7161603813318
vertex -203.134568927505 161.817224429734 20.1038566301165
endloop
endfacet
facet normal -3.84734198086005e-15 0.882679861224993 0.469974746755427
outer loop
vertex -203.134568927505 161.817224429734 20.1038566301165
vertex -205.803198077607 164.685853579836 14.7161603813318
vertex -203.388838723662 161.485853579836 20.7262185289667
endloop
endfacet
facet normal -3.84734198086005e-15 0.882679861224993 0.469974746755427
outer loop
vertex -203.388838723662 161.485853579836 20.7262185289667
vertex -205.803198077607 164.685853579836 14.7161603813318
vertex -203.548679399669 161.099964052 21.4509743104847
endloop
endfacet
facet normal -3.84734198086005e-15 0.882679861224993 0.469974746755427
outer loop
vertex -203.548679399669 161.099964052 21.4509743104847
vertex -205.803198077607 164.685853579836 14.7161603813318
vertex -203.603198077607 160.685853579836 22.2287330658754
endloop
endfacet
facet normal -3.84734198086005e-15 0.882679861224993 0.469974746755427
outer loop
vertex -203.603198077607 160.685853579836 22.2287330658754
vertex -205.803198077607 164.685853579836 14.7161603813318
vertex -203.548679399669 160.271743107672 23.0064918212661
endloop
endfacet
facet normal -3.84734198086005e-15 0.882679861224993 0.469974746755427
outer loop
vertex -203.548679399669 160.271743107672 23.0064918212661
vertex -205.803198077607 164.685853579836 14.7161603813318
vertex -197.15459180273 141.911408767234 57.4898283825306
endloop
endfacet
facet normal -3.84734198086005e-15 0.882679861224993 0.469974746755427
outer loop
vertex -165.803198077606 164.685853579836 14.7161603813318
vertex -202.003198077607 162.285853579836 19.2237039920582
vertex -169.603198077606 162.285853579836 19.2237039920582
endloop
endfacet
facet normal -3.84734198086005e-15 0.882679861224993 0.469974746755427
outer loop
vertex -203.548679399669 160.271743107672 23.0064918212661
vertex -197.15459180273 141.911408767234 57.4898283825306
vertex -203.388838723662 159.885853579836 23.731247602784
endloop
endfacet
facet normal -3.84734198086005e-15 0.882679861224993 0.469974746755427
outer loop
vertex -203.388838723662 159.885853579836 23.731247602784
vertex -197.15459180273 141.911408767234 57.4898283825306
vertex -203.134568927505 159.554482729937 24.3536095016344
endloop
endfacet
facet normal -3.84734198086005e-15 0.882679861224993 0.469974746755427
outer loop
vertex -203.134568927505 159.554482729937 24.3536095016344
vertex -197.15459180273 141.911408767234 57.4898283825306
vertex -202.803198077607 159.300212933781 24.831164582912
endloop
endfacet
facet normal -3.84734198086005e-15 0.882679861224993 0.469974746755427
outer loop
vertex -202.803198077607 159.300212933781 24.831164582912
vertex -197.15459180273 141.911408767234 57.4898283825306
vertex -202.417308549771 159.140372257773 25.1313682570252
endloop
endfacet
facet normal -3.84734198086005e-15 0.882679861224993 0.469974746755427
outer loop
vertex -202.417308549771 159.140372257773 25.1313682570252
vertex -197.15459180273 141.911408767234 57.4898283825306
vertex -202.003198077606 159.085853579836 25.2337621396927
endloop
endfacet
facet normal -3.84734198086005e-15 0.882679861224993 0.469974746755427
outer loop
vertex -202.003198077606 159.085853579836 25.2337621396927
vertex -197.15459180273 141.911408767234 57.4898283825306
vertex -174.451804352482 141.911408767234 57.4898283825306
endloop
endfacet
facet normal -3.84734198086005e-15 0.882679861224993 0.469974746755427
outer loop
vertex -165.803198077606 164.685853579836 14.7161603813318
vertex -168.057716755543 160.271743107672 23.0064918212661
vertex -174.451804352482 141.911408767234 57.4898283825306
endloop
endfacet
facet normal -3.84734198086005e-15 0.882679861224993 0.469974746755427
outer loop
vertex -168.057716755543 160.271743107672 23.0064918212661
vertex -165.803198077606 164.685853579836 14.7161603813318
vertex -168.003198077606 160.685853579836 22.2287330658754
endloop
endfacet
facet normal -3.84734198086005e-15 0.882679861224993 0.469974746755427
outer loop
vertex -168.003198077606 160.685853579836 22.2287330658754
vertex -165.803198077606 164.685853579836 14.7161603813318
vertex -168.057716755543 161.099964052 21.4509743104847
endloop
endfacet
facet normal -3.84734198086005e-15 0.882679861224993 0.469974746755427
outer loop
vertex -168.057716755543 161.099964052 21.4509743104847
vertex -165.803198077606 164.685853579836 14.7161603813318
vertex -168.21755743155 161.485853579836 20.7262185289667
endloop
endfacet
facet normal -3.84734198086005e-15 0.882679861224993 0.469974746755427
outer loop
vertex -168.21755743155 161.485853579836 20.7262185289667
vertex -165.803198077606 164.685853579836 14.7161603813318
vertex -168.471827227707 161.817224429734 20.1038566301164
endloop
endfacet
facet normal -3.84734198086005e-15 0.882679861224993 0.469974746755427
outer loop
vertex -168.471827227707 161.817224429734 20.1038566301164
vertex -165.803198077606 164.685853579836 14.7161603813318
vertex -168.803198077606 162.071494225891 19.6263015488388
endloop
endfacet
facet normal -3.84734198086005e-15 0.882679861224993 0.469974746755427
outer loop
vertex -168.803198077606 162.071494225891 19.6263015488388
vertex -165.803198077606 164.685853579836 14.7161603813318
vertex -169.189087605442 162.231334901898 19.3260978747257
endloop
endfacet
facet normal -3.84734198086005e-15 0.882679861224993 0.469974746755427
outer loop
vertex -169.189087605442 162.231334901898 19.3260978747257
vertex -165.803198077606 164.685853579836 14.7161603813318
vertex -169.603198077606 162.285853579836 19.2237039920582
endloop
endfacet
facet normal -3.84734198086005e-15 0.882679861224993 0.469974746755427
outer loop
vertex -174.451804352482 141.911408767234 57.4898283825306
vertex -168.057716755543 160.271743107672 23.0064918212661
vertex -168.21755743155 159.885853579836 23.731247602784
endloop
endfacet
facet normal -3.84734198086005e-15 0.882679861224993 0.469974746755427
outer loop
vertex -174.451804352482 141.911408767234 57.4898283825306
vertex -168.21755743155 159.885853579836 23.731247602784
vertex -168.471827227707 159.554482729937 24.3536095016343
endloop
endfacet
facet normal -3.84734198086005e-15 0.882679861224993 0.469974746755427
outer loop
vertex -174.451804352482 141.911408767234 57.4898283825306
vertex -168.471827227707 159.554482729937 24.3536095016343
vertex -168.803198077606 159.300212933781 24.8311645829121
endloop
endfacet
facet normal -3.84734198086005e-15 0.882679861224993 0.469974746755427
outer loop
vertex -174.451804352482 141.911408767234 57.4898283825306
vertex -168.803198077606 159.300212933781 24.8311645829121
vertex -169.189087605442 159.140372257773 25.1313682570251
endloop
endfacet
facet normal -3.84734198086005e-15 0.882679861224993 0.469974746755427
outer loop
vertex -174.451804352482 141.911408767234 57.4898283825306
vertex -169.189087605442 159.140372257773 25.1313682570251
vertex -169.603198077606 159.085853579836 25.2337621396927
endloop
endfacet
facet normal -3.84734198086005e-15 0.882679861224993 0.469974746755427
outer loop
vertex -174.451804352482 141.911408767234 57.4898283825306
vertex -169.603198077606 159.085853579836 25.2337621396927
vertex -202.003198077606 159.085853579836 25.2337621396927
endloop
endfacet
facet normal 0.648454371398034 0.761253524270844 -3.7973719627255e-15
outer loop
vertex -203.134568927505 159.554482729937 24.3536095016344
vertex -202.803198077607 159.300212933781 14.7161603813318
vertex -203.134568927505 159.554482729937 14.7161603813318
endloop
endfacet
facet normal 0.500000000000033 0.866025403784419 -3.16344374433501e-15
outer loop
vertex -202.803198077607 159.300212933781 14.7161603813318
vertex -203.134568927505 159.554482729937 24.3536095016344
vertex -202.803198077607 159.300212933781 24.831164582912
endloop
endfacet
facet normal -0.441266468870331 0.897376121506868 -1.9154237570769e-15
outer loop
vertex -201.203198077606 159.300212933781 24.831164582912
vertex -200.871827227708 159.554482729937 14.7161603813319
vertex -201.203198077606 159.300212933781 14.7161603813318
endloop
endfacet
facet normal -0.707106781186556 0.707106781186539 -8.95842476271852e-16
outer loop
vertex -200.871827227708 159.554482729937 14.7161603813319
vertex -201.203198077606 159.300212933781 24.831164582912
vertex -200.871827227708 159.554482729937 24.3536095016343
endloop
endfacet
facet normal 0.965925826289066 0.258819045102529 -6.36888010474534e-16
outer loop
vertex -203.548679399669 160.271743107672 14.7161603813318
vertex -203.388838723662 159.885853579836 23.731247602784
vertex -203.388838723662 159.885853579836 14.7161603813318
endloop
endfacet
facet normal 0.819509497331166 0.573065601640877 -2.95301330750064e-15
outer loop
vertex -203.388838723662 159.885853579836 23.731247602784
vertex -203.548679399669 160.271743107672 14.7161603813318
vertex -203.548679399669 160.271743107672 23.0064918212661
endloop
endfacet
facet normal -0.995943550826128 0.089980239874343 9.26364243287181e-16
outer loop
vertex -200.403198077607 160.685853579836 22.2287330658754
vertex -200.457716755544 160.271743107672 14.7161603813318
vertex -200.457716755544 160.271743107672 23.0064918212661
endloop
endfacet
facet normal -0.965925826289081 0.258819045102472 1.05681417122697e-15
outer loop
vertex -200.457716755544 160.271743107672 14.7161603813318
vertex -200.403198077607 160.685853579836 22.2287330658754
vertex -200.403198077607 160.685853579836 14.7161603813318
endloop
endfacet
facet normal 0.866025403784428 -0.500000000000018 -8.53849860196634e-16
outer loop
vertex -203.388838723662 161.485853579836 14.7161603813319
vertex -203.548679399669 161.099964052 21.4509743104847
vertex -203.548679399669 161.099964052 14.7161603813318
endloop
endfacet
facet normal 0.984938323419486 -0.17290604113105 -2.00108709520844e-16
outer loop
vertex -203.548679399669 161.099964052 21.4509743104847
vertex -203.388838723662 161.485853579836 14.7161603813319
vertex -203.388838723662 161.485853579836 20.7262185289667
endloop
endfacet
facet normal 1.0 3.42186619992834e-15 -2.30959388413839e-16
outer loop
vertex -203.603198077607 160.685853579836 14.7161603813318
vertex -203.548679399669 160.271743107672 23.0064918212661
vertex -203.548679399669 160.271743107672 14.7161603813318
endloop
endfacet
facet normal 0.938855008317676 0.344312755146854 -9.05791275498416e-16
outer loop
vertex -203.548679399669 160.271743107672 23.0064918212661
vertex -203.603198077607 160.685853579836 14.7161603813318
vertex -203.603198077607 160.685853579836 22.2287330658754
endloop
endfacet
facet normal -0.258819045102523 0.965925826289068 -1.00782278580582e-15
outer loop
vertex -201.589087605442 159.140372257773 14.7161603813319
vertex -201.203198077606 159.300212933781 24.831164582912
vertex -201.203198077606 159.300212933781 14.7161603813318
endloop
endfacet
facet normal -0.441266468870331 0.897376121506868 -1.9154237570769e-15
outer loop
vertex -201.203198077606 159.300212933781 24.831164582912
vertex -201.589087605442 159.140372257773 14.7161603813319
vertex -201.589087605442 159.140372257773 25.1313682570251
endloop
endfacet
facet normal 5.29441264733475e-15 -0.990628955220618 0.136580646793413
outer loop
vertex -174.602557782513 138.62566856251 57.8998075608183
vertex -200.464422191367 133.94895241338 23.9792592148756
vertex -171.141973963845 133.94895241338 23.9792592148756
endloop
endfacet
facet normal 5.29441264733475e-15 -0.990628955220618 0.136580646793413
outer loop
vertex -200.464422191367 133.94895241338 23.9792592148756
vertex -174.602557782513 138.62566856251 57.8998075608183
vertex -197.003838372698 138.62566856251 57.8998075608183
endloop
endfacet
facet normal -0.819509497331172 0.573065601640868 -1.0694429296754e-16
outer loop
vertex -200.617557431551 159.885853579836 23.731247602784
vertex -200.457716755544 160.271743107672 14.7161603813318
vertex -200.617557431551 159.885853579836 14.7161603813318
endloop
endfacet
facet normal -0.965925826289081 0.258819045102472 1.05681417122697e-15
outer loop
vertex -200.457716755544 160.271743107672 14.7161603813318
vertex -200.617557431551 159.885853579836 23.731247602784
vertex -200.457716755544 160.271743107672 23.0064918212661
endloop
endfacet
facet normal -0.258819045102465 -0.965925826289084 1.11980309533976e-16
outer loop
vertex -201.589087605442 162.231334901898 14.7161603813319
vertex -202.003198077607 162.285853579836 19.2237039920582
vertex -202.003198077607 162.285853579836 14.7161603813319
endloop
endfacet
facet normal 1.2852185929511e-14 -1.0 1.09180801795631e-15
outer loop
vertex -202.003198077607 162.285853579836 19.2237039920582
vertex -201.589087605442 162.231334901898 14.7161603813319
vertex -201.589087605442 162.231334901898 19.3260978747258
endloop
endfacet
facet normal -0.904485740120354 -0.426503863896841 1.13272396023237e-15
outer loop
vertex -200.617557431551 161.485853579836 20.7262185289667
vertex -200.871827227708 161.817224429734 14.7161603813319
vertex -200.617557431551 161.485853579836 14.7161603813318
endloop
endfacet
facet normal -0.707106781186521 -0.707106781186574 1.28777355964081e-15
outer loop
vertex -200.871827227708 161.817224429734 14.7161603813319
vertex -200.617557431551 161.485853579836 20.7262185289667
vertex -200.871827227708 161.817224429734 20.1038566301165
endloop
endfacet
facet normal -0.548995406372487 -0.83582536679734 -7.85752126585214e-17
outer loop
vertex -201.203198077607 162.071494225891 19.6263015488389
vertex -201.589087605442 162.231334901898 14.7161603813319
vertex -201.203198077607 162.071494225891 14.7161603813319
endloop
endfacet
facet normal -0.258819045102465 -0.965925826289084 1.11980309533976e-16
outer loop
vertex -201.589087605442 162.231334901898 14.7161603813319
vertex -201.203198077607 162.071494225891 19.6263015488389
vertex -201.589087605442 162.231334901898 19.3260978747258
endloop
endfacet
facet normal 0.972727637464277 -0.067815705657506 -0.221815178424156
outer loop
vertex -204.348973942357 149.655179245804 14.7161603813318
vertex -195.267503585873 140.643296095961 57.2964043789491
vertex -195.266734223019 140.147130900335 57.4514711945758
endloop
endfacet
facet normal 0.972727637464277 -0.067815705657506 -0.221815178424156
outer loop
vertex -195.267503585873 140.643296095961 57.2964043789491
vertex -204.348973942357 149.655179245804 14.7161603813318
vertex -195.264035378275 140.676485037083 57.301466656152
endloop
endfacet
facet normal -0.97272763746414 -0.0678157056586999 -0.221815178424395
outer loop
vertex -176.338892569339 140.643296095961 57.2964043789491
vertex -167.257422212855 149.655179245804 14.7161603813319
vertex -176.339661932193 140.147130900335 57.4514711945757
endloop
endfacet
facet normal -0.97272763746414 -0.0678157056586999 -0.221815178424395
outer loop
vertex -167.257422212855 149.655179245804 14.7161603813319
vertex -176.338892569339 140.643296095961 57.2964043789491
vertex -176.342360776937 140.676485037083 57.301466656152
endloop
endfacet
facet normal 5.11928225965832e-15 -0.904539566114914 -0.426389696560134
outer loop
vertex -185.356925833042 141.201557779901 57.3815554955652
vertex -176.203198077606 161.313541332498 14.7161603813316
vertex -176.77530606232 141.201557779901 57.3815554955652
endloop
endfacet
facet normal -9.2749293576625e-16 0.298301617746239 0.954471657436708
outer loop
vertex -197.191096816096 138.646366898474 57.9205058967823
vertex -195.234666825586 139.664333360108 57.6023602085883
vertex -195.280756461953 139.897082981644 57.5296188253394
endloop
endfacet
facet normal -9.2749293576625e-16 0.298301617746239 0.954471657436708
outer loop
vertex -195.234666825586 139.664333360108 57.6023602085883
vertex -197.191096816096 138.646366898474 57.9205058967823
vertex -195.137203408668 139.461485723101 57.6657563061087
endloop
endfacet
facet normal -9.2749293576625e-16 0.298301617746239 0.954471657436708
outer loop
vertex -195.137203408668 139.461485723101 57.6657563061087
vertex -197.191096816096 138.646366898474 57.9205058967823
vertex -174.415299339116 138.646366898474 57.9205058967823
endloop
endfacet
facet normal -9.2749293576625e-16 0.298301617746239 0.954471657436708
outer loop
vertex -195.137203408668 139.461485723101 57.6657563061087
vertex -174.415299339116 138.646366898474 57.9205058967823
vertex -176.469192746544 139.461485723101 57.6657563061087
endloop
endfacet
facet normal -9.2749293576625e-16 0.298301617746239 0.954471657436708
outer loop
vertex -176.469192746544 139.461485723101 57.6657563061087
vertex -174.415299339116 138.646366898474 57.9205058967823
vertex -176.371729329626 139.664333360108 57.6023602085883
endloop
endfacet
facet normal -9.2749293576625e-16 0.298301617746239 0.954471657436708
outer loop
vertex -176.371729329626 139.664333360108 57.6023602085883
vertex -174.415299339116 138.646366898474 57.9205058967823
vertex -176.325639693259 139.897082981644 57.5296188253394
endloop
endfacet
facet normal -9.2749293576625e-16 0.298301617746239 0.954471657436708
outer loop
vertex -176.325639693259 139.897082981644 57.5296188253394
vertex -176.338892569339 140.643296095961 57.2964043789491
vertex -176.339661932193 140.147130900335 57.4514711945757
endloop
endfacet
facet normal -9.2749293576625e-16 0.298301617746239 0.954471657436708
outer loop
vertex -176.338892569339 140.643296095961 57.2964043789491
vertex -176.325639693259 139.897082981644 57.5296188253394
vertex -174.412695056289 140.643296095961 57.2964043789491
endloop
endfacet
facet normal -9.2749293576625e-16 0.298301617746239 0.954471657436708
outer loop
vertex -174.412695056289 140.643296095961 57.2964043789491
vertex -176.325639693259 139.897082981644 57.5296188253394
vertex -174.415299339116 138.646366898474 57.9205058967823
endloop
endfacet
facet normal -9.2749293576625e-16 0.298301617746239 0.954471657436708
outer loop
vertex -197.191096816096 138.646366898474 57.9205058967823
vertex -195.267503585873 140.643296095961 57.2964043789491
vertex -197.193701098923 140.643296095961 57.2964043789491
endloop
endfacet
facet normal -9.2749293576625e-16 0.298301617746239 0.954471657436708
outer loop
vertex -195.267503585873 140.643296095961 57.2964043789491
vertex -197.191096816096 138.646366898474 57.9205058967823
vertex -195.280756461953 139.897082981644 57.5296188253394
endloop
endfacet
facet normal -9.2749293576625e-16 0.298301617746239 0.954471657436708
outer loop
vertex -195.267503585873 140.643296095961 57.2964043789491
vertex -195.280756461953 139.897082981644 57.5296188253394
vertex -195.266734223019 140.147130900335 57.4514711945758
endloop
endfacet
facet normal -5.03455433720157e-17 -0.904539566114914 -0.426389696560135
outer loop
vertex -194.831090092891 141.201557779901 57.3815554955652
vertex -195.403198077606 161.313541332498 14.7161603813317
vertex -186.24947032217 141.201557779901 57.3815554955652
endloop
endfacet
facet normal -4.38451638371215e-15 0.994850456795012 -0.101353680815035
outer loop
vertex -195.137203408668 139.461485723101 57.6657563061087
vertex -171.141973963845 136.265576113607 26.2958829151029
vertex -200.464422191367 136.265576113607 26.2958829151029
endloop
endfacet
facet normal -4.38451638371215e-15 0.994850456795012 -0.101353680815035
outer loop
vertex -171.141973963845 136.265576113607 26.2958829151029
vertex -195.137203408668 139.461485723101 57.6657563061087
vertex -176.469192746544 139.461485723101 57.6657563061087
endloop
endfacet
facet normal 3.81767790627418e-15 -0.707106781186528 0.707106781186567
outer loop
vertex -197.003838372698 138.62566856251 57.8998075608183
vertex -174.415299339116 138.646366898474 57.9205058967823
vertex -197.191096816096 138.646366898474 57.9205058967823
endloop
endfacet
facet normal 3.81767790627418e-15 -0.707106781186528 0.707106781186567
outer loop
vertex -174.415299339116 138.646366898474 57.9205058967823
vertex -197.003838372698 138.62566856251 57.8998075608183
vertex -174.602557782513 138.62566856251 57.8998075608183
endloop
endfacet
facet normal 0.970174295122487 0.127725869047956 -0.206028977232646
outer loop
vertex -204.348973942357 139.716527913867 14.7161603813319
vertex -195.280756461953 139.897082981644 57.5296188253394
vertex -195.234666825586 139.664333360108 57.6023602085883
endloop
endfacet
facet normal 0.970174295122487 0.127725869047956 -0.206028977232646
outer loop
vertex -195.280756461953 139.897082981644 57.5296188253394
vertex -204.348973942357 139.716527913867 14.7161603813319
vertex -205.003198077607 144.685853579836 14.7161603813319
endloop
endfacet
facet normal 0.0928204576485511 -0.985027256449516 0.145277894717172
outer loop
vertex -174.415299339116 138.646366898474 57.9205058967823
vertex -171.141973963845 133.94895241338 23.9792592148756
vertex -165.803198077605 133.085853579836 14.7161603813318
endloop
endfacet
facet normal 0.0928204576485511 -0.985027256449516 0.145277894717172
outer loop
vertex -171.141973963845 133.94895241338 23.9792592148756
vertex -174.415299339116 138.646366898474 57.9205058967823
vertex -174.602557782513 138.62566856251 57.8998075608183
endloop
endfacet
facet normal -0.997367861010813 0.0512706047492832 -0.0512706047492904
outer loop
vertex -171.141973963845 136.265576113607 26.2958829151029
vertex -170.710164300901 133.085853579836 14.7161603813318
vertex -171.141973963845 133.94895241338 23.9792592148756
endloop
endfacet
facet normal 0.980164820018892 5.71764857681956e-15 0.198184069988821
outer loop
vertex -165.803198077606 164.685853579836 14.7161603813318
vertex -174.412695056289 140.643296095961 57.2964043789491
vertex -165.803198077605 133.085853579836 14.7161603813318
endloop
endfacet
facet normal 0.980164820018892 5.71764857681956e-15 0.198184069988821
outer loop
vertex -174.412695056289 140.643296095961 57.2964043789491
vertex -165.803198077606 164.685853579836 14.7161603813318
vertex -174.451804352482 141.911408767234 57.4898283825306
endloop
endfacet
facet normal -0.500000000000037 0.866025403784418 -2.01564557161168e-15
outer loop
vertex -168.803198077606 159.300212933781 14.7161603813318
vertex -168.471827227707 159.554482729937 24.3536095016343
vertex -168.471827227707 159.554482729937 14.7161603813318
endloop
endfacet
facet normal -0.648454371398039 0.761253524270839 -2.938305001059e-15
outer loop
vertex -168.471827227707 159.554482729937 24.3536095016343
vertex -168.803198077606 159.300212933781 14.7161603813318
vertex -168.803198077606 159.300212933781 24.8311645829121
endloop
endfacet
facet normal 0.866025403784426 0.500000000000023 -6.15891702436896e-16
outer loop
vertex -170.988838723661 159.885853579836 14.7161603813318
vertex -170.734568927504 159.554482729937 24.3536095016343
vertex -170.734568927504 159.554482729937 14.7161603813318
endloop
endfacet
facet normal 0.648454371398032 0.761253524270846 -1.55395592975857e-15
outer loop
vertex -170.734568927504 159.554482729937 24.3536095016343
vertex -170.988838723661 159.885853579836 14.7161603813318
vertex -170.988838723661 159.885853579836 23.731247602784
endloop
endfacet
facet normal -0.258819045102481 -0.965925826289079 5.87896625053404e-16
outer loop
vertex -169.189087605442 162.231334901898 14.7161603813319
vertex -169.603198077606 162.285853579836 19.2237039920582
vertex -169.603198077606 162.285853579836 14.7161603813318
endloop
endfacet
facet normal -6.51496857400979e-15 -1.0 1.11980309533981e-15
outer loop
vertex -169.603198077606 162.285853579836 19.2237039920582
vertex -169.189087605442 162.231334901898 14.7161603813319
vertex -169.189087605442 162.231334901898 19.3260978747257
endloop
endfacet
facet normal -0.984938323419482 -0.172906041131071 2.86829356421536e-16
outer loop
vertex -168.057716755543 161.099964052 21.4509743104847
vertex -168.21755743155 161.485853579836 14.7161603813318
vertex -168.057716755543 161.099964052 14.7161603813318
endloop
endfacet
facet normal -0.866025403784421 -0.50000000000003 -7.55867089354386e-16
outer loop
vertex -168.21755743155 161.485853579836 14.7161603813318
vertex -168.057716755543 161.099964052 21.4509743104847
vertex -168.21755743155 161.485853579836 20.7262185289667
endloop
endfacet
facet normal -6.51496857400979e-15 -1.0 1.11980309533981e-15
outer loop
vertex -169.603198077606 162.285853579836 19.2237039920582
vertex -170.01730854977 162.231334901898 14.7161603813319
vertex -169.603198077606 162.285853579836 14.7161603813318
endloop
endfacet
facet normal 0.25881904510247 -0.965925826289082 -2.79950773834947e-17
outer loop
vertex -170.01730854977 162.231334901898 14.7161603813319
vertex -169.603198077606 162.285853579836 19.2237039920582
vertex -170.01730854977 162.231334901898 19.3260978747257
endloop
endfacet
facet normal -0.819509497331164 0.573065601640879 -2.05694075644823e-15
outer loop
vertex -168.21755743155 159.885853579836 23.731247602784
vertex -168.057716755543 160.271743107672 14.7161603813318
vertex -168.21755743155 159.885853579836 14.7161603813318
endloop
endfacet
facet normal -0.965925826289069 0.258819045102519 1.74969233646849e-16
outer loop
vertex -168.057716755543 160.271743107672 14.7161603813318
vertex -168.21755743155 159.885853579836 23.731247602784
vertex -168.057716755543 160.271743107672 23.0064918212661
endloop
endfacet
facet normal -0.33985505733872 -0.820482688668259 -0.459681082487631
outer loop
vertex -185.356925833042 141.201557779901 57.3815554955652
vertex -180.833872411638 163.231629444587 14.7161603813317
vertex -176.203198077606 161.313541332498 14.7161603813316
endloop
endfacet
facet normal -0.33985505733872 -0.820482688668259 -0.459681082487631
outer loop
vertex -180.833872411638 163.231629444587 14.7161603813317
vertex -185.356925833042 141.201557779901 57.3815554955652
vertex -185.573591128185 141.284238008037 57.394166631078
endloop
endfacet
facet normal -0.964124094465545 -0.126929345020575 -0.233138739474247
outer loop
vertex -176.339661932193 140.147130900335 57.4514711945757
vertex -166.603198077605 144.685853579836 14.7161603813318
vertex -176.325639693259 139.897082981644 57.5296188253394
endloop
endfacet
facet normal -0.964124094465545 -0.126929345020575 -0.233138739474247
outer loop
vertex -166.603198077605 144.685853579836 14.7161603813318
vertex -176.339661932193 140.147130900335 57.4514711945757
vertex -167.257422212855 149.655179245804 14.7161603813319
endloop
endfacet
facet normal 7.96580675830298e-15 -0.995687175123994 0.0927741844135537
outer loop
vertex -200.464422191367 133.94895241338 23.9792592148756
vertex -205.803198077606 133.085853579836 14.7161603813318
vertex -200.896231854311 133.085853579836 14.7161603813318
endloop
endfacet
facet normal -0.648454371398032 0.761253524270846 -1.23220205027441e-15
outer loop
vertex -200.871827227708 159.554482729937 24.3536095016343
vertex -200.617557431551 159.885853579836 14.7161603813318
vertex -200.871827227708 159.554482729937 14.7161603813319
endloop
endfacet
facet normal -0.86602540378444 0.499999999999998 3.35940928601974e-16
outer loop
vertex -200.617557431551 159.885853579836 14.7161603813318
vertex -200.871827227708 159.554482729937 24.3536095016343
vertex -200.617557431551 159.885853579836 23.731247602784
endloop
endfacet
facet normal 0.441266468870333 0.897376121506867 -2.77440079753036e-15
outer loop
vertex -202.803198077607 159.300212933781 24.831164582912
vertex -202.417308549771 159.140372257773 14.7161603813319
vertex -202.803198077607 159.300212933781 14.7161603813318
endloop
endfacet
facet normal 0.258819045102481 0.965925826289079 -8.39852321504829e-16
outer loop
vertex -202.417308549771 159.140372257773 14.7161603813319
vertex -202.803198077607 159.300212933781 24.831164582912
vertex -202.417308549771 159.140372257773 25.1313682570252
endloop
endfacet
facet normal 0.965925826289067 -0.258819045102526 -1.53972925609227e-16
outer loop
vertex -203.548679399669 161.099964052 14.7161603813318
vertex -203.603198077607 160.685853579836 22.2287330658754
vertex -203.603198077607 160.685853579836 14.7161603813318
endloop
endfacet
facet normal 0.995943550826121 0.0899802398744166 -2.34805946720699e-16
outer loop
vertex -203.603198077607 160.685853579836 22.2287330658754
vertex -203.548679399669 161.099964052 14.7161603813318
vertex -203.548679399669 161.099964052 21.4509743104847
endloop
endfacet
facet normal 2.03886194412388e-14 -1.0 1.09180801795634e-15
outer loop
vertex -202.003198077607 162.285853579836 14.7161603813319
vertex -202.417308549771 162.231334901898 19.3260978747257
vertex -202.417308549771 162.231334901898 14.7161603813318
endloop
endfacet
facet normal 0.289828508295647 -0.957078594358436 7.38239764178237e-16
outer loop
vertex -202.417308549771 162.231334901898 19.3260978747257
vertex -202.003198077607 162.285853579836 14.7161603813319
vertex -202.003198077607 162.285853579836 19.2237039920582
endloop
endfacet
facet normal -3.87915376339497e-16 -6.10622663543836e-15 -1.0
outer loop
vertex -205.803198077607 164.685853579836 14.7161603813318
vertex -205.003198077607 144.685853579836 14.7161603813319
vertex -205.803198077606 133.085853579836 14.7161603813318
endloop
endfacet
facet normal -3.87915376339497e-16 -6.10622663543836e-15 -1.0
outer loop
vertex -205.003198077607 144.685853579836 14.7161603813319
vertex -205.803198077607 164.685853579836 14.7161603813318
vertex -203.603198077607 160.685853579836 14.7161603813318
endloop
endfacet
facet normal -3.87915376339497e-16 -6.10622663543836e-15 -1.0
outer loop
vertex -203.603198077607 160.685853579836 14.7161603813318
vertex -205.803198077607 164.685853579836 14.7161603813318
vertex -203.548679399669 161.099964052 14.7161603813318
endloop
endfacet
facet normal -3.87915376339497e-16 -6.10622663543836e-15 -1.0
outer loop
vertex -203.548679399669 161.099964052 14.7161603813318
vertex -205.803198077607 164.685853579836 14.7161603813318
vertex -203.388838723662 161.485853579836 14.7161603813319
endloop
endfacet
facet normal -3.87915376339497e-16 -6.10622663543836e-15 -1.0
outer loop
vertex -203.388838723662 161.485853579836 14.7161603813319
vertex -205.803198077607 164.685853579836 14.7161603813318
vertex -203.134568927505 161.817224429734 14.7161603813318
endloop
endfacet
facet normal -3.87915376339497e-16 -6.10622663543836e-15 -1.0
outer loop
vertex -203.134568927505 161.817224429734 14.7161603813318
vertex -205.803198077607 164.685853579836 14.7161603813318
vertex -202.803198077607 162.071494225891 14.7161603813318
endloop
endfacet
facet normal -3.87915376339497e-16 -6.10622663543836e-15 -1.0
outer loop
vertex -202.803198077607 162.071494225891 14.7161603813318
vertex -205.803198077607 164.685853579836 14.7161603813318
vertex -202.417308549771 162.231334901898 14.7161603813318
endloop
endfacet
facet normal -3.87915376339497e-16 -6.10622663543836e-15 -1.0
outer loop
vertex -202.417308549771 162.231334901898 14.7161603813318
vertex -205.803198077607 164.685853579836 14.7161603813318
vertex -202.003198077607 162.285853579836 14.7161603813319
endloop
endfacet
facet normal -3.87915376339497e-16 -6.10622663543836e-15 -1.0
outer loop
vertex -202.003198077607 162.285853579836 14.7161603813319
vertex -205.803198077607 164.685853579836 14.7161603813318
vertex -185.803198077606 163.885853579837 14.7161603813317
endloop
endfacet
facet normal -3.87915376339497e-16 -6.10622663543836e-15 -1.0
outer loop
vertex -185.803198077606 163.885853579837 14.7161603813317
vertex -205.803198077607 164.685853579836 14.7161603813318
vertex -165.803198077606 164.685853579836 14.7161603813318
endloop
endfacet
facet normal -3.87915376339497e-16 -6.10622663543836e-15 -1.0
outer loop
vertex -205.003198077607 144.685853579836 14.7161603813319
vertex -203.603198077607 160.685853579836 14.7161603813318
vertex -204.348973942357 149.655179245804 14.7161603813318
endloop
endfacet
facet normal -3.87915376339497e-16 -6.10622663543836e-15 -1.0
outer loop
vertex -202.003198077607 162.285853579836 14.7161603813319
vertex -185.803198077606 163.885853579837 14.7161603813317
vertex -201.589087605442 162.231334901898 14.7161603813319
endloop
endfacet
facet normal -3.87915376339497e-16 -6.10622663543836e-15 -1.0
outer loop
vertex -201.589087605442 162.231334901898 14.7161603813319
vertex -185.803198077606 163.885853579837 14.7161603813317
vertex -201.203198077607 162.071494225891 14.7161603813319
endloop
endfacet
facet normal -3.87915376339497e-16 -6.10622663543836e-15 -1.0
outer loop
vertex -201.203198077607 162.071494225891 14.7161603813319
vertex -185.803198077606 163.885853579837 14.7161603813317
vertex -190.772523743575 163.231629444587 14.7161603813317
endloop
endfacet
facet normal -3.87915376339497e-16 -6.10622663543836e-15 -1.0
outer loop
vertex -201.203198077607 162.071494225891 14.7161603813319
vertex -190.772523743575 163.231629444587 14.7161603813317
vertex -200.871827227708 161.817224429734 14.7161603813319
endloop
endfacet
facet normal -3.87915376339497e-16 -6.10622663543836e-15 -1.0
outer loop
vertex -200.871827227708 161.817224429734 14.7161603813319
vertex -190.772523743575 163.231629444587 14.7161603813317
vertex -200.617557431551 161.485853579836 14.7161603813318
endloop
endfacet
facet normal -3.87915376339497e-16 -6.10622663543836e-15 -1.0
outer loop
vertex -200.617557431551 161.485853579836 14.7161603813318
vertex -190.772523743575 163.231629444587 14.7161603813317
vertex -200.457716755544 161.099964052 14.7161603813319
endloop
endfacet
facet normal -3.87915376339497e-16 -6.10622663543836e-15 -1.0
outer loop
vertex -200.457716755544 161.099964052 14.7161603813319
vertex -190.772523743575 163.231629444587 14.7161603813317
vertex -200.403198077607 160.685853579836 14.7161603813318
endloop
endfacet
facet normal -3.87915376339497e-16 -6.10622663543836e-15 -1.0
outer loop
vertex -200.403198077607 160.685853579836 14.7161603813318
vertex -190.772523743575 163.231629444587 14.7161603813317
vertex -195.403198077606 161.313541332498 14.7161603813317
endloop
endfacet
facet normal -3.87915376339497e-16 -6.10622663543836e-15 -1.0
outer loop
vertex -200.403198077607 160.685853579836 14.7161603813318
vertex -195.403198077606 161.313541332498 14.7161603813317
vertex -199.379648276388 158.262303778619 14.7161603813317
endloop
endfacet
facet normal -3.87915376339497e-16 -6.10622663543836e-15 -1.0
outer loop
vertex -185.803198077606 163.885853579837 14.7161603813317
vertex -165.803198077606 164.685853579836 14.7161603813318
vertex -180.833872411638 163.231629444587 14.7161603813317
endloop
endfacet
facet normal -3.87915376339497e-16 -6.10622663543836e-15 -1.0
outer loop
vertex -180.833872411638 163.231629444587 14.7161603813317
vertex -165.803198077606 164.685853579836 14.7161603813318
vertex -176.203198077606 161.313541332498 14.7161603813316
endloop
endfacet
facet normal -3.87915376339497e-16 -6.10622663543836e-15 -1.0
outer loop
vertex -176.203198077606 161.313541332498 14.7161603813316
vertex -165.803198077606 164.685853579836 14.7161603813318
vertex -170.403198077606 162.071494225891 14.7161603813318
endloop
endfacet
facet normal -3.87915376339497e-16 -6.10622663543836e-15 -1.0
outer loop
vertex -176.203198077606 161.313541332498 14.7161603813316
vertex -170.403198077606 162.071494225891 14.7161603813318
vertex -170.734568927504 161.817224429734 14.7161603813318
endloop
endfacet
facet normal -3.87915376339497e-16 -6.10622663543836e-15 -1.0
outer loop
vertex -176.203198077606 161.313541332498 14.7161603813316
vertex -170.734568927504 161.817224429734 14.7161603813318
vertex -170.988838723661 161.485853579836 14.7161603813318
endloop
endfacet
facet normal -3.87915376339497e-16 -6.10622663543836e-15 -1.0
outer loop
vertex -176.203198077606 161.313541332498 14.7161603813316
vertex -170.988838723661 161.485853579836 14.7161603813318
vertex -171.148679399668 161.099964052 14.7161603813318
endloop
endfacet
facet normal -3.87915376339497e-16 -6.10622663543836e-15 -1.0
outer loop
vertex -176.203198077606 161.313541332498 14.7161603813316
vertex -171.148679399668 161.099964052 14.7161603813318
vertex -172.226747878824 158.262303778619 14.7161603813317
endloop
endfacet
facet normal -3.87915376339497e-16 -6.10622663543836e-15 -1.0
outer loop
vertex -172.226747878824 158.262303778619 14.7161603813317
vertex -171.148679399668 161.099964052 14.7161603813318
vertex -171.203198077606 160.685853579836 14.7161603813318
endloop
endfacet
facet normal -3.87915376339497e-16 -6.10622663543836e-15 -1.0
outer loop
vertex -170.403198077606 162.071494225891 14.7161603813318
vertex -165.803198077606 164.685853579836 14.7161603813318
vertex -170.01730854977 162.231334901898 14.7161603813319
endloop
endfacet
facet normal -3.87915376339497e-16 -6.10622663543836e-15 -1.0
outer loop
vertex -170.01730854977 162.231334901898 14.7161603813319
vertex -165.803198077606 164.685853579836 14.7161603813318
vertex -169.603198077606 162.285853579836 14.7161603813318
endloop
endfacet
facet normal -3.87915376339497e-16 -6.10622663543836e-15 -1.0
outer loop
vertex -169.603198077606 162.285853579836 14.7161603813318
vertex -165.803198077606 164.685853579836 14.7161603813318
vertex -169.189087605442 162.231334901898 14.7161603813319
endloop
endfacet
facet normal -3.87915376339497e-16 -6.10622663543836e-15 -1.0
outer loop
vertex -169.189087605442 162.231334901898 14.7161603813319
vertex -165.803198077606 164.685853579836 14.7161603813318
vertex -168.803198077606 162.071494225891 14.7161603813318
endloop
endfacet
facet normal -3.87915376339497e-16 -6.10622663543836e-15 -1.0
outer loop
vertex -168.803198077606 162.071494225891 14.7161603813318
vertex -165.803198077606 164.685853579836 14.7161603813318
vertex -168.471827227707 161.817224429734 14.7161603813318
endloop
endfacet
facet normal -3.87915376339497e-16 -6.10622663543836e-15 -1.0
outer loop
vertex -168.471827227707 161.817224429734 14.7161603813318
vertex -165.803198077606 164.685853579836 14.7161603813318
vertex -168.21755743155 161.485853579836 14.7161603813318
endloop
endfacet
facet normal -3.87915376339497e-16 -6.10622663543836e-15 -1.0
outer loop
vertex -168.21755743155 161.485853579836 14.7161603813318
vertex -165.803198077606 164.685853579836 14.7161603813318
vertex -168.057716755543 161.099964052 14.7161603813318
endloop
endfacet
facet normal -3.87915376339497e-16 -6.10622663543836e-15 -1.0
outer loop
vertex -168.057716755543 161.099964052 14.7161603813318
vertex -165.803198077606 164.685853579836 14.7161603813318
vertex -168.003198077606 160.685853579836 14.7161603813318
endloop
endfacet
facet normal -3.87915376339497e-16 -6.10622663543836e-15 -1.0
outer loop
vertex -168.003198077606 160.685853579836 14.7161603813318
vertex -165.803198077606 164.685853579836 14.7161603813318
vertex -167.257422212855 149.655179245804 14.7161603813319
endloop
endfacet
facet normal -3.87915376339497e-16 -6.10622663543836e-15 -1.0
outer loop
vertex -167.257422212855 149.655179245804 14.7161603813319
vertex -165.803198077606 164.685853579836 14.7161603813318
vertex -166.603198077605 144.685853579836 14.7161603813318
endloop
endfacet
facet normal -3.87915376339497e-16 -6.10622663543836e-15 -1.0
outer loop
vertex -169.175510324944 135.085853579835 14.7161603813318
vertex -165.803198077605 133.085853579836 14.7161603813318
vertex -170.710164300901 133.085853579836 14.7161603813318
endloop
endfacet
facet normal -3.87915376339497e-16 -6.10622663543836e-15 -1.0
outer loop
vertex -165.803198077605 133.085853579836 14.7161603813318
vertex -169.175510324944 135.085853579835 14.7161603813318
vertex -167.257422212855 139.716527913868 14.7161603813318
endloop
endfacet
facet normal -3.87915376339497e-16 -6.10622663543836e-15 -1.0
outer loop
vertex -165.803198077605 133.085853579836 14.7161603813318
vertex -167.257422212855 139.716527913868 14.7161603813318
vertex -166.603198077605 144.685853579836 14.7161603813318
endloop
endfacet
facet normal -3.87915376339497e-16 -6.10622663543836e-15 -1.0
outer loop
vertex -165.803198077605 133.085853579836 14.7161603813318
vertex -166.603198077605 144.685853579836 14.7161603813318
vertex -165.803198077606 164.685853579836 14.7161603813318
endloop
endfacet
facet normal -3.87915376339497e-16 -6.10622663543836e-15 -1.0
outer loop
vertex -172.226747878824 158.262303778619 14.7161603813317
vertex -171.148679399668 160.271743107672 14.7161603813318
vertex -169.175510324944 154.285853579837 14.7161603813317
endloop
endfacet
facet normal -3.87915376339497e-16 -6.10622663543836e-15 -1.0
outer loop
vertex -171.148679399668 160.271743107672 14.7161603813318
vertex -172.226747878824 158.262303778619 14.7161603813317
vertex -171.203198077606 160.685853579836 14.7161603813318
endloop
endfacet
facet normal -3.87915376339497e-16 -6.10622663543836e-15 -1.0
outer loop
vertex -169.175510324944 154.285853579837 14.7161603813317
vertex -171.148679399668 160.271743107672 14.7161603813318
vertex -170.988838723661 159.885853579836 14.7161603813318
endloop
endfacet
facet normal -3.87915376339497e-16 -6.10622663543836e-15 -1.0
outer loop
vertex -169.175510324944 154.285853579837 14.7161603813317
vertex -170.988838723661 159.885853579836 14.7161603813318
vertex -170.734568927504 159.554482729937 14.7161603813318
endloop
endfacet
facet normal -3.87915376339497e-16 -6.10622663543836e-15 -1.0
outer loop
vertex -169.175510324944 154.285853579837 14.7161603813317
vertex -170.734568927504 159.554482729937 14.7161603813318
vertex -170.403198077606 159.300212933781 14.7161603813318
endloop
endfacet
facet normal -3.87915376339497e-16 -6.10622663543836e-15 -1.0
outer loop
vertex -169.175510324944 154.285853579837 14.7161603813317
vertex -170.403198077606 159.300212933781 14.7161603813318
vertex -170.01730854977 159.140372257773 14.7161603813318
endloop
endfacet
facet normal -3.87915376339497e-16 -6.10622663543836e-15 -1.0
outer loop
vertex -169.175510324944 154.285853579837 14.7161603813317
vertex -170.01730854977 159.140372257773 14.7161603813318
vertex -169.603198077606 159.085853579836 14.7161603813318
endloop
endfacet
facet normal -3.87915376339497e-16 -6.10622663543836e-15 -1.0
outer loop
vertex -169.175510324944 154.285853579837 14.7161603813317
vertex -169.603198077606 159.085853579836 14.7161603813318
vertex -169.189087605442 159.140372257773 14.7161603813318
endloop
endfacet
facet normal -3.87915376339497e-16 -6.10622663543836e-15 -1.0
outer loop
vertex -169.175510324944 154.285853579837 14.7161603813317
vertex -169.189087605442 159.140372257773 14.7161603813318
vertex -168.803198077606 159.300212933781 14.7161603813318
endloop
endfacet
facet normal -3.87915376339497e-16 -6.10622663543836e-15 -1.0
outer loop
vertex -169.175510324944 154.285853579837 14.7161603813317
vertex -168.803198077606 159.300212933781 14.7161603813318
vertex -167.257422212855 149.655179245804 14.7161603813319
endloop
endfacet
facet normal -3.87915376339497e-16 -6.10622663543836e-15 -1.0
outer loop
vertex -167.257422212855 149.655179245804 14.7161603813319
vertex -168.803198077606 159.300212933781 14.7161603813318
vertex -168.471827227707 159.554482729937 14.7161603813318
endloop
endfacet
facet normal -3.87915376339497e-16 -6.10622663543836e-15 -1.0
outer loop
vertex -167.257422212855 149.655179245804 14.7161603813319
vertex -168.471827227707 159.554482729937 14.7161603813318
vertex -168.21755743155 159.885853579836 14.7161603813318
endloop
endfacet
facet normal -3.87915376339497e-16 -6.10622663543836e-15 -1.0
outer loop
vertex -167.257422212855 149.655179245804 14.7161603813319
vertex -168.21755743155 159.885853579836 14.7161603813318
vertex -168.057716755543 160.271743107672 14.7161603813318
endloop
endfacet
facet normal -3.87915376339497e-16 -6.10622663543836e-15 -1.0
outer loop
vertex -167.257422212855 149.655179245804 14.7161603813319
vertex -168.057716755543 160.271743107672 14.7161603813318
vertex -168.003198077606 160.685853579836 14.7161603813318
endloop
endfacet
facet normal -3.87915376339497e-16 -6.10622663543836e-15 -1.0
outer loop
vertex -204.348973942357 149.655179245804 14.7161603813318
vertex -203.548679399669 160.271743107672 14.7161603813318
vertex -202.430885830268 154.285853579837 14.7161603813317
endloop
endfacet
facet normal -3.87915376339497e-16 -6.10622663543836e-15 -1.0
outer loop
vertex -203.548679399669 160.271743107672 14.7161603813318
vertex -204.348973942357 149.655179245804 14.7161603813318
vertex -203.603198077607 160.685853579836 14.7161603813318
endloop
endfacet
facet normal -3.87915376339497e-16 -6.10622663543836e-15 -1.0
outer loop
vertex -202.430885830268 154.285853579837 14.7161603813317
vertex -203.548679399669 160.271743107672 14.7161603813318
vertex -203.388838723662 159.885853579836 14.7161603813318
endloop
endfacet
facet normal -3.87915376339497e-16 -6.10622663543836e-15 -1.0
outer loop
vertex -202.430885830268 154.285853579837 14.7161603813317
vertex -203.388838723662 159.885853579836 14.7161603813318
vertex -203.134568927505 159.554482729937 14.7161603813318
endloop
endfacet
facet normal -3.87915376339497e-16 -6.10622663543836e-15 -1.0
outer loop
vertex -202.430885830268 154.285853579837 14.7161603813317
vertex -203.134568927505 159.554482729937 14.7161603813318
vertex -202.803198077607 159.300212933781 14.7161603813318
endloop
endfacet
facet normal -3.87915376339497e-16 -6.10622663543836e-15 -1.0
outer loop
vertex -202.430885830268 154.285853579837 14.7161603813317
vertex -202.803198077607 159.300212933781 14.7161603813318
vertex -202.417308549771 159.140372257773 14.7161603813319
endloop
endfacet
facet normal -3.87915376339497e-16 -6.10622663543836e-15 -1.0
outer loop
vertex -202.430885830268 154.285853579837 14.7161603813317
vertex -202.417308549771 159.140372257773 14.7161603813319
vertex -199.379648276388 158.262303778619 14.7161603813317
endloop
endfacet
facet normal -3.87915376339497e-16 -6.10622663543836e-15 -1.0
outer loop
vertex -199.379648276388 158.262303778619 14.7161603813317
vertex -202.417308549771 159.140372257773 14.7161603813319
vertex -202.003198077606 159.085853579836 14.7161603813318
endloop
endfacet
facet normal -3.87915376339497e-16 -6.10622663543836e-15 -1.0
outer loop
vertex -199.379648276388 158.262303778619 14.7161603813317
vertex -202.003198077606 159.085853579836 14.7161603813318
vertex -201.589087605442 159.140372257773 14.7161603813319
endloop
endfacet
facet normal -3.87915376339497e-16 -6.10622663543836e-15 -1.0
outer loop
vertex -199.379648276388 158.262303778619 14.7161603813317
vertex -201.589087605442 159.140372257773 14.7161603813319
vertex -201.203198077606 159.300212933781 14.7161603813318
endloop
endfacet
facet normal -3.87915376339497e-16 -6.10622663543836e-15 -1.0
outer loop
vertex -199.379648276388 158.262303778619 14.7161603813317
vertex -201.203198077606 159.300212933781 14.7161603813318
vertex -200.871827227708 159.554482729937 14.7161603813319
endloop
endfacet
facet normal -3.87915376339497e-16 -6.10622663543836e-15 -1.0
outer loop
vertex -199.379648276388 158.262303778619 14.7161603813317
vertex -200.871827227708 159.554482729937 14.7161603813319
vertex -200.617557431551 159.885853579836 14.7161603813318
endloop
endfacet
facet normal -3.87915376339497e-16 -6.10622663543836e-15 -1.0
outer loop
vertex -199.379648276388 158.262303778619 14.7161603813317
vertex -200.617557431551 159.885853579836 14.7161603813318
vertex -200.457716755544 160.271743107672 14.7161603813318
endloop
endfacet
facet normal -3.87915376339497e-16 -6.10622663543836e-15 -1.0
outer loop
vertex -199.379648276388 158.262303778619 14.7161603813317
vertex -200.457716755544 160.271743107672 14.7161603813318
vertex -200.403198077607 160.685853579836 14.7161603813318
endloop
endfacet
facet normal -3.87915376339497e-16 -6.10622663543836e-15 -1.0
outer loop
vertex -205.803198077606 133.085853579836 14.7161603813318
vertex -202.430885830268 135.085853579835 14.7161603813318
vertex -200.896231854311 133.085853579836 14.7161603813318
endloop
endfacet
facet normal -3.87915376339497e-16 -6.10622663543836e-15 -1.0
outer loop
vertex -202.430885830268 135.085853579835 14.7161603813318
vertex -205.803198077606 133.085853579836 14.7161603813318
vertex -204.348973942357 139.716527913867 14.7161603813319
endloop
endfacet
facet normal -3.87915376339497e-16 -6.10622663543836e-15 -1.0
outer loop
vertex -204.348973942357 139.716527913867 14.7161603813319
vertex -205.803198077606 133.085853579836 14.7161603813318
vertex -205.003198077607 144.685853579836 14.7161603813319
endloop
endfacet
facet normal 0.964124094465542 -0.126929345020581 -0.233138739474256
outer loop
vertex -205.003198077607 144.685853579836 14.7161603813319
vertex -195.266734223019 140.147130900335 57.4514711945758
vertex -195.280756461953 139.897082981644 57.5296188253394
endloop
endfacet
facet normal 0.964124094465542 -0.126929345020581 -0.233138739474256
outer loop
vertex -195.266734223019 140.147130900335 57.4514711945758
vertex -205.003198077607 144.685853579836 14.7161603813319
vertex -204.348973942357 149.655179245804 14.7161603813318
endloop
endfacet
facet normal 0.548995406372519 -0.835825366797319 -1.96197367058879e-15
outer loop
vertex -202.803198077606 162.071494225891 19.6263015488388
vertex -203.134568927505 161.817224429734 14.7161603813318
vertex -202.803198077607 162.071494225891 14.7161603813318
endloop
endfacet
facet normal 0.707106781186532 -0.707106781186563 -2.21161111329617e-15
outer loop
vertex -203.134568927505 161.817224429734 14.7161603813318
vertex -202.803198077606 162.071494225891 19.6263015488388
vertex -203.134568927505 161.817224429734 20.1038566301165
endloop
endfacet
facet normal 0.906649645783488 0.375546579604284 -0.192226913693681
outer loop
vertex -204.348973942357 139.716527913867 14.7161603813319
vertex -200.464422191367 136.265576113607 26.2958829151029
vertex -202.430885830268 135.085853579835 14.7161603813318
endloop
endfacet
facet normal 0.906649645783488 0.375546579604284 -0.192226913693681
outer loop
vertex -200.464422191367 136.265576113607 26.2958829151029
vertex -204.348973942357 139.716527913867 14.7161603813319
vertex -195.137203408668 139.461485723101 57.6657563061087
endloop
endfacet
facet normal 0.906649645783488 0.375546579604284 -0.192226913693681
outer loop
vertex -195.137203408668 139.461485723101 57.6657563061087
vertex -204.348973942357 139.716527913867 14.7161603813319
vertex -195.234666825586 139.664333360108 57.6023602085883
endloop
endfacet
facet normal -0.707106781186521 -0.707106781186574 1.28777355964081e-15
outer loop
vertex -200.871827227708 161.817224429734 14.7161603813319
vertex -201.203198077607 162.071494225891 19.6263015488389
vertex -201.203198077607 162.071494225891 14.7161603813319
endloop
endfacet
facet normal -0.548995406372487 -0.83582536679734 -7.85752126585214e-17
outer loop
vertex -201.203198077607 162.071494225891 19.6263015488389
vertex -200.871827227708 161.817224429734 14.7161603813319
vertex -200.871827227708 161.817224429734 20.1038566301165
endloop
endfacet
facet normal -0.980476695876627 0.0574906035471297 0.188043291150306
outer loop
vertex -197.193701098923 140.643296095961 57.2964043789491
vertex -205.803198077606 133.085853579836 14.7161603813318
vertex -197.191096816096 138.646366898474 57.9205058967823
endloop
endfacet
facet normal -3.36263177513093e-14 1.0 3.91931083368951e-16
outer loop
vertex -202.003198077606 159.085853579836 25.2337621396927
vertex -201.589087605442 159.140372257773 14.7161603813319
vertex -202.003198077606 159.085853579836 14.7161603813318
endloop
endfacet
facet normal -0.258819045102523 0.965925826289068 -1.00782278580582e-15
outer loop
vertex -201.589087605442 159.140372257773 14.7161603813319
vertex -202.003198077606 159.085853579836 25.2337621396927
vertex -201.589087605442 159.140372257773 25.1313682570251
endloop
endfacet
facet normal 0.707106781186532 -0.707106781186563 -2.21161111329617e-15
outer loop
vertex -203.134568927505 161.817224429734 14.7161603813318
vertex -203.388838723662 161.485853579836 20.7262185289667
vertex -203.388838723662 161.485853579836 14.7161603813319
endloop
endfacet
facet normal 0.90448574012035 -0.42650386389685 -3.66256483040679e-16
outer loop
vertex -203.388838723662 161.485853579836 20.7262185289667
vertex -203.134568927505 161.817224429734 14.7161603813318
vertex -203.134568927505 161.817224429734 20.1038566301165
endloop
endfacet
facet normal 0.568654969251155 -0.741085584320368 -0.356964539777423
outer loop
vertex -195.403198077606 161.313541332498 14.7161603813317
vertex -195.01802668247 141.067933637285 57.3611739338748
vertex -199.379648276388 158.262303778619 14.7161603813317
endloop
endfacet
facet normal 0.568654969251155 -0.741085584320368 -0.356964539777423
outer loop
vertex -195.01802668247 141.067933637285 57.3611739338748
vertex -195.403198077606 161.313541332498 14.7161603813317
vertex -194.831090092891 141.201557779901 57.3815554955652
endloop
endfacet
facet normal -0.980164820018891 -4.46864767411626e-15 0.198184069988822
outer loop
vertex -197.193701098923 140.643296095961 57.2964043789491
vertex -205.803198077607 164.685853579836 14.7161603813318
vertex -205.803198077606 133.085853579836 14.7161603813318
endloop
endfacet
facet normal -0.980164820018891 -4.46864767411626e-15 0.198184069988822
outer loop
vertex -205.803198077607 164.685853579836 14.7161603813318
vertex -197.193701098923 140.643296095961 57.2964043789491
vertex -197.15459180273 141.911408767234 57.4898283825306
endloop
endfacet
facet normal -0.984938323419493 -0.17290604113101 1.21667558468012e-16
outer loop
vertex -200.457716755544 161.099964052 21.4509743104847
vertex -200.617557431551 161.485853579836 14.7161603813318
vertex -200.457716755544 161.099964052 14.7161603813319
endloop
endfacet
facet normal -0.866025403784431 -0.500000000000013 1.69370218170149e-15
outer loop
vertex -200.617557431551 161.485853579836 14.7161603813318
vertex -200.457716755544 161.099964052 21.4509743104847
vertex -200.617557431551 161.485853579836 20.7262185289667
endloop
endfacet
facet normal 0.258819045102481 0.965925826289079 -8.39852321504829e-16
outer loop
vertex -202.417308549771 159.140372257773 14.7161603813319
vertex -202.003198077606 159.085853579836 25.2337621396927
vertex -202.003198077606 159.085853579836 14.7161603813318
endloop
endfacet
facet normal -3.36263177513093e-14 1.0 3.91931083368951e-16
outer loop
vertex -202.003198077606 159.085853579836 25.2337621396927
vertex -202.417308549771 159.140372257773 14.7161603813319
vertex -202.417308549771 159.140372257773 25.1313682570252
endloop
endfacet
facet normal 0.754152059632583 -0.578681228395992 -0.310455643939739
outer loop
vertex -202.430885830268 154.285853579837 14.7161603813317
vertex -195.01802668247 141.067933637285 57.3611739338748
vertex -195.165889913555 140.889810355653 57.3340049613971
endloop
endfacet
facet normal 0.754152059632583 -0.578681228395992 -0.310455643939739
outer loop
vertex -195.01802668247 141.067933637285 57.3611739338748
vertex -202.430885830268 154.285853579837 14.7161603813317
vertex -199.379648276388 158.262303778619 14.7161603813317
endloop
endfacet
facet normal -0.970174295122487 0.127725869047957 -0.206028977232646
outer loop
vertex -176.325639693259 139.897082981644 57.5296188253394
vertex -167.257422212855 139.716527913868 14.7161603813318
vertex -176.371729329626 139.664333360108 57.6023602085883
endloop
endfacet
facet normal -0.970174295122487 0.127725869047957 -0.206028977232646
outer loop
vertex -167.257422212855 139.716527913868 14.7161603813318
vertex -176.325639693259 139.897082981644 57.5296188253394
vertex -166.603198077605 144.685853579836 14.7161603813318
endloop
endfacet
facet normal -3.43664780008808e-15 0.707106781186523 -0.707106781186572
outer loop
vertex -171.141973963845 136.265576113607 26.2958829151029
vertex -200.464422191367 133.94895241338 23.9792592148756
vertex -200.464422191367 136.265576113607 26.2958829151029
endloop
endfacet
facet normal -3.43664780008808e-15 0.707106781186523 -0.707106781186572
outer loop
vertex -200.464422191367 133.94895241338 23.9792592148756
vertex -171.141973963845 136.265576113607 26.2958829151029
vertex -171.141973963845 133.94895241338 23.9792592148756
endloop
endfacet
facet normal -0.906649645783493 0.375546579604273 -0.19222691369368
outer loop
vertex -171.141973963845 136.265576113607 26.2958829151029
vertex -167.257422212855 139.716527913868 14.7161603813318
vertex -169.175510324944 135.085853579835 14.7161603813318
endloop
endfacet
facet normal -0.906649645783493 0.375546579604273 -0.19222691369368
outer loop
vertex -167.257422212855 139.716527913868 14.7161603813318
vertex -171.141973963845 136.265576113607 26.2958829151029
vertex -176.469192746544 139.461485723101 57.6657563061087
endloop
endfacet
facet normal -0.906649645783493 0.375546579604273 -0.19222691369368
outer loop
vertex -167.257422212855 139.716527913868 14.7161603813318
vertex -176.469192746544 139.461485723101 57.6657563061087
vertex -176.371729329626 139.664333360108 57.6023602085883
endloop
endfacet
facet normal 0.965925826289077 -0.258819045102487 1.04981540188108e-16
outer loop
vertex -171.148679399668 161.099964052 14.7161603813318
vertex -171.203198077606 160.685853579836 22.2287330658753
vertex -171.203198077606 160.685853579836 14.7161603813318
endloop
endfacet
facet normal 0.995943550826126 0.089980239874359 -3.94166347092487e-16
outer loop
vertex -171.203198077606 160.685853579836 22.2287330658753
vertex -171.148679399668 161.099964052 14.7161603813318
vertex -171.148679399668 161.099964052 21.4509743104847
endloop
endfacet
facet normal -0.707106781186521 -0.707106781186574 -2.57554711928162e-15
outer loop
vertex -168.471827227707 161.817224429734 14.7161603813318
vertex -168.803198077606 162.071494225891 19.6263015488388
vertex -168.803198077606 162.071494225891 14.7161603813318
endloop
endfacet
facet normal -0.548995406372511 -0.835825366797324 -2.90526703337886e-15
outer loop
vertex -168.803198077606 162.071494225891 19.6263015488388
vertex -168.471827227707 161.817224429734 14.7161603813318
vertex -168.471827227707 161.817224429734 20.1038566301164
endloop
endfacet
facet normal 0.258819045102514 0.96592582628907 -1.34376371440773e-15
outer loop
vertex -170.01730854977 159.140372257773 14.7161603813318
vertex -169.603198077606 159.085853579836 25.2337621396927
vertex -169.603198077606 159.085853579836 14.7161603813318
endloop
endfacet
facet normal 2.61140552749536e-14 1.0 4.75916315519443e-16
outer loop
vertex -169.603198077606 159.085853579836 25.2337621396927
vertex -170.01730854977 159.140372257773 14.7161603813318
vertex -170.01730854977 159.140372257773 25.1313682570251
endloop
endfacet
endsolid Carriage
